<svg width="325" height="234" viewBox="0 0 325 234" fill="none" xmlns="http://www.w3.org/2000/svg">
<path d="M123.443 109.258C123.081 107.686 122.196 106.283 120.934 105.279C119.672 104.275 118.106 103.728 116.493 103.728H64.6291C62.7378 103.728 60.9239 104.479 59.5865 105.817C58.2491 107.154 57.4978 108.968 57.4978 110.859V226.14C57.4978 228.031 58.2491 229.845 59.5865 231.182C60.9239 232.52 62.7378 233.271 64.6291 233.271H229.297C231.188 233.271 233.002 232.52 234.34 231.182C235.677 229.845 236.428 228.031 236.428 226.14V129.303C236.428 127.412 235.677 125.598 234.34 124.261C233.002 122.923 231.188 122.172 229.297 122.172H139.67C135.903 122.173 132.247 120.896 129.3 118.55C126.352 116.205 124.288 112.929 123.443 109.258Z" fill="#0045FF"/>
<path opacity="0.6" d="M123.443 109.258C123.081 107.686 122.196 106.283 120.934 105.279C119.672 104.275 118.106 103.728 116.493 103.728H64.6291C62.7378 103.728 60.9239 104.479 59.5865 105.817C58.2491 107.154 57.4978 108.968 57.4978 110.859V226.14C57.4978 228.031 58.2491 229.845 59.5865 231.182C60.9239 232.52 62.7378 233.271 64.6291 233.271H229.297C231.188 233.271 233.002 232.52 234.34 231.182C235.677 229.845 236.428 228.031 236.428 226.14V129.303C236.428 127.412 235.677 125.598 234.34 124.261C233.002 122.923 231.188 122.172 229.297 122.172H139.67C135.903 122.173 132.247 120.896 129.3 118.55C126.352 116.205 124.288 112.929 123.443 109.258Z" fill="black"/>
<path opacity="0.22" d="M105.135 73.3552L109.757 88.3245C110.347 90.2296 111.669 91.8227 113.433 92.7538C115.197 93.6849 117.258 93.8779 119.164 93.2904L134.127 88.6681L105.135 73.3552Z" fill="#0045FF"/>
<path d="M105.135 73.3552L51.65 89.8804C50.7058 90.1704 49.8281 90.6438 49.0671 91.2734C48.306 91.903 47.6766 92.6765 47.2147 93.5496C46.7529 94.4227 46.4677 95.3782 46.3756 96.3616C46.2834 97.3451 46.386 98.337 46.6776 99.2807L77.2124 198.133C77.5039 199.077 77.9784 199.954 78.6089 200.715C79.2394 201.475 80.0135 202.104 80.8871 202.565C81.7606 203.026 82.7165 203.311 83.7 203.402C84.6836 203.494 85.6755 203.391 86.6192 203.099L155.073 181.952C156.017 181.661 156.894 181.187 157.654 180.557C158.414 179.927 159.043 179.154 159.504 178.281C159.966 177.408 160.25 176.452 160.342 175.469C160.434 174.486 160.331 173.495 160.039 172.551L134.107 88.6681L105.135 73.3552Z" fill="#0045FF"/>
<path opacity="0.8" d="M105.135 73.3552L51.65 89.8804C50.7058 90.1704 49.8281 90.6438 49.0671 91.2734C48.306 91.903 47.6766 92.6765 47.2147 93.5496C46.7529 94.4227 46.4677 95.3782 46.3756 96.3616C46.2834 97.3451 46.386 98.337 46.6776 99.2807L77.2124 198.133C77.5039 199.077 77.9784 199.954 78.6089 200.715C79.2394 201.475 80.0135 202.104 80.8871 202.565C81.7606 203.026 82.7165 203.311 83.7 203.402C84.6836 203.494 85.6755 203.391 86.6192 203.099L155.073 181.952C156.017 181.661 156.894 181.187 157.654 180.557C158.414 179.927 159.043 179.154 159.504 178.281C159.966 177.408 160.25 176.452 160.342 175.469C160.434 174.486 160.331 173.495 160.039 172.551L134.107 88.6681L105.135 73.3552Z" fill="white"/>
<g opacity="0.28">
<path d="M133.913 177.634L89.4135 191.378C88.5813 191.634 87.6817 191.549 86.9115 191.143C86.1413 190.738 85.5631 190.043 85.3032 189.213C85.0499 188.38 85.1361 187.482 85.543 186.713C85.9499 185.944 86.6444 185.367 87.475 185.109L131.974 171.358C132.807 171.103 133.708 171.188 134.478 171.595C135.248 172.002 135.826 172.698 136.084 173.53C136.338 174.362 136.252 175.261 135.845 176.03C135.438 176.799 134.743 177.375 133.913 177.634Z" fill="#0045FF"/>
</g>
<g opacity="0.28">
<path d="M86.0228 96.9726L62.4895 104.24C61.6573 104.494 60.7586 104.409 59.9888 104.003C59.2191 103.598 58.6406 102.905 58.3793 102.075C58.1258 101.242 58.2118 100.342 58.6186 99.5723C59.0254 98.8023 59.72 98.2244 60.5511 97.9645L84.0844 90.6971C84.9166 90.4397 85.8169 90.5231 86.5876 90.9292C87.3582 91.3352 87.9362 92.0305 88.1946 92.8624C88.4481 93.6954 88.3621 94.5949 87.9553 95.3648C87.5485 96.1348 86.8539 96.7127 86.0228 96.9726Z" fill="#0045FF"/>
</g>
<g opacity="0.28">
<path d="M105.225 104.681L66.3274 116.694C65.497 116.944 64.6017 116.855 63.8358 116.449C63.0699 116.042 62.4953 115.35 62.2367 114.522C61.9813 113.691 62.0657 112.792 62.4716 112.023C62.8774 111.254 63.5716 110.677 64.402 110.419L103.3 98.4057C104.132 98.1501 105.032 98.2343 105.802 98.6401C106.572 99.0459 107.15 99.7401 107.41 100.571C107.661 101.406 107.573 102.306 107.164 103.076C106.754 103.845 106.058 104.422 105.225 104.681Z" fill="#0045FF"/>
</g>
<g opacity="0.28">
<path d="M126.943 111.611L70.1784 129.115C69.3471 129.371 68.4484 129.286 67.6793 128.88C66.9101 128.475 66.3331 127.78 66.0747 126.95C65.8209 126.118 65.906 125.219 66.3115 124.449C66.717 123.68 67.4101 123.101 68.24 122.84L125.005 105.336C125.836 105.082 126.734 105.167 127.503 105.573C128.272 105.979 128.849 106.672 129.109 107.501C129.364 108.333 129.28 109.233 128.874 110.003C128.469 110.773 127.774 111.351 126.943 111.611Z" fill="#0045FF"/>
</g>
<g opacity="0.28">
<path d="M130.788 124.059L97.7894 134.256C96.9572 134.51 96.0586 134.423 95.2898 134.017C94.5209 133.61 93.9442 132.915 93.6857 132.084C93.4321 131.253 93.5174 130.355 93.923 129.587C94.3286 128.818 95.0216 128.241 95.851 127.981L128.849 117.783C129.682 117.531 130.581 117.618 131.351 118.025C132.12 118.431 132.698 119.125 132.96 119.955C133.213 120.787 133.127 121.686 132.72 122.454C132.313 123.223 131.618 123.8 130.788 124.059Z" fill="#0045FF"/>
</g>
<g opacity="0.28">
<path d="M82.658 138.931L74.0292 141.595C73.197 141.851 72.2974 141.766 71.5272 141.361C70.757 140.955 70.1788 140.261 69.9189 139.43C69.6636 138.597 69.7488 137.696 70.1559 136.926C70.5629 136.156 71.2587 135.578 72.0907 135.32L80.7196 132.655C81.5518 132.401 82.4506 132.486 83.2203 132.892C83.9901 133.297 84.5685 133.99 84.8298 134.82C85.0816 135.653 84.9948 136.552 84.5882 137.322C84.1816 138.091 83.4881 138.669 82.658 138.931Z" fill="#0045FF"/>
</g>
<g opacity="0.28">
<path d="M134.639 136.512L77.8738 154.049C77.0416 154.302 76.143 154.216 75.3741 153.809C74.6053 153.402 74.0286 152.708 73.7701 151.877C73.5147 151.046 73.5991 150.147 74.005 149.378C74.4108 148.609 75.105 148.032 75.9354 147.773L132.7 130.237C133.532 129.983 134.43 130.069 135.198 130.474C135.967 130.88 136.544 131.573 136.804 132.402C137.06 133.234 136.975 134.134 136.57 134.904C136.164 135.674 135.47 136.253 134.639 136.512Z" fill="#0045FF"/>
</g>
<g opacity="0.28">
<path d="M116.577 155.728L81.7183 166.496C80.887 166.75 79.9891 166.665 79.2204 166.259C78.4516 165.853 77.8744 165.16 77.6146 164.331C77.3607 163.499 77.4458 162.6 77.8514 161.83C78.2569 161.061 78.95 160.482 79.7799 160.221L114.639 149.453C115.472 149.199 116.371 149.285 117.141 149.692C117.911 150.099 118.489 150.793 118.749 151.624C119.004 152.457 118.919 153.356 118.512 154.125C118.105 154.895 117.409 155.471 116.577 155.728Z" fill="#0045FF"/>
</g>
<g opacity="0.28">
<path d="M138.483 148.966L129.18 151.838C128.347 152.092 127.448 152.006 126.678 151.599C125.908 151.192 125.33 150.498 125.07 149.667C124.817 148.834 124.903 147.936 125.31 147.167C125.717 146.398 126.411 145.821 127.242 145.563L136.545 142.691C137.376 142.435 138.275 142.52 139.044 142.926C139.813 143.332 140.39 144.026 140.649 144.856C140.904 145.688 140.82 146.588 140.414 147.358C140.008 148.128 139.314 148.707 138.483 148.966Z" fill="#0045FF"/>
</g>
<g opacity="0.28">
<path d="M142.328 161.427L85.5756 178.931C84.7426 179.186 83.8423 179.101 83.0719 178.694C82.3016 178.287 81.7239 177.591 81.4654 176.759C81.2103 175.927 81.2957 175.027 81.7028 174.258C82.1099 173.489 82.8056 172.912 83.6372 172.655L140.396 155.119C141.229 154.867 142.128 154.954 142.897 155.36C143.666 155.767 144.245 156.46 144.506 157.291C144.636 157.705 144.683 158.141 144.644 158.574C144.605 159.007 144.48 159.428 144.278 159.812C144.075 160.197 143.799 160.537 143.464 160.814C143.129 161.091 142.743 161.299 142.328 161.427Z" fill="#0045FF"/>
</g>
<path d="M143.547 36.1817L160.519 74.0035C160.96 74.9908 160.991 76.1124 160.608 77.1231C160.224 78.1338 159.455 78.9514 158.47 79.3973L86.4703 111.715C85.4832 112.157 84.3609 112.19 83.3497 111.806C82.3385 111.422 81.5209 110.653 81.0764 109.666L64.0975 71.8446C63.6531 70.8568 63.6192 69.7329 64.0034 68.7202C64.3876 67.7075 65.1583 66.8888 66.1461 66.4443L138.146 34.1266C139.135 33.6861 140.258 33.6551 141.27 34.0401C142.282 34.4252 143.101 35.1951 143.547 36.1817Z" fill="#0045FF"/>
<path opacity="0.3" d="M143.547 36.1817L160.519 74.0035C160.96 74.9908 160.991 76.1124 160.608 77.1231C160.224 78.1338 159.455 78.9514 158.47 79.3973L86.4703 111.715C85.4832 112.157 84.3609 112.19 83.3497 111.806C82.3385 111.422 81.5209 110.653 81.0764 109.666L64.0975 71.8446C63.6531 70.8568 63.6192 69.7329 64.0034 68.7202C64.3876 67.7075 65.1583 66.8888 66.1461 66.4443L138.146 34.1266C139.135 33.6861 140.258 33.6551 141.27 34.0401C142.282 34.4252 143.101 35.1951 143.547 36.1817Z" fill="black"/>
<path d="M132.199 34.3128L129.898 35.345L130.163 35.9365L132.464 34.9043L132.199 34.3128Z" fill="#0045FF"/>
<path d="M126.675 36.7875L119.5 40.0061L119.766 40.5976L126.941 37.379L126.675 36.7875Z" fill="#0045FF"/>
<path d="M64.0334 75.6563L63.442 75.9219L65.4071 80.2984L65.9985 80.0328L64.0334 75.6563Z" fill="#0045FF"/>
<path opacity="0.6" d="M141.135 33.9904L122.568 70.36C120.845 73.731 118.023 76.4132 114.569 77.9633C111.116 79.5134 107.236 79.8386 103.572 78.8851L64.0587 68.5836C64.464 67.6356 65.2083 66.8727 66.1462 66.4443L138.146 34.1266C139.089 33.7048 140.157 33.6562 141.135 33.9904Z" fill="#0045FF"/>
<path d="M166.658 80.5386L110.788 83.9875C109.801 84.0462 108.835 84.2989 107.946 84.7313C107.057 85.1636 106.261 85.7671 105.606 86.5072C104.95 87.2472 104.447 88.1093 104.124 89.0442C103.802 89.979 103.667 90.9682 103.728 91.9551L110.101 195.216C110.16 196.204 110.414 197.17 110.848 198.059C111.281 198.949 111.886 199.744 112.627 200.399C113.369 201.054 114.232 201.557 115.168 201.878C116.104 202.199 117.094 202.332 118.081 202.27L189.589 197.855C190.575 197.795 191.539 197.542 192.427 197.109C193.315 196.676 194.109 196.072 194.763 195.332C195.417 194.592 195.918 193.73 196.239 192.796C196.559 191.861 196.692 190.873 196.629 189.887L191.248 102.257L166.658 80.5386Z" fill="#0045FF"/>
<path opacity="0.8" d="M166.658 80.5386L110.788 83.9875C109.801 84.0462 108.835 84.2989 107.946 84.7313C107.057 85.1636 106.261 85.7671 105.606 86.5072C104.95 87.2472 104.447 88.1093 104.124 89.0442C103.802 89.979 103.667 90.9682 103.728 91.9551L110.101 195.216C110.16 196.204 110.414 197.17 110.848 198.059C111.281 198.949 111.886 199.744 112.627 200.399C113.369 201.054 114.232 201.557 115.168 201.878C116.104 202.199 117.094 202.332 118.081 202.27L189.589 197.855C190.575 197.795 191.539 197.542 192.427 197.109C193.315 196.676 194.109 196.072 194.763 195.332C195.417 194.592 195.918 193.73 196.239 192.796C196.559 191.861 196.692 190.873 196.629 189.887L191.248 102.257L166.658 80.5386Z" fill="white"/>
<g opacity="0.22">
<path d="M170.036 188.655L123.546 191.527C122.678 191.577 121.825 191.281 121.174 190.704C120.523 190.127 120.127 189.316 120.071 188.448C120.022 187.579 120.317 186.727 120.892 186.075C121.467 185.423 122.277 185.025 123.144 184.966L169.634 182.101C170.502 182.049 171.356 182.343 172.008 182.919C172.661 183.495 173.059 184.305 173.115 185.174C173.167 186.043 172.872 186.898 172.294 187.55C171.717 188.203 170.905 188.6 170.036 188.655Z" fill="#0045FF"/>
</g>
<g opacity="0.22">
<path d="M142.522 98.9825L117.932 100.487C117.064 100.536 116.212 100.241 115.56 99.666C114.908 99.0906 114.509 98.2811 114.451 97.4136C114.401 96.5444 114.697 95.6908 115.274 95.0387C115.851 94.3867 116.662 93.9889 117.53 93.9322L142.12 92.4152C142.988 92.3637 143.841 92.6582 144.492 93.2341C145.144 93.81 145.54 94.6205 145.595 95.4881C145.65 96.3588 145.358 97.2158 144.782 97.8709C144.205 98.526 143.393 98.9258 142.522 98.9825Z" fill="#0045FF"/>
</g>
<g opacity="0.22">
<path d="M159.365 111.002L118.736 113.504C117.867 113.558 117.013 113.264 116.36 112.688C115.707 112.112 115.31 111.3 115.255 110.431C115.203 109.562 115.498 108.707 116.076 108.055C116.653 107.402 117.465 107.005 118.334 106.95L158.957 104.448C159.825 104.394 160.68 104.688 161.333 105.264C161.985 105.84 162.383 106.652 162.438 107.521C162.489 108.389 162.195 109.243 161.619 109.895C161.044 110.547 160.233 110.945 159.365 111.002Z" fill="#0045FF"/>
</g>
<g opacity="0.22">
<path d="M178.833 122.859L119.54 126.516C118.669 126.569 117.812 126.275 117.157 125.698C116.502 125.121 116.102 124.307 116.046 123.436C115.994 122.569 116.289 121.716 116.865 121.064C117.441 120.413 118.251 120.017 119.119 119.961L178.419 116.299C179.287 116.249 180.14 116.545 180.791 117.122C181.442 117.699 181.838 118.51 181.893 119.378C181.945 120.244 181.653 121.096 181.08 121.748C180.507 122.4 179.699 122.799 178.833 122.859Z" fill="#0045FF"/>
</g>
<g opacity="0.22">
<path d="M179.637 135.864L145.167 137.991C144.299 138.042 143.445 137.748 142.793 137.172C142.14 136.596 141.742 135.786 141.686 134.918C141.632 134.049 141.926 133.194 142.502 132.541C143.078 131.889 143.89 131.491 144.759 131.436L179.229 129.31C180.098 129.257 180.952 129.55 181.605 130.126C182.258 130.702 182.655 131.514 182.71 132.383C182.762 133.251 182.467 134.105 181.892 134.757C181.316 135.41 180.505 135.807 179.637 135.864Z" fill="#0045FF"/>
</g>
<g opacity="0.22">
<path d="M129.355 138.963L120.337 139.521C119.47 139.572 118.617 139.278 117.965 138.702C117.314 138.126 116.918 137.315 116.862 136.448C116.811 135.579 117.105 134.725 117.681 134.073C118.257 133.421 119.067 133.023 119.935 132.966L128.953 132.409C129.822 132.359 130.676 132.655 131.328 133.232C131.98 133.808 132.378 134.619 132.435 135.488C132.484 136.357 132.188 137.21 131.611 137.861C131.034 138.512 130.223 138.908 129.355 138.963Z" fill="#0045FF"/>
</g>
<g opacity="0.22">
<path d="M180.441 148.869L121.141 152.526C120.273 152.577 119.419 152.283 118.767 151.707C118.114 151.131 117.716 150.321 117.66 149.453C117.61 148.583 117.906 147.73 118.482 147.078C119.059 146.426 119.87 146.028 120.739 145.971L180.033 142.315C180.902 142.263 181.757 142.559 182.409 143.136C183.062 143.713 183.459 144.525 183.514 145.394C183.565 146.262 183.271 147.115 182.695 147.766C182.119 148.418 181.309 148.814 180.441 148.869Z" fill="#0045FF"/>
</g>
<g opacity="0.22">
<path d="M158.36 163.287L121.945 165.537C121.076 165.587 120.222 165.291 119.57 164.714C118.918 164.137 118.521 163.326 118.464 162.457C118.414 161.589 118.71 160.736 119.287 160.085C119.864 159.434 120.675 159.038 121.543 158.983L157.958 156.733C158.827 156.683 159.68 156.979 160.331 157.556C160.982 158.133 161.378 158.944 161.433 159.812C161.486 160.681 161.192 161.534 160.616 162.186C160.04 162.838 159.228 163.234 158.36 163.287Z" fill="#0045FF"/>
</g>
<g opacity="0.22">
<path d="M181.239 161.88L171.514 162.477C170.646 162.528 169.793 162.234 169.142 161.658C168.491 161.082 168.094 160.271 168.039 159.404C167.986 158.535 168.28 157.68 168.856 157.028C169.432 156.375 170.243 155.977 171.112 155.922L180.837 155.326C181.706 155.273 182.56 155.566 183.213 156.142C183.865 156.719 184.263 157.53 184.318 158.399C184.368 159.268 184.072 160.122 183.495 160.774C182.918 161.426 182.107 161.824 181.239 161.88Z" fill="#0045FF"/>
</g>
<g opacity="0.22">
<path d="M182.042 174.885L122.749 178.542C121.881 178.593 121.027 178.299 120.375 177.723C119.722 177.147 119.324 176.337 119.268 175.469C119.216 174.6 119.51 173.747 120.086 173.094C120.662 172.442 121.472 172.044 122.341 171.987L181.641 168.331C182.508 168.279 183.361 168.574 184.013 169.15C184.664 169.726 185.06 170.536 185.115 171.404C185.169 172.273 184.875 173.127 184.299 173.78C183.723 174.433 182.911 174.83 182.042 174.885Z" fill="#0045FF"/>
</g>
<path opacity="0.22" d="M166.658 80.5386L167.624 96.1755C167.684 97.1615 167.938 98.1259 168.371 99.0136C168.805 99.9014 169.408 100.695 170.148 101.35C170.888 102.004 171.75 102.506 172.684 102.828C173.618 103.149 174.606 103.283 175.592 103.223L191.248 102.257L166.658 80.5386Z" fill="#0045FF"/>
<path opacity="0.5" d="M148.363 119.547C148.354 118.797 148.194 118.057 147.893 117.371C147.593 116.684 147.158 116.065 146.614 115.55C146.07 115.034 145.428 114.633 144.726 114.37C144.025 114.106 143.277 113.986 142.529 114.017H90.6C86.6648 114.017 82.8204 117.213 82.0813 121.148L61.5886 226.14C60.8236 230.075 63.3909 233.271 67.326 233.271H231.994C235.929 233.271 239.741 230.082 240.513 226.14L257.414 139.592C258.179 135.65 255.611 132.461 251.676 132.461H162.075C154.295 132.461 148.629 127.106 148.363 119.547Z" fill="#0045FF"/>
</svg>
