<svg width="212" height="210" viewBox="0 0 212 210" fill="none" xmlns="http://www.w3.org/2000/svg">
<g opacity="0.2">
<path d="M153.857 206.604L116.566 137.68L79.2761 206.604H153.857Z" fill="#0045FF"/>
<path d="M153.857 90.0026L116.566 158.921L79.2761 90.0026H153.857Z" fill="#0045FF"/>
</g>
<path d="M123.399 130.695L117.943 140.777C117.809 141.025 117.61 141.233 117.368 141.377C117.126 141.522 116.849 141.598 116.567 141.598C116.285 141.598 116.008 141.522 115.765 141.377C115.523 141.233 115.325 141.025 115.191 140.777L109.734 130.695C109.242 129.783 108.995 128.76 109.018 127.724C109.04 126.689 109.332 125.677 109.863 124.788C110.394 123.899 111.147 123.164 112.048 122.653C112.949 122.143 113.968 121.875 115.003 121.877H118.159C119.192 121.88 120.207 122.152 121.104 122.664C122.001 123.176 122.75 123.913 123.278 124.801C123.806 125.689 124.094 126.699 124.116 127.732C124.137 128.765 123.89 129.785 123.399 130.695Z" fill="#0045FF"/>
<path d="M117.158 189.203L134.108 196.171C134.439 196.31 134.711 196.559 134.88 196.876C135.049 197.193 135.104 197.558 135.035 197.91C134.966 198.263 134.778 198.581 134.503 198.811C134.228 199.041 133.881 199.169 133.522 199.174H99.6397C99.2808 199.169 98.9345 199.041 98.6591 198.811C98.3837 198.581 98.1958 198.263 98.1271 197.91C98.0585 197.558 98.1131 197.193 98.282 196.876C98.4508 196.559 98.7235 196.31 99.0542 196.171L115.957 189.203C116.148 189.124 116.352 189.083 116.558 189.083C116.764 189.083 116.968 189.124 117.158 189.203Z" fill="#0045FF"/>
<path d="M116.567 175.948C117.766 175.948 118.739 174.975 118.739 173.775C118.739 172.576 117.766 171.603 116.567 171.603C115.367 171.603 114.394 172.576 114.394 173.775C114.394 174.975 115.367 175.948 116.567 175.948Z" fill="#0045FF"/>
<path d="M116.566 152.206C117.184 152.206 117.685 151.705 117.685 151.087C117.685 150.47 117.184 149.969 116.566 149.969C115.949 149.969 115.448 150.47 115.448 151.087C115.448 151.705 115.949 152.206 116.566 152.206Z" fill="#0045FF"/>
<path d="M116.567 163.172C117.268 163.172 117.837 162.603 117.837 161.901C117.837 161.2 117.268 160.631 116.567 160.631C115.865 160.631 115.296 161.2 115.296 161.901C115.296 162.603 115.865 163.172 116.567 163.172Z" fill="#0045FF"/>
<path d="M153.669 203.203H79.4636C78.5629 203.206 77.7001 203.565 77.0637 204.203C76.4274 204.84 76.0693 205.704 76.0677 206.604C76.0708 207.504 76.4296 208.366 77.0658 209.002C77.702 209.638 78.5639 209.997 79.4636 210H153.669C154.569 209.997 155.431 209.638 156.067 209.002C156.703 208.366 157.062 207.504 157.065 206.604C157.064 205.704 156.706 204.84 156.069 204.203C155.433 203.565 154.57 203.206 153.669 203.203Z" fill="#0045FF"/>
<path d="M153.669 86.6066H79.4636C78.5639 86.6097 77.702 86.9684 77.0658 87.6046C76.4296 88.2408 76.0708 89.1028 76.0677 90.0024C76.0708 90.9021 76.4296 91.7641 77.0658 92.4003C77.702 93.0365 78.5639 93.3952 79.4636 93.3983H153.669C154.569 93.3952 155.431 93.0365 156.067 92.4003C156.703 91.7641 157.062 90.9021 157.065 90.0024C157.062 89.1028 156.703 88.2408 156.067 87.6046C155.431 86.9684 154.569 86.6097 153.669 86.6066Z" fill="#0045FF"/>
<path d="M32.2665 24.2045L31.9679 23.701C32.8265 23.1922 33.7207 22.746 34.6436 22.3661L34.8661 22.9106C33.9687 23.2769 33.0997 23.7094 32.2665 24.2045Z" fill="#0045FF"/>
<path d="M23.7183 34.5444L23.1328 34.3453C24.5208 30.5021 27.0319 27.1648 30.3403 24.7666L30.6857 25.2409C27.4818 27.5721 25.054 30.814 23.7183 34.5444Z" fill="#0045FF"/>
<path d="M42.3019 59.2349C52.2549 59.2349 60.3234 51.1664 60.3234 41.2134C60.3234 31.2603 52.2549 23.1918 42.3019 23.1918C32.3488 23.1918 24.2803 31.2603 24.2803 41.2134C24.2803 51.1664 32.3488 59.2349 42.3019 59.2349Z" fill="#0045FF"/>
<path opacity="0.6" d="M57.3551 41.2133C57.354 44.7252 56.125 48.1262 53.8808 50.8275C51.6367 53.5289 48.5187 55.3606 45.0665 56.0055C41.6143 56.6505 38.0453 56.0681 34.9772 54.3592C31.9092 52.6504 29.5351 49.9225 28.2661 46.648C26.997 43.3734 26.9129 39.7581 28.0281 36.428C29.1434 33.0979 31.3879 30.2626 34.3731 28.4128C37.3584 26.5629 40.8964 25.8151 44.3748 26.2987C47.8533 26.7823 51.0532 28.4669 53.4206 31.0608C53.4252 31.0587 53.4302 31.0576 53.4352 31.0576C53.4403 31.0576 53.4453 31.0587 53.4499 31.0608C55.9741 33.8384 57.3672 37.4602 57.3551 41.2133Z" fill="white"/>
<path d="M57.3553 41.2132C57.3552 44.1393 56.5024 47.0019 54.901 49.4509C53.2997 51.8999 51.0194 53.8291 48.3389 55.0026C45.6584 56.176 42.6941 56.5428 39.8085 56.0581C36.9228 55.5734 34.241 54.2581 32.0911 52.2733C29.4624 49.4089 28.044 45.6385 28.1327 41.7518C28.2214 37.8651 29.8105 34.1634 32.5671 31.4219C35.3237 28.6805 39.0341 27.1118 42.9212 27.0445C46.8084 26.9772 50.5708 28.4164 53.4207 31.0607C53.4253 31.0586 53.4303 31.0575 53.4354 31.0575C53.4404 31.0575 53.4454 31.0586 53.45 31.0607C55.9742 33.8383 57.3673 37.4601 57.3553 41.2132Z" fill="white"/>
<path d="M42.3021 42.0915C42.1867 42.0917 42.0725 42.069 41.966 42.0248C41.8594 41.9806 41.7627 41.9157 41.6815 41.8338L34.3393 34.4917C34.2531 34.4113 34.1838 34.3144 34.1358 34.2066C34.0878 34.0989 34.062 33.9826 34.06 33.8647C34.0579 33.7468 34.0796 33.6296 34.1237 33.5203C34.1679 33.4109 34.2336 33.3116 34.317 33.2282C34.4004 33.1448 34.4998 33.079 34.6091 33.0349C34.7185 32.9907 34.8356 32.969 34.9536 32.9711C35.0715 32.9732 35.1878 32.999 35.2955 33.047C35.4032 33.095 35.5002 33.1642 35.5806 33.2505L42.3021 39.972L46.1839 36.0901C46.3504 35.935 46.5706 35.8505 46.7981 35.8546C47.0257 35.8586 47.2428 35.9507 47.4037 36.1117C47.5646 36.2726 47.6568 36.4896 47.6608 36.7172C47.6648 36.9447 47.5803 37.1649 47.4252 37.3314L42.9227 41.8338C42.7578 41.9981 42.5348 42.0906 42.3021 42.0915Z" fill="#263238"/>
</svg>
