<svg width="250" height="226" viewBox="0 0 250 226" fill="none" xmlns="http://www.w3.org/2000/svg">
<path d="M54.6926 134.485C53.4519 134.589 52.4054 135.283 51.7968 136.266L49.98 136.417L49.1357 126.282L39.2237 127.108L39.1513 127.114L39.2697 128.535C40.2527 129.144 40.9472 130.19 41.0505 131.431C41.2238 133.509 39.6791 135.334 37.6011 135.507C35.5226 135.68 33.6978 134.136 33.5246 132.058C33.4202 130.803 33.9444 129.643 34.8316 128.881L34.7153 127.484L34.577 127.495L24.6985 128.318L25.5457 138.485L24.3799 138.582C23.6175 137.695 22.4577 137.17 21.2031 137.275C19.1251 137.448 17.5804 139.273 17.7536 141.352C17.9269 143.43 19.7517 144.974 21.8302 144.801C23.0708 144.698 24.1173 144.003 24.7259 143.02L25.9157 142.921L26.735 152.755L51.1722 150.719L50.3504 140.853L52.1433 140.704C52.9057 141.591 54.0655 142.116 55.3202 142.011C57.3981 141.837 58.9429 140.013 58.7696 137.934C58.5964 135.856 56.7716 134.311 54.6931 134.485L54.6926 134.485Z" fill="#0045FF"/>
<path d="M69.3021 188.144C70.2067 188.764 70.701 189.757 70.727 190.775L72.0191 191.662L77.0437 184.333L69.8992 179.434L70.5822 178.438C71.6491 178.41 72.6886 177.893 73.3382 176.946C74.4141 175.376 74.0142 173.232 72.445 172.157C70.8758 171.081 68.7314 171.481 67.656 173.05C67.0139 173.986 66.9011 175.127 67.2456 176.124L66.5501 177.138L59.4295 172.256L54.4208 179.562L55.7304 180.46C56.682 180.131 57.7709 180.239 58.6651 180.852C60.1629 181.879 60.5449 183.926 59.5179 185.424C58.4909 186.921 56.4439 187.303 54.9461 186.276C54.0414 185.656 53.5471 184.664 53.5211 183.645L52.2285 182.759L47.3527 189.871L64.9674 201.947L69.8273 194.859L68.5177 193.961C67.5661 194.29 66.4772 194.182 65.583 193.569C64.0852 192.542 63.7032 190.495 64.7302 188.997C65.7572 187.5 67.8043 187.118 69.3021 188.145V188.144Z" fill="#0045FF"/>
<path d="M134.793 50.8088H116.79V179.279H134.793V50.8088Z" fill="#0045FF"/>
<path opacity="0.2" d="M134.793 50.8088H116.79V179.279H134.793V50.8088Z" fill="black"/>
<path d="M119.041 47.7962C101.952 44.1001 92.9661 54.3926 92.9661 54.3926C87.1192 54.3926 86.1706 59.1247 86.1706 59.1247C76.5306 63.2831 76.5306 72.6045 76.5306 72.6045C76.5306 72.6045 71.1575 78.4839 69.2613 83.3597C67.3651 88.2356 69.2613 89.9561 69.2613 89.9561C69.2613 89.9561 62.5676 91.7664 65.69 101.967C65.69 101.967 57.3627 107.171 60.902 128.614C60.902 128.614 61.5266 134.859 65.2736 137.773C65.2736 137.773 62.3594 144.851 69.0206 150.472C69.0206 150.472 74.8641 173.163 89.5331 177.119C89.5331 177.119 90.671 184.613 102.537 186.278C102.537 186.278 117.942 189.609 121.272 183.363C124.603 177.118 123.978 149.592 123.978 149.592V50.9636C123.978 50.9636 121.931 48.4213 119.04 47.7957L119.041 47.7962Z" fill="#0045FF"/>
<g opacity="0.1">
<path d="M92.3639 147.287C94.7958 148.06 97.2463 148.823 99.7756 149.159C102.305 149.495 104.94 149.385 107.315 148.453C109.373 147.644 111.145 146.261 113.056 145.148C114.966 144.036 117.177 143.171 119.353 143.563C116.834 141.769 113.431 141.713 110.433 142.475C107.436 143.238 104.679 144.72 101.79 145.821C98.8998 146.922 95.703 147.643 92.7254 146.807" fill="black"/>
</g>
<g opacity="0.1">
<path d="M110.643 178.221C106.671 176.3 108.031 170.384 108.031 170.384C104.911 172.266 98.1515 175.717 89.1117 169.316C84.3402 165.937 83.8329 160.909 84.0861 157.275C79.7249 160.507 76.7568 157.864 73.4307 153.573C70.1045 149.283 69.3406 143.574 69.09 138.151C67.5448 138.232 65.9905 137.881 64.6071 137.19C64.8177 137.396 65.0399 137.591 65.2746 137.774C65.2746 137.774 62.3603 144.852 69.0216 150.473C69.0216 150.473 74.8651 173.164 89.5341 177.119C89.5341 177.119 90.6719 184.614 102.538 186.279C102.538 186.279 117.943 189.609 121.273 183.364C122.404 181.245 123.078 176.673 123.476 171.558C120.482 173.012 121.273 183.364 110.643 178.221Z" fill="black"/>
</g>
<path d="M124.404 84.0293C121.152 79.798 115.369 77.6871 110.214 79.0207C107.661 79.6622 105.317 80.9693 103.106 82.4541C100.881 83.933 98.7376 85.5791 96.4199 87.021C91.7777 89.8783 86.5913 91.8479 81.2252 92.7506C78.572 93.2918 75.3278 93.132 73.4505 90.8898C71.5463 88.8353 71.3791 85.4762 73.0561 83.263C71.6202 85.5202 71.8818 88.694 73.8075 90.5548C75.6928 92.5723 78.5566 92.5409 81.0854 91.9837C86.3212 90.9432 91.3668 88.9776 95.8952 86.1717C98.1669 84.7827 100.307 83.1436 102.588 81.6658C104.865 80.2029 107.32 78.8514 110.038 78.2648C115.412 77.0096 121.406 79.4505 124.404 84.0293Z" fill="#0045FF"/>
<path d="M89.7497 81.9121C86.5409 82.63 83.6776 79.5031 83.4354 76.444C83.0635 73.373 84.3815 70.3714 86.0935 67.916C85.6137 69.3299 85.092 70.7094 84.75 72.1119C83.5952 76.1794 84.8539 81.4747 89.7497 81.9121Z" fill="#0045FF"/>
<path d="M87.2888 81.4529C83.8388 80.2786 80.0818 81.4189 77.8556 84.3022C78.8357 80.4039 84.3141 78.7538 87.2888 81.4529Z" fill="#0045FF"/>
<path d="M108.064 79.2416C109.421 77.5161 109.564 75.2035 108.892 73.1909C107.52 69.033 102.921 67.1932 98.9323 66.4538C96.8578 66.1053 94.5182 66.0838 92.8641 67.6001C94.2331 65.7293 96.8868 65.4462 99.0386 65.6819C102.345 66.0698 105.838 67.2716 108.062 69.9107C110.251 72.447 110.723 76.8905 108.064 79.2416Z" fill="#0045FF"/>
<path d="M93.2112 61.0027C92.5382 65.9524 92.3709 69.356 97.7725 71.2842C91.7992 71.1134 90.7822 65.5415 93.2112 61.0027Z" fill="#0045FF"/>
<path d="M123.905 74.5144C120.966 69.6625 113.344 69.7389 111.392 64.0747C114.448 68.8028 122.087 68.7619 123.905 74.5144Z" fill="#0045FF"/>
<path d="M110.165 51.0991C105.626 53.4816 106.658 59.9352 111.657 60.7141C113.807 61.1644 116.137 60.7395 118.515 61.0815C120.806 61.3426 123.421 62.9113 123.517 65.4357C122.996 63.1175 120.606 61.9897 118.426 61.8559C115.169 61.6202 110.884 62.7456 108.166 60.0361C105.326 57.2831 106.354 52.2639 110.166 51.0996L110.165 51.0991Z" fill="#0045FF"/>
<path d="M65.7644 102.025C68.781 102.138 70.6543 99.783 73.2365 98.5733C75.8596 97.355 79.0425 97.1663 81.6916 98.3386C80.2807 98.1599 78.8942 98.1519 77.5417 98.3376C76.1927 98.5303 74.8776 98.8983 73.6609 99.4769C71.2898 100.587 68.6362 103.019 65.7649 102.026L65.7644 102.025Z" fill="#0045FF"/>
<path d="M72.0686 104.212C81.0939 106.569 90.9725 105.304 99.0002 100.598C103.02 98.2925 106.69 94.6513 111.605 94.2729C116.567 93.855 120.703 97.6429 123.13 101.585C121.036 98.8277 118.398 96.2929 115.027 95.3248C109.014 93.6732 104.312 98.653 99.505 101.459C91.3249 106.246 80.9965 107.377 72.0686 104.212Z" fill="#0045FF"/>
<path d="M115.213 110.144C116.931 111.841 119.646 112.087 121.922 112.503C122.733 112.607 123.551 112.684 124.404 112.805C121.742 113.845 116.251 113.251 115.213 110.144Z" fill="#0045FF"/>
<path d="M123.797 123.437C119.152 127.486 112.074 122.238 107.478 126.466C104.286 129.124 102.127 133.859 97.6866 135.029C96.2572 135.478 94.8073 135.697 93.4144 135.996C90.6384 136.527 88.0273 137.754 85.9134 139.603C81.6186 143.213 79.8547 149.787 82.5343 154.865C83.8194 157.385 86.0936 159.439 88.8466 160.351C86.0192 159.655 83.5843 157.64 82.1049 155.099C79.0399 149.85 80.7789 142.773 85.2873 138.895C87.508 136.906 90.3109 135.589 93.2082 135.02C95.3216 134.571 97.429 134.349 99.2963 133.301C102.448 131.493 104.122 128.062 106.997 125.856C112.178 121.438 118.744 127.174 123.797 123.437H123.797Z" fill="#0045FF"/>
<path d="M88.6609 154.438C90.4493 152.315 91.5686 149.903 92.0509 147.17C93.052 149.928 91.4144 153.429 88.6609 154.438Z" fill="#0045FF"/>
<path d="M88.0417 146.263C94.1004 147.597 100.123 145.761 105.771 143.638C110.025 142.029 115.021 140.438 119.374 142.628C120.768 143.333 122.019 144.403 122.705 145.788C121.826 144.526 120.568 143.603 119.174 143.075C113.233 140.744 107.397 144.512 101.734 146.037C97.3192 147.286 92.4378 147.872 88.0417 146.263Z" fill="#0045FF"/>
<path d="M124.36 158.594C118.22 163.935 108.12 164.203 101.712 159.184C108.775 162.836 117.498 162.615 124.36 158.594Z" fill="#0045FF"/>
<path d="M89.1116 176.829C95.5232 176.961 101.797 175.181 107.191 171.715C102.634 176.362 95.4273 178.396 89.1116 176.829Z" fill="#0045FF"/>
<path d="M77.6055 168.144C76.3354 163.6 79.4813 158.314 84.086 157.274C83.1279 157.904 82.2567 158.585 81.4823 159.354C79.1003 161.681 77.8427 164.831 77.606 168.144L77.6055 168.144Z" fill="#0045FF"/>
<path d="M84.3342 139.804C73.1435 135.465 65.266 123.767 65.4663 111.764C66.7863 123.62 73.8455 134.12 84.3342 139.804Z" fill="#0045FF"/>
<path d="M67.9601 123.36C66.0764 123.864 65.1043 125.494 64.4353 127.189C64.1976 127.771 63.9729 128.384 63.6524 128.985C63.4896 127.627 63.6629 126.241 64.3699 125.036C65.0648 123.857 66.5896 122.863 67.9601 123.36V123.36Z" fill="#0045FF"/>
<path d="M64.8945 136.711C67.9755 138.311 71.5373 138.281 74.5968 136.644C72.3232 139.619 67.2111 139.65 64.8945 136.711Z" fill="#0045FF"/>
<path d="M103.946 98.6941C106.584 101.628 107.369 105.766 107.531 109.606C108.021 120.039 100 122.398 91.1427 121.886C87.2578 121.59 83.4309 120.413 80.0739 118.458C83.5957 120.055 87.3842 120.949 91.1896 121.108C96.399 121.183 103.499 120.59 105.792 115.11C106.521 113.415 106.731 111.507 106.755 109.616C106.729 105.831 106.235 101.846 103.946 98.6941Z" fill="#0045FF"/>
<path d="M92.641 104.402C93.0259 106.279 93.0863 108.253 92.3794 110.085C91.6859 111.874 89.8735 113.58 87.861 113.328C91.6724 112.074 92.0119 107.78 92.641 104.402Z" fill="#0045FF"/>
<path d="M96.769 70.6494C95.8643 73.4229 95.9417 76.2842 96.9797 79.0097C94.6092 76.9931 94.5078 72.7848 96.769 70.6494Z" fill="#0045FF"/>
<path d="M96.7775 54.4343C98.2788 56.9172 100.539 58.8249 103.353 59.5638C104.271 59.812 105.227 59.9468 106.236 60.0002C102.295 61.4705 97.41 58.5902 96.7775 54.4343Z" fill="#0045FF"/>
<path d="M99.4261 133.454C97.3976 129.988 93.2646 128.856 89.4796 129.055C88.1865 129.098 86.8819 129.246 85.5514 129.359C88.0358 128.331 90.7982 127.822 93.4848 128.35C96.1199 128.886 98.81 130.735 99.4261 133.454Z" fill="#0045FF"/>
<path d="M115.983 186.595C114.634 183.332 112.168 180.768 108.968 179.279C112.683 179.352 116.061 182.882 115.983 186.595Z" fill="#0045FF"/>
<path d="M112.981 180.933C116.047 177.405 119.628 173.08 117.129 168.227C119.077 170.004 119.113 173.159 118.089 175.459C117.027 177.801 115.109 179.589 112.981 180.932V180.933Z" fill="#0045FF"/>
<g opacity="0.3">
<path d="M124.404 84.0293C121.152 79.798 115.369 77.6871 110.214 79.0207C107.661 79.6622 105.317 80.9693 103.106 82.4541C100.881 83.933 98.7376 85.5791 96.4199 87.021C91.7777 89.8783 86.5913 91.8479 81.2252 92.7506C78.572 93.2918 75.3278 93.132 73.4505 90.8898C71.5463 88.8353 71.3791 85.4762 73.0561 83.263C71.6202 85.5202 71.8818 88.694 73.8075 90.5548C75.6928 92.5723 78.5566 92.5409 81.0854 91.9837C86.3212 90.9432 91.3668 88.9776 95.8952 86.1717C98.1669 84.7827 100.307 83.1436 102.588 81.6658C104.865 80.2029 107.32 78.8514 110.038 78.2648C115.412 77.0096 121.406 79.4505 124.404 84.0293Z" fill="black"/>
<path d="M89.7497 81.9121C86.5409 82.63 83.6776 79.5031 83.4354 76.444C83.0635 73.373 84.3815 70.3714 86.0935 67.916C85.6137 69.3299 85.092 70.7094 84.75 72.1119C83.5952 76.1794 84.8539 81.4747 89.7497 81.9121Z" fill="black"/>
<path d="M87.2888 81.4529C83.8388 80.2786 80.0818 81.4189 77.8556 84.3022C78.8357 80.4039 84.3141 78.7538 87.2888 81.4529Z" fill="black"/>
<path d="M108.064 79.2416C109.421 77.5161 109.564 75.2035 108.892 73.1909C107.52 69.033 102.921 67.1932 98.9323 66.4538C96.8578 66.1053 94.5182 66.0838 92.8641 67.6001C94.2331 65.7293 96.8868 65.4462 99.0386 65.6819C102.345 66.0698 105.838 67.2716 108.062 69.9107C110.251 72.447 110.723 76.8905 108.064 79.2416Z" fill="black"/>
<path d="M93.2112 61.0027C92.5382 65.9524 92.3709 69.356 97.7725 71.2842C91.7992 71.1134 90.7822 65.5415 93.2112 61.0027Z" fill="black"/>
<path d="M123.905 74.5144C120.966 69.6625 113.344 69.7389 111.392 64.0747C114.448 68.8028 122.087 68.7619 123.905 74.5144Z" fill="black"/>
<path d="M110.165 51.0991C105.626 53.4816 106.658 59.9352 111.657 60.7141C113.807 61.1644 116.137 60.7395 118.515 61.0815C120.806 61.3426 123.421 62.9113 123.517 65.4357C122.996 63.1175 120.606 61.9897 118.426 61.8559C115.169 61.6202 110.884 62.7456 108.166 60.0361C105.326 57.2831 106.354 52.2639 110.166 51.0996L110.165 51.0991Z" fill="black"/>
<path d="M65.7644 102.025C68.781 102.138 70.6543 99.783 73.2365 98.5733C75.8596 97.355 79.0425 97.1663 81.6916 98.3386C80.2807 98.1599 78.8942 98.1519 77.5417 98.3376C76.1927 98.5303 74.8776 98.8983 73.6609 99.4769C71.2898 100.587 68.6362 103.019 65.7649 102.026L65.7644 102.025Z" fill="black"/>
<path d="M72.0686 104.212C81.0939 106.569 90.9725 105.304 99.0002 100.598C103.02 98.2925 106.69 94.6513 111.605 94.2729C116.567 93.855 120.703 97.6429 123.13 101.585C121.036 98.8277 118.398 96.2929 115.027 95.3248C109.014 93.6732 104.312 98.653 99.505 101.459C91.3249 106.246 80.9965 107.377 72.0686 104.212Z" fill="black"/>
<path d="M115.213 110.144C116.931 111.841 119.646 112.087 121.922 112.503C122.733 112.607 123.551 112.684 124.404 112.805C121.742 113.845 116.251 113.251 115.213 110.144Z" fill="black"/>
<path d="M123.797 123.437C119.152 127.486 112.074 122.238 107.478 126.466C104.286 129.124 102.127 133.859 97.6866 135.029C96.2572 135.478 94.8073 135.697 93.4144 135.996C90.6384 136.527 88.0273 137.754 85.9134 139.603C81.6186 143.213 79.8547 149.787 82.5343 154.865C83.8194 157.385 86.0936 159.439 88.8466 160.351C86.0192 159.655 83.5843 157.64 82.1049 155.099C79.0399 149.85 80.7789 142.773 85.2873 138.895C87.508 136.906 90.3109 135.589 93.2082 135.02C95.3216 134.571 97.429 134.349 99.2963 133.301C102.448 131.493 104.122 128.062 106.997 125.856C112.178 121.438 118.744 127.174 123.797 123.437H123.797Z" fill="black"/>
<path d="M88.6609 154.438C90.4493 152.315 91.5686 149.903 92.0509 147.17C93.052 149.928 91.4144 153.429 88.6609 154.438Z" fill="black"/>
<path d="M88.0417 146.263C94.1004 147.597 100.123 145.761 105.771 143.638C110.025 142.029 115.021 140.438 119.374 142.628C120.768 143.333 122.019 144.403 122.705 145.788C121.826 144.526 120.568 143.603 119.174 143.075C113.233 140.744 107.397 144.512 101.734 146.037C97.3192 147.286 92.4378 147.872 88.0417 146.263Z" fill="black"/>
<path d="M124.36 158.594C118.22 163.935 108.12 164.203 101.712 159.184C108.775 162.836 117.498 162.615 124.36 158.594Z" fill="black"/>
<path d="M89.1116 176.829C95.5232 176.961 101.797 175.181 107.191 171.715C102.634 176.362 95.4273 178.396 89.1116 176.829Z" fill="black"/>
<path d="M77.6055 168.144C76.3354 163.6 79.4813 158.314 84.086 157.274C83.1279 157.904 82.2567 158.585 81.4823 159.354C79.1003 161.681 77.8427 164.831 77.606 168.144L77.6055 168.144Z" fill="black"/>
<path d="M84.3342 139.804C73.1435 135.465 65.266 123.767 65.4663 111.764C66.7863 123.62 73.8455 134.12 84.3342 139.804Z" fill="black"/>
<path d="M67.9601 123.36C66.0764 123.864 65.1043 125.494 64.4353 127.189C64.1976 127.771 63.9729 128.384 63.6524 128.985C63.4896 127.627 63.6629 126.241 64.3699 125.036C65.0648 123.857 66.5896 122.863 67.9601 123.36V123.36Z" fill="black"/>
<path d="M64.8945 136.711C67.9755 138.311 71.5373 138.281 74.5968 136.644C72.3232 139.619 67.2111 139.65 64.8945 136.711Z" fill="black"/>
<path d="M103.946 98.6941C106.584 101.628 107.369 105.766 107.531 109.606C108.021 120.039 100 122.398 91.1427 121.886C87.2578 121.59 83.4309 120.413 80.0739 118.458C83.5957 120.055 87.3842 120.949 91.1896 121.108C96.399 121.183 103.499 120.59 105.792 115.11C106.521 113.415 106.731 111.507 106.755 109.616C106.729 105.831 106.235 101.846 103.946 98.6941Z" fill="black"/>
<path d="M92.641 104.402C93.0259 106.279 93.0863 108.253 92.3794 110.085C91.6859 111.874 89.8735 113.58 87.861 113.328C91.6724 112.074 92.0119 107.78 92.641 104.402Z" fill="black"/>
<path d="M96.769 70.6494C95.8643 73.4229 95.9417 76.2842 96.9797 79.0097C94.6092 76.9931 94.5078 72.7848 96.769 70.6494Z" fill="black"/>
<path d="M96.7775 54.4343C98.2788 56.9172 100.539 58.8249 103.353 59.5638C104.271 59.812 105.227 59.9468 106.236 60.0002C102.295 61.4705 97.41 58.5902 96.7775 54.4343Z" fill="black"/>
<path d="M99.4261 133.454C97.3976 129.988 93.2646 128.856 89.4796 129.055C88.1865 129.098 86.8819 129.246 85.5514 129.359C88.0358 128.331 90.7982 127.822 93.4848 128.35C96.1199 128.886 98.81 130.735 99.4261 133.454Z" fill="black"/>
<path d="M115.983 186.595C114.634 183.332 112.168 180.768 108.968 179.279C112.683 179.352 116.061 182.882 115.983 186.595Z" fill="black"/>
<path d="M112.981 180.933C116.047 177.405 119.628 173.08 117.129 168.227C119.077 170.004 119.113 173.159 118.089 175.459C117.027 177.801 115.109 179.589 112.981 180.932V180.933Z" fill="black"/>
</g>
<g opacity="0.2">
<path d="M83.7406 107.685C82.8903 107.656 82.059 107.906 81.2302 108.097C76.7268 109.136 71.841 108.417 67.8283 106.123L67.4524 106.673C68.2367 114.157 71.1834 121.401 75.8451 127.308C77.0479 128.832 78.7703 130.411 80.6621 129.974C82.4544 129.561 83.3816 127.404 83.0755 125.59C82.7695 123.776 81.5757 122.255 80.3965 120.843C79.2172 119.432 77.974 117.971 77.5327 116.186C77.301 115.249 77.5431 113.952 78.4977 113.812C79.3854 113.682 79.9926 114.664 80.7854 115.084C81.71 115.573 82.8978 115.235 83.6886 114.549C84.479 113.864 84.9598 112.898 85.4206 111.959C85.9014 110.978 86.3847 109.811 85.8814 108.841C85.4895 108.086 84.5903 107.713 83.7401 107.684L83.7406 107.685Z" fill="white"/>
</g>
<g opacity="0.2">
<path d="M68.1488 99.7061C68.5982 99.8564 69.068 99.5793 69.4604 99.3147C70.8743 98.3611 72.2883 97.407 73.7022 96.4534C73.9913 96.2581 74.3138 96.002 74.3028 95.6535C74.2953 95.4179 74.1331 95.2197 73.9738 95.0459C72.9628 93.9425 71.7476 93.0269 70.408 92.3593L69.9876 92.1721C68.9601 92.6145 68.2542 93.6115 67.9012 94.673C67.5482 95.7344 67.5008 96.8697 67.4564 97.9876C67.4299 98.6526 67.5178 99.4949 68.1488 99.7061Z" fill="white"/>
</g>
<g opacity="0.2">
<path d="M86.9618 85.3417C86.9394 84.4311 85.9054 83.8904 84.9992 83.801C83.3221 83.6357 81.694 84.3073 80.0689 84.7536C78.4438 85.2 76.56 85.3817 75.203 84.3832L75.0572 85.0766C74.8875 86.1586 75.5865 87.2405 76.5306 87.7962C77.4747 88.3513 78.613 88.4687 79.7079 88.4447C81.6795 88.4023 83.6412 87.9399 85.4241 87.0982C86.1705 86.7457 86.9828 86.167 86.9628 85.3417H86.9618Z" fill="white"/>
</g>
<g opacity="0.2">
<path d="M88.6294 70.398C88.1136 71.2302 88.0028 72.2468 87.9718 73.2258C87.9184 74.9179 88.0707 76.6418 88.6863 78.2195C89.3014 79.7967 90.4172 81.2221 91.9345 81.973C93.4518 82.7239 95.384 82.711 96.766 81.7334C94.5182 80.99 93.1607 78.6524 92.6415 76.3428C92.1217 74.0331 92.2336 71.6257 91.8292 69.2931L91.1112 69.2486C90.1701 68.9775 89.1456 69.5657 88.6294 70.398Z" fill="white"/>
</g>
<g opacity="0.2">
<path d="M103.024 76.951C103.933 76.245 104.641 75.1851 104.637 74.0342C104.632 72.4386 103.339 71.1814 102.143 70.1255C101.672 69.7101 101.174 69.2802 100.561 69.1394C99.9494 68.9986 99.196 69.2597 99.0062 69.8583C98.9099 70.1619 98.9718 70.4904 99.0347 70.803C99.5115 73.1845 99.9883 75.5665 100.465 77.948L99.9379 78.4678C101.017 78.0673 102.115 77.6564 103.024 76.9505V76.951Z" fill="white"/>
</g>
<g opacity="0.2">
<path d="M118.25 73.8105C116.683 73.3028 114.953 73.0816 113.669 72.0496C112.498 71.108 111.899 69.6506 111.217 68.3111C110.282 66.4728 109.075 64.7178 107.396 63.5206C104.441 61.4142 100.143 61.4221 97.1959 63.539C100.785 63.1361 104.518 64.2091 107.346 66.4563C110.174 68.7035 112.062 72.098 112.48 75.6858L112.692 76.1182C115.684 75.8475 118.729 76.1646 121.602 77.0453C121.459 75.4042 119.818 74.3183 118.251 73.81L118.25 73.8105Z" fill="white"/>
</g>
<g opacity="0.2">
<path d="M122.444 56.5768C122.015 54.5877 121.226 52.6775 120.125 50.966L119.03 50.4538C116.575 49.7568 113.772 50.4693 111.948 52.2536C111.23 52.9566 110.635 53.8972 110.716 54.8993C110.813 56.108 111.842 57.0232 112.882 57.6468C115.164 59.0163 117.885 59.6413 120.536 59.4062C121.129 59.3533 121.768 59.2334 122.167 58.7921C122.686 58.2179 122.607 57.3337 122.444 56.5768Z" fill="white"/>
</g>
<g opacity="0.2">
<path d="M101.617 55.6052C102.289 56.0995 103.226 56.5993 103.888 56.0915C104.307 55.7695 104.392 55.1823 104.445 54.6561C104.543 53.6656 104.53 52.4433 103.663 51.9541L102.984 51.7019C102.438 51.642 101.882 51.5826 101.345 51.6915C100.807 51.7998 100.28 52.1048 100.042 52.5996C99.775 53.1553 99.9283 53.8393 100.271 54.3516C100.614 54.8638 101.121 55.2398 101.618 55.6052H101.617Z" fill="white"/>
</g>
<g opacity="0.2">
<path d="M116.53 81.67C113.068 80.2766 109.103 81.7744 106.012 83.8653C101.601 86.849 98.1115 90.9819 94.0999 94.4848C90.0882 97.9877 85.1784 100.974 79.8537 100.862C79.0274 100.844 78.1287 100.772 77.4497 101.242C76.7707 101.714 76.6793 102.993 77.4712 103.23L78.1033 103.463C81.9426 103.286 85.799 103.108 89.5685 102.357C93.338 101.606 97.0461 100.255 100.11 97.9343C102.142 96.395 103.855 94.4593 105.937 92.9885C108.019 91.5171 110.668 90.5256 113.116 91.2365C114.845 91.7388 116.475 93.0624 118.234 92.6744C119.928 92.301 120.899 90.4307 120.996 88.6993C121.162 85.7406 119.28 82.7769 116.531 81.67H116.53Z" fill="white"/>
</g>
<g opacity="0.2">
<path d="M102.993 105.251C102.641 104.74 102.104 104.326 101.488 104.251L100.854 104.245C99.5295 103.886 98.0017 104.502 97.2987 105.681C96.4809 107.051 96.7955 108.799 96.4095 110.347C95.7999 112.793 93.5467 114.439 91.3444 115.665C91.0639 115.821 90.7733 115.98 90.5726 116.231C90.3719 116.482 90.2835 116.853 90.4493 117.129C90.5681 117.326 90.7888 117.437 91.003 117.522C92.9456 118.299 95.1394 117.866 97.1719 117.371C98.9988 116.925 100.904 116.386 102.239 115.061C103.257 114.05 103.842 112.655 104.033 111.233C104.225 109.811 104.043 108.359 103.69 106.969C103.537 106.367 103.347 105.763 102.995 105.251H102.993Z" fill="white"/>
</g>
<g opacity="0.2">
<path d="M113.464 98.4963C112.349 98.2896 111.886 98.2886 110.828 98.74C109.758 99.1968 108.861 100.156 108.689 101.307C108.509 102.508 109.117 103.696 109.896 104.627C111.977 107.116 115.468 108.336 118.646 107.685C119.121 107.588 119.612 107.439 119.948 107.089C120.551 106.462 120.439 105.445 120.169 104.618C119.186 101.61 116.547 99.2068 113.464 98.4963Z" fill="white"/>
</g>
<g opacity="0.1">
<path d="M113.356 98.4688C113.392 98.4767 113.428 98.4877 113.464 98.4962C113.478 98.4987 113.488 98.5002 113.502 98.5027L113.356 98.4688Z" fill="white"/>
</g>
<g opacity="0.2">
<path d="M92.2012 91.6379C88.0892 93.3145 83.7586 94.4538 79.354 95.0185C82.9622 96.9017 89.1427 96.0515 92.2012 91.6379Z" fill="white"/>
</g>
<g opacity="0.2">
<path d="M85.8839 66.1765C86.1635 65.9488 86.4786 65.7291 86.8385 65.7066C87.1985 65.6847 87.5974 65.9428 87.5974 66.3033C87.5974 66.6168 87.3553 67.0292 87.6314 67.1775C87.8106 67.2738 88.0158 67.1141 88.1561 66.9673C88.5406 66.5649 88.931 66.154 89.1786 65.6557C89.4268 65.1574 89.5151 64.5488 89.278 64.0456C88.9834 63.4205 88.2914 62.8977 87.5999 62.8908C86.9354 62.8838 86.3133 62.9741 85.6922 63.1993C84.0287 63.7395 82.6307 65.0451 81.9812 66.6692C81.3286 68.3013 81.4439 70.2225 82.2872 71.7648C82.9667 69.6229 84.142 67.5949 85.8844 66.176L85.8839 66.1765Z" fill="white"/>
</g>
<g opacity="0.1">
<path d="M85.6173 63.2239C85.6423 63.2144 85.6672 63.2089 85.6917 63.1999C85.6997 63.1974 85.7077 63.1934 85.7157 63.1909L85.6173 63.2239Z" fill="white"/>
</g>
<g opacity="0.2">
<path d="M74.5979 81.3849C76.8691 80.1727 79.1402 78.9604 81.4114 77.7487C81.5916 77.6523 81.7983 77.511 81.7839 77.3073C81.7699 77.1101 81.5567 76.9968 81.37 76.9314C80.3335 76.5679 79.1961 76.4955 78.1217 76.7247C75.9229 77.4476 74.9289 78.93 74.3462 81.1702C74.3238 81.2566 74.3128 81.3694 74.3887 81.4158C74.4516 81.4543 74.532 81.4193 74.5969 81.3849H74.5979Z" fill="white"/>
</g>
<g opacity="0.3">
<path d="M119.041 47.7955C101.952 44.0994 92.9661 54.3919 92.9661 54.3919C87.1191 54.3919 86.1705 59.1239 86.1705 59.1239C76.5306 63.2824 76.5306 72.6037 76.5306 72.6037C76.5306 72.6037 71.1575 78.4831 69.2612 83.359C67.365 88.2349 69.2612 89.9553 69.2612 89.9553C69.2612 89.9553 62.5675 91.7657 65.69 101.966C65.69 101.966 62.8421 103.749 61.1851 109.517C62.5845 107.466 64.4867 105.768 66.7424 104.718C67.2457 104.484 67.8224 104.214 67.9761 103.681C68.1124 103.208 67.8558 102.722 67.6271 102.285C66.4583 100.055 65.8298 97.385 66.6551 95.0055C67.4804 92.6264 70.1005 90.7891 72.5265 91.4651C70.12 88.3302 69.6087 83.8483 71.2473 80.252C72.8859 76.6558 76.604 74.101 80.5482 73.8604C78.8602 71.4239 78.7633 67.9855 80.3111 65.4577C81.8593 62.9299 84.9658 61.454 87.9035 61.8504C87.3812 60.1564 88.0298 58.1668 89.4507 57.1069C90.8716 56.0469 92.9636 55.991 94.4384 56.9741C95.397 53.5366 106.683 43.0784 123.978 51.1196V50.9634C123.978 50.9634 121.931 48.4211 119.04 47.7955H119.041Z" fill="white"/>
</g>
<g opacity="0.1">
<path d="M87.0652 128.611C88.7822 127.086 91.1657 126.341 93.4454 126.616C95.725 126.892 97.8629 128.183 99.167 130.073C101.436 126.841 105.134 124.652 109.06 124.218C106.207 127.591 103.319 130.997 99.7606 133.616C97.3082 129.707 92.0938 127.78 87.6888 129.153" fill="black"/>
</g>
<g opacity="0.1">
<path d="M67.6675 123.574C68.2007 127.668 70.1224 131.569 73.0436 134.486C75.9648 137.404 79.8681 139.321 83.9627 139.849C77.3318 135.654 71.0341 130.339 67.8402 123.171" fill="black"/>
</g>
<g opacity="0.1">
<path d="M108.844 109.888C108.453 107.16 107.459 104.559 106.473 101.986C106.754 104.886 106.819 107.804 106.806 110.717C106.797 112.736 106.719 114.867 105.652 116.581C104.574 118.315 102.645 119.34 100.705 119.977C96.7769 121.267 92.5581 121.276 88.4247 121.203L85.6697 121.153C89.4771 122.413 93.4163 123.572 97.422 123.37C101.427 123.168 105.563 121.365 107.586 117.903C108.977 115.523 109.235 112.617 108.844 109.888Z" fill="black"/>
</g>
<g opacity="0.1">
<path d="M102.903 98.8155C100.215 100.526 97.6593 102.469 94.7955 103.867C91.9322 105.265 86.2635 106.123 82.9568 105.707C89.9506 107.135 97.5145 105.505 103.299 101.321C106.104 99.2923 108.534 96.6811 111.672 95.2197C108.508 95.5937 105.592 97.1045 102.904 98.8155H102.903Z" fill="black"/>
</g>
<path opacity="0.1" d="M107.516 59.4543C107.516 59.4543 106.784 61.3965 110.708 62.8908C114.631 64.3851 116.412 62.1424 119.596 62.8908C122.78 63.6392 122.066 62.8908 122.066 62.8908C122.066 62.8908 121.015 60.3625 116.637 61.0026C112.259 61.6426 107.516 59.4543 107.516 59.4543Z" fill="black"/>
<path opacity="0.1" d="M105.862 161.178C105.862 161.178 108.778 164.605 114.093 164.49C119.408 164.376 122.616 159.704 122.616 159.704C122.616 159.704 117.346 163.752 105.862 161.178Z" fill="black"/>
<path d="M130.594 47.556C147.683 43.8599 156.669 54.1524 156.669 54.1524C162.516 54.1524 163.465 58.8844 163.465 58.8844C173.104 63.0429 173.104 72.3642 173.104 72.3642C173.104 72.3642 178.478 78.2436 180.374 83.1195C182.27 87.9954 180.374 89.7159 180.374 89.7159C180.374 89.7159 187.068 91.5262 183.945 101.727C183.945 101.727 192.272 106.931 188.733 128.373C188.733 128.373 188.108 134.619 184.361 137.533C184.361 137.533 187.276 144.611 180.614 150.232C180.614 150.232 174.771 172.923 160.102 176.878C160.102 176.878 158.964 184.373 147.098 186.038C147.098 186.038 131.693 189.369 128.363 183.124C125.032 176.878 125.657 149.352 125.657 149.352V50.7239C125.657 50.7239 127.704 48.1811 130.595 47.556H130.594Z" fill="#0045FF"/>
<g opacity="0.1">
<path d="M138.992 177.981C142.964 176.06 141.604 170.144 141.604 170.144C144.724 172.025 151.484 175.476 160.523 169.076C165.295 165.697 165.802 160.669 165.549 157.034C169.91 160.267 172.878 157.623 176.204 153.333C179.531 149.043 180.294 143.333 180.545 137.911C182.09 137.992 183.644 137.641 185.028 136.949C184.817 137.155 184.595 137.351 184.36 137.533C184.36 137.533 187.275 144.611 180.613 150.232C180.613 150.232 174.77 172.923 160.101 176.878C160.101 176.878 158.963 184.373 147.097 186.038C147.097 186.038 131.692 189.369 128.362 183.124C127.231 181.004 126.557 176.432 126.159 171.318C129.153 172.771 128.362 183.124 138.992 177.981V177.981Z" fill="black"/>
</g>
<g opacity="0.2">
<path d="M181.486 100.803C181.037 100.953 180.567 100.676 180.174 100.412C178.761 99.458 177.347 98.5039 175.933 97.5503C175.644 97.3551 175.321 97.0989 175.332 96.75C175.34 96.5148 175.502 96.3161 175.661 96.1424C176.672 95.039 177.887 94.1233 179.227 93.4558L179.647 93.2686C180.675 93.7109 181.381 94.708 181.734 95.7694C182.087 96.8308 182.134 97.9662 182.179 99.084C182.205 99.7491 182.117 100.591 181.486 100.803V100.803Z" fill="white"/>
</g>
<g opacity="0.1">
<path d="M136.279 98.2295C136.243 98.2375 136.207 98.2485 136.171 98.257C136.157 98.2595 136.147 98.261 136.133 98.2634L136.279 98.2295Z" fill="white"/>
</g>
<g opacity="0.1">
<path d="M164.018 62.9839C163.993 62.9744 163.968 62.9689 163.943 62.9599C163.935 62.9574 163.927 62.9534 163.919 62.9509L164.018 62.9844V62.9839Z" fill="white"/>
</g>
<g opacity="0.3">
<path d="M188.45 109.277C186.793 103.509 183.945 101.727 183.945 101.727C187.067 91.5262 180.374 89.7163 180.374 89.7163C180.374 89.7163 182.27 87.9953 180.374 83.12C178.478 78.2446 173.104 72.3647 173.104 72.3647C173.104 72.3647 173.104 63.0438 163.464 58.8849C163.464 58.8849 162.516 54.1528 156.669 54.1528C156.669 54.1528 147.683 43.8604 130.594 47.5565C127.703 48.1816 125.656 50.7244 125.656 50.7244V50.8806C142.951 42.8394 154.237 53.2976 155.196 56.7351C156.671 55.752 158.763 55.8079 160.183 56.8679C161.604 57.9278 162.253 59.9179 161.73 61.6119C164.668 61.2155 167.775 62.6914 169.323 65.2192C170.871 67.747 170.774 71.1849 169.086 73.6214C173.03 73.862 176.748 76.4173 178.387 80.0135C180.025 83.6098 179.514 88.0917 177.108 91.2266C179.533 90.5506 182.154 92.3879 182.979 94.7669C183.804 97.1465 183.176 99.8161 182.007 102.047C181.778 102.483 181.522 102.969 181.658 103.443C181.812 103.976 182.388 104.245 182.892 104.479C185.147 105.53 187.049 107.228 188.449 109.278L188.45 109.277Z" fill="white"/>
</g>
<g opacity="0.2">
<path d="M177.29 81.6006C176.455 79.2321 174.193 77.4322 171.697 77.1497L170.958 77.3374C172.495 81.6211 171.635 86.6792 168.77 90.2151C171.148 91.0244 173.962 90.3613 175.727 88.5754C177.494 86.7896 178.125 83.9697 177.29 81.6006Z" fill="white"/>
</g>
<g opacity="0.2">
<path d="M153.044 60.0248C152.358 57.2713 150.309 54.9811 147.838 53.5857C145.367 52.1902 142.505 51.6161 139.67 51.4708C137.241 51.3465 134.727 51.5407 132.544 52.6136C130.361 53.6865 128.564 55.773 128.361 58.1969C128.694 59.8625 130.243 60.9924 131.932 60.8131C134.511 60.5395 137.19 60.9439 139.748 61.5076C143.289 62.2885 146.819 63.3664 150.445 63.3259C151.243 63.317 152.12 63.2181 152.67 62.6394C153.303 61.9724 153.265 60.917 153.043 60.0243L153.044 60.0248Z" fill="white"/>
</g>
<g opacity="0.2">
<path d="M154.46 71.7135C154.323 70.8328 153.334 70.3934 152.472 70.1637C150.36 69.6016 147.941 69.3534 145.74 69.1218C142.472 68.6719 138.498 68.651 134.929 69.2076C133.815 69.3814 132.652 69.652 131.829 70.4229C130.838 71.352 130.555 72.8054 130.488 74.1619C130.413 75.6677 130.547 77.2214 131.196 78.5824C131.844 79.9434 133.075 81.0878 134.562 81.3409C136.325 81.6415 138.033 80.6938 139.584 79.8046C143.589 77.5105 147.712 75.3686 152.104 73.9517C152.668 73.7695 153.249 73.5932 153.724 73.2372C154.198 72.8813 154.552 72.2986 154.46 71.7125V71.7135Z" fill="white"/>
</g>
<path d="M125.131 142.693C128.382 146.925 134.166 149.036 139.32 147.702C141.874 147.061 144.217 145.753 146.429 144.269C148.654 142.79 150.797 141.144 153.115 139.702C157.757 136.844 162.943 134.875 168.309 133.972C170.962 133.431 174.207 133.591 176.084 135.833C177.988 137.887 178.155 141.247 176.478 143.46C177.914 141.203 177.653 138.029 175.727 136.168C173.842 134.15 170.978 134.182 168.449 134.739C163.213 135.78 158.167 137.745 153.639 140.551C151.368 141.94 149.227 143.579 146.946 145.057C144.669 146.52 142.215 147.871 139.496 148.458C134.122 149.713 128.128 147.272 125.13 142.693H125.131Z" fill="#0045FF"/>
<path d="M159.785 144.811C162.994 144.093 165.857 147.219 166.099 150.279C166.471 153.35 165.153 156.351 163.441 158.807C163.921 157.393 164.443 156.013 164.785 154.611C165.939 150.543 164.681 145.248 159.785 144.811Z" fill="#0045FF"/>
<path d="M162.246 145.27C165.696 146.445 169.453 145.304 171.679 142.421C170.699 146.319 165.22 147.969 162.246 145.27Z" fill="#0045FF"/>
<path d="M141.47 147.481C140.113 149.206 139.97 151.519 140.642 153.532C142.014 157.69 146.613 159.529 150.602 160.269C152.676 160.617 155.016 160.639 156.67 159.122C155.301 160.993 152.647 161.277 150.495 161.041C147.189 160.653 143.696 159.451 141.472 156.812C139.283 154.276 138.811 149.833 141.47 147.481Z" fill="#0045FF"/>
<path d="M156.323 165.72C156.997 160.77 157.164 157.367 151.762 155.439C157.735 155.609 158.752 161.181 156.323 165.72Z" fill="#0045FF"/>
<path d="M125.629 160.5C128.568 165.352 136.19 165.275 138.142 170.939C135.086 166.211 127.448 166.252 125.629 160.5Z" fill="#0045FF"/>
<path d="M183.77 124.698C180.753 124.585 178.88 126.94 176.298 128.15C173.675 129.368 170.492 129.557 167.843 128.384C169.254 128.563 170.64 128.571 171.993 128.385C173.342 128.193 174.657 127.825 175.873 127.246C178.244 126.136 180.898 123.704 183.769 124.697L183.77 124.698Z" fill="#0045FF"/>
<path d="M176.538 122.584C167.676 120.277 157.981 121.521 150.1 126.141C146.153 128.404 142.548 131.98 137.721 132.35C132.847 132.759 128.784 129.037 126.404 125.163C128.462 127.869 131.052 130.355 134.362 131.305C140.265 132.923 144.876 128.034 149.596 125.28C157.629 120.579 167.774 119.469 176.538 122.584Z" fill="#0045FF"/>
<path d="M125.737 103.286C130.382 99.237 137.46 104.485 142.056 100.257C145.249 97.5989 147.407 92.8643 151.847 91.6936C153.277 91.2452 154.727 91.0255 156.12 90.7265C158.896 90.1957 161.507 88.969 163.621 87.1197C167.915 83.5095 169.679 76.9361 167 71.8581C165.715 69.3377 163.44 67.2842 160.687 66.3716C163.515 67.0681 165.95 69.0826 167.429 71.6234C170.494 76.8732 168.755 83.9499 164.247 87.8282C162.026 89.8168 159.223 91.1334 156.326 91.703C154.212 92.1514 152.105 92.3736 150.238 93.422C147.086 95.2294 145.412 98.6609 142.537 100.867C137.356 105.285 130.789 99.5486 125.737 103.286Z" fill="#0045FF"/>
<path d="M160.874 72.2844C159.085 74.4073 157.966 76.8198 157.484 79.5528C156.483 76.7943 158.12 73.2939 160.874 72.2844Z" fill="#0045FF"/>
<path d="M161.493 80.4593C155.434 79.1253 149.412 80.9616 143.764 83.0845C139.51 84.6937 134.513 86.2838 130.161 84.094C128.767 83.3896 127.516 82.3196 126.83 80.9347C127.709 82.1963 128.966 83.1185 130.36 83.6472C136.301 85.9788 142.138 82.2103 147.8 80.6855C152.215 79.4358 157.097 78.8507 161.493 80.4593Z" fill="#0045FF"/>
<path d="M125.737 67.5462C131.877 62.205 141.976 61.9369 148.385 66.9565C141.322 63.3034 132.599 63.5255 125.737 67.5462Z" fill="#0045FF"/>
<path d="M163.479 91.1511C174.67 95.4903 182.547 107.188 182.347 119.191C181.027 107.335 173.968 96.8353 163.479 91.1511Z" fill="#0045FF"/>
<path d="M184.74 136.471C182.424 139.41 177.312 139.379 175.038 136.404C178.097 138.041 181.659 138.071 184.74 136.471Z" fill="#0045FF"/>
<path d="M145.588 128.029C142.95 125.095 142.165 120.957 142.004 117.117C141.513 106.684 149.534 104.325 158.392 104.837C162.277 105.133 166.104 106.31 169.461 108.265C165.939 106.668 162.15 105.774 158.345 105.615C153.136 105.54 146.035 106.133 143.743 111.613C143.013 113.308 142.804 115.216 142.78 117.108C142.805 120.893 143.299 124.877 145.588 128.029L145.588 128.029Z" fill="#0045FF"/>
<path d="M156.894 122.321C156.509 120.443 156.448 118.469 157.155 116.638C157.849 114.848 159.661 113.142 161.673 113.394C157.862 114.648 157.523 118.943 156.894 122.321Z" fill="#0045FF"/>
<path d="M150.108 93.2686C152.137 96.734 156.27 97.8663 160.055 97.6671C161.348 97.6242 162.653 97.4759 163.983 97.3636C161.499 98.3916 158.736 98.8998 156.05 98.3726C153.415 97.8364 150.724 95.9876 150.108 93.2686Z" fill="#0045FF"/>
<path d="M163.123 58.3997C164.394 62.944 161.248 68.2293 156.643 69.2698C157.601 68.6402 158.472 67.9587 159.247 67.1893C161.629 64.8622 162.886 61.7123 163.123 58.4002L163.123 58.3997Z" fill="#0045FF"/>
<path d="M160.523 176.589C154.207 178.156 147.001 176.122 142.443 171.475C147.838 174.941 154.112 176.721 160.523 176.589Z" fill="#0045FF"/>
<g opacity="0.2">
<path d="M131.332 88.4012C130.069 90.3124 129.628 94.2008 131.043 96.0021C132.459 97.8035 135.072 98.5549 137.227 97.78C139.147 97.09 140.508 95.421 141.991 94.0205C144.447 91.7014 147.468 89.9844 150.717 89.0603C151.62 88.8032 152.567 88.594 153.323 88.0358C154.078 87.4776 154.583 86.4441 154.209 85.5829C153.673 84.3512 151.937 84.3552 150.626 84.6507C147.422 85.3737 144.365 86.6238 141.228 87.5919C138.09 88.56 134.784 89.251 131.53 88.8081" fill="white"/>
</g>
<g opacity="0.2">
<path d="M160.05 109.598C159.971 109.204 159.033 108.74 158.13 108.474L158.504 108.545C158.247 108.473 157.986 108.417 157.724 108.368C157.466 108.309 157.222 108.27 157.016 108.26L157.069 108.27C154.329 107.958 151.453 108.852 149.42 110.725C147.028 112.929 145.886 116.408 146.506 119.601C146.638 120.28 146.865 120.98 147.379 121.445C148.015 122.02 148.978 122.111 149.807 121.888C151.932 121.32 153.145 119.129 154.005 117.104C154.866 115.079 155.77 112.834 157.726 111.827C158.244 111.56 158.816 111.395 159.297 111.065C159.778 110.736 160.166 110.169 160.05 109.598H160.05Z" fill="white"/>
</g>
<g opacity="0.2">
<path d="M175.17 105.763C173.838 103.765 171.952 102.205 170.003 100.801C169.257 100.263 168.434 99.7231 167.514 99.7236C166.594 99.7241 164.256 101.045 164.443 101.945C169.41 104.262 173.703 108.001 176.683 112.601C177.229 110.263 176.501 107.761 175.17 105.763Z" fill="white"/>
</g>
<g opacity="0.2">
<path d="M170.194 114.062C169.57 113.401 168.876 112.897 168.111 112.572C166.811 112.019 165.334 112.481 164.612 113.696C164.51 113.868 164.418 114.047 164.34 114.233C164.002 115.041 163.96 116.016 164.422 116.76C164.835 117.426 165.598 117.82 166.374 117.927C167.15 118.033 167.941 117.882 168.689 117.65C169.856 117.289 171.15 116.483 170.795 115.084C170.696 114.696 170.469 114.353 170.194 114.062Z" fill="white"/>
</g>
<g opacity="0.2">
<path d="M137.936 105.725C135.837 105.111 133.347 105.533 131.175 105.786C130.317 105.887 129.345 106.144 128.977 106.926C128.737 107.436 128.835 108.057 129.109 108.551C129.384 109.044 129.816 109.429 130.261 109.777C131.789 110.973 133.573 111.84 135.457 112.304C136.441 112.546 137.587 112.644 138.366 111.996C139.302 111.218 139.246 109.791 139.11 108.583C138.99 107.527 138.799 106.344 137.935 105.725" fill="white"/>
</g>
<g opacity="0.3">
<path d="M125.131 142.693C128.382 146.925 134.166 149.036 139.32 147.702C141.874 147.061 144.217 145.753 146.429 144.269C148.654 142.79 150.797 141.144 153.115 139.702C157.757 136.844 162.943 134.875 168.309 133.972C170.962 133.431 174.207 133.591 176.084 135.833C177.988 137.887 178.155 141.247 176.478 143.46C177.914 141.203 177.653 138.029 175.727 136.168C173.842 134.15 170.978 134.182 168.449 134.739C163.213 135.78 158.167 137.745 153.639 140.551C151.368 141.94 149.227 143.579 146.946 145.057C144.669 146.52 142.215 147.871 139.496 148.458C134.122 149.713 128.128 147.272 125.13 142.693H125.131Z" fill="black"/>
<path d="M159.785 144.811C162.994 144.093 165.857 147.219 166.099 150.279C166.471 153.35 165.153 156.351 163.441 158.807C163.921 157.393 164.443 156.013 164.785 154.611C165.939 150.543 164.681 145.248 159.785 144.811Z" fill="black"/>
<path d="M162.246 145.27C165.696 146.445 169.453 145.304 171.679 142.421C170.699 146.319 165.22 147.969 162.246 145.27Z" fill="black"/>
<path d="M141.47 147.481C140.113 149.206 139.97 151.519 140.642 153.532C142.014 157.69 146.613 159.529 150.602 160.269C152.676 160.617 155.016 160.639 156.67 159.122C155.301 160.993 152.647 161.277 150.495 161.041C147.189 160.653 143.696 159.451 141.472 156.812C139.283 154.276 138.811 149.833 141.47 147.481Z" fill="black"/>
<path d="M156.323 165.72C156.997 160.77 157.164 157.367 151.762 155.439C157.735 155.609 158.752 161.181 156.323 165.72Z" fill="black"/>
<path d="M125.629 160.5C128.568 165.352 136.19 165.275 138.142 170.939C135.086 166.211 127.448 166.252 125.629 160.5Z" fill="black"/>
<path d="M183.77 124.698C180.753 124.585 178.88 126.94 176.298 128.15C173.675 129.368 170.492 129.557 167.843 128.384C169.254 128.563 170.64 128.571 171.993 128.385C173.342 128.193 174.657 127.825 175.873 127.246C178.244 126.136 180.898 123.704 183.769 124.697L183.77 124.698Z" fill="black"/>
<path d="M176.538 122.584C167.676 120.277 157.981 121.521 150.1 126.141C146.153 128.404 142.548 131.98 137.721 132.35C132.847 132.759 128.784 129.037 126.404 125.163C128.462 127.869 131.052 130.355 134.362 131.305C140.265 132.923 144.876 128.034 149.596 125.28C157.629 120.579 167.774 119.469 176.538 122.584Z" fill="black"/>
<path d="M125.737 103.286C130.382 99.237 137.46 104.485 142.056 100.257C145.249 97.5989 147.407 92.8643 151.847 91.6936C153.277 91.2452 154.727 91.0255 156.12 90.7265C158.896 90.1957 161.507 88.969 163.621 87.1197C167.915 83.5095 169.679 76.9361 167 71.8581C165.715 69.3377 163.44 67.2842 160.687 66.3716C163.515 67.0681 165.95 69.0826 167.429 71.6234C170.494 76.8732 168.755 83.9499 164.247 87.8282C162.026 89.8168 159.223 91.1334 156.326 91.703C154.212 92.1514 152.105 92.3736 150.238 93.422C147.086 95.2294 145.412 98.6609 142.537 100.867C137.356 105.285 130.789 99.5486 125.737 103.286Z" fill="black"/>
<path d="M160.874 72.2844C159.085 74.4073 157.966 76.8198 157.484 79.5528C156.483 76.7943 158.12 73.2939 160.874 72.2844Z" fill="black"/>
<path d="M161.493 80.4593C155.434 79.1253 149.412 80.9616 143.764 83.0845C139.51 84.6937 134.513 86.2838 130.161 84.094C128.767 83.3896 127.516 82.3196 126.83 80.9347C127.709 82.1963 128.966 83.1185 130.36 83.6472C136.301 85.9788 142.138 82.2103 147.8 80.6855C152.215 79.4358 157.097 78.8507 161.493 80.4593Z" fill="black"/>
<path d="M125.737 67.5462C131.877 62.205 141.976 61.9369 148.385 66.9565C141.322 63.3034 132.599 63.5255 125.737 67.5462Z" fill="black"/>
<path d="M163.479 91.1511C174.67 95.4903 182.547 107.188 182.347 119.191C181.027 107.335 173.968 96.8353 163.479 91.1511Z" fill="black"/>
<path d="M185.509 136.134C183.192 139.073 178.08 139.041 175.806 136.066C178.866 137.704 182.428 137.734 185.509 136.134Z" fill="black"/>
<path d="M145.588 128.029C142.95 125.095 142.165 120.957 142.004 117.117C141.513 106.684 149.534 104.325 158.392 104.837C162.277 105.133 166.104 106.31 169.461 108.265C165.939 106.668 162.15 105.774 158.345 105.615C153.136 105.54 146.035 106.133 143.743 111.613C143.013 113.308 142.804 115.216 142.78 117.108C142.805 120.893 143.299 124.877 145.588 128.029L145.588 128.029Z" fill="black"/>
<path d="M156.894 122.321C156.509 120.443 156.448 118.469 157.155 116.638C157.849 114.848 159.661 113.142 161.673 113.394C157.862 114.648 157.523 118.943 156.894 122.321Z" fill="black"/>
<path d="M150.108 93.2686C152.137 96.734 156.27 97.8663 160.055 97.6671C161.348 97.6242 162.653 97.4759 163.983 97.3636C161.499 98.3916 158.736 98.8998 156.05 98.3726C153.415 97.8364 150.724 95.9876 150.108 93.2686Z" fill="black"/>
<path d="M163.123 58.3997C164.394 62.944 161.248 68.2293 156.643 69.2698C157.601 68.6402 158.472 67.9587 159.247 67.1893C161.629 64.8622 162.886 61.7123 163.123 58.4002L163.123 58.3997Z" fill="black"/>
<path d="M160.523 176.589C154.207 178.156 147.001 176.122 142.443 171.475C147.838 174.941 154.112 176.721 160.523 176.589Z" fill="black"/>
</g>
<g opacity="0.1">
<path d="M152.796 140.582C149.777 142.427 146.918 144.554 143.742 146.115C140.567 147.676 136.96 148.655 133.482 148.004L130.728 147.304C133.789 149.479 137.527 150.817 141.276 150.605C145.002 150.394 148.496 148.694 151.574 146.584C154.652 144.474 157.415 141.937 160.441 139.753C163.467 137.568 166.537 134.867 170.237 134.383C163.968 134.026 158.153 137.306 152.796 140.582Z" fill="black"/>
</g>
<g opacity="0.1">
<path d="M143.064 111.081C140.554 113.428 139.227 116.984 139.588 120.401C139.949 123.819 142.642 126.257 145.588 128.028C142.388 122.646 142.089 116.905 143.064 111.081" fill="black"/>
</g>
<g opacity="0.1">
<path d="M154.309 97.3096C152.569 96.2038 150.611 95.2686 150.109 93.269C147.901 94.7624 146.98 96.1279 145.205 98.116C143.431 100.105 141.263 101.975 138.626 102.36L137.775 102.364C139.926 103.628 142.773 103.062 144.823 101.639C146.872 100.215 148.298 98.0825 149.675 96.001C150.657 97.7899 152.426 99.128 154.415 99.5853C156.403 100.043 158.58 99.6118 160.244 98.4315C158.22 98.8259 156.05 98.4155 154.31 97.3096H154.309Z" fill="black"/>
</g>
<g opacity="0.1">
<path d="M154.934 78.5696C150.254 78.5327 145.579 80.1543 141.927 83.0805L142.34 83.1629C146.905 80.7809 152.081 79.5797 157.229 79.7085C157.191 77.0479 158.08 74.3833 159.707 72.2778C157.205 73.4067 155.346 75.8566 154.934 78.5696Z" fill="black"/>
</g>
<path d="M168.434 208.305C170.026 205.548 173.36 204.493 175.881 205.948C178.402 207.404 179.155 210.819 177.563 213.577C175.971 216.334 172.637 217.39 170.116 215.934C167.595 214.478 166.842 211.063 168.434 208.305H168.434Z" fill="#0045FF"/>
<path d="M212.053 132.731L221.404 126.362L221.176 137.999L177.75 213.215L168.627 207.948L212.053 132.731Z" fill="#0045FF"/>
<path d="M221.348 129.435C220.204 129.556 219.397 129.098 218.929 128.047L212.053 132.732C212.053 132.732 211.723 135.121 214.232 134.163C214.232 134.163 214.356 136.611 216.833 135.665C216.833 135.665 217.129 137.728 219.102 136.975C219.102 136.975 219.425 138.667 221.176 137.999L221.348 129.435H221.348Z" fill="#B97964"/>
<path opacity="0.1" d="M216.859 135.693L173.976 211.173L176.1 212.399C176.491 212.501 219.128 137.003 219.128 137.003C217.155 137.756 216.859 135.693 216.859 135.693Z" fill="white"/>
<path opacity="0.1" d="M214.224 134.193C212.84 134.721 212.321 134.232 212.133 133.686L169.55 208.639L171.673 209.865C172.046 209.962 210.716 141.524 214.417 134.972C214.244 134.571 214.224 134.193 214.224 134.193H214.224Z" fill="white"/>
<path d="M167.848 208.75L177.511 214.329L178.358 212.861L168.695 207.282L167.848 208.75Z" fill="#263238"/>
<path d="M208.164 35.5351C199.444 31.5494 189.144 35.3873 185.158 44.1075C182.995 48.8396 183.069 54.2921 185.358 58.9643C185.784 59.8141 186.512 60.9369 185.875 62.3134C185.855 62.3553 184.409 65.8133 184.409 65.8133L201.104 73.208C201.104 73.208 202.751 69.6791 202.769 69.6387C203.31 68.418 204.488 68.3101 205.428 68.068C210.432 66.7429 214.581 63.2475 216.736 58.5404C220.722 49.8202 216.884 39.5202 208.164 35.5346L208.164 35.5351Z" fill="#0045FF"/>
<path opacity="0.1" d="M208.164 35.5351C199.444 31.5494 189.144 35.3873 185.158 44.1075C182.995 48.8396 183.069 54.2921 185.358 58.9643C185.784 59.8141 186.512 60.9369 185.875 62.3134C185.855 62.3553 184.409 65.8133 184.409 65.8133L201.104 73.208C201.104 73.208 202.751 69.6791 202.769 69.6387C203.31 68.418 204.488 68.3101 205.428 68.068C210.432 66.7429 214.581 63.2475 216.736 58.5404C220.722 49.8202 216.884 39.5202 208.164 35.5346L208.164 35.5351Z" fill="white"/>
<path d="M186.056 52.0155C185.719 48.9899 186.429 45.9064 188.055 43.3332C189.681 40.7595 192.161 38.7948 195.038 37.8003L195.12 38.0364C192.296 39.0125 189.861 40.9407 188.265 43.4665C186.67 45.9923 185.973 49.0189 186.304 51.988L186.056 52.016L186.056 52.0155Z" fill="white"/>
<path d="M199.512 68.2416L199.014 68.2146C199.149 65.7073 199.451 63.198 199.914 60.7071C198.768 61.0746 197.697 61.0476 196.847 60.6202C196.155 60.2723 195.58 59.6581 195.106 58.756C194.032 60.8978 192.708 62.9099 191.163 64.7327L190.782 64.4102C192.385 62.518 193.747 60.4185 194.833 58.1803C194.763 58.0165 194.696 57.8458 194.631 57.6666C193.677 55.0394 193.86 52.3908 195.121 50.5809C195.594 49.9014 196.371 49.3572 197.039 49.6732C197.648 49.9618 197.832 50.7751 197.558 51.9634C197.06 54.1133 196.327 56.2037 195.383 58.1893C195.839 59.1823 196.395 59.8349 197.071 60.1749C198.087 60.6856 199.261 60.424 200.021 60.1414C200.39 58.2572 200.851 56.3844 201.404 54.5326C201.603 53.8671 201.815 53.2246 202.216 52.6893C202.705 52.0363 203.414 51.6968 204.022 51.8241C205.081 52.0458 205.401 53.4248 205.17 54.6724C204.707 57.1713 202.888 59.448 200.535 60.4735C200.509 60.4839 200.484 60.4949 200.46 60.5054C199.97 63.0712 199.653 65.6584 199.513 68.2426L199.512 68.2416ZM203.757 52.2954C203.329 52.2954 202.887 52.6259 202.616 52.9879C202.264 53.4582 202.068 54.0543 201.883 54.6749C201.367 56.4019 200.932 58.1474 200.578 59.9028C202.636 58.9042 204.269 56.7978 204.68 54.5801C204.864 53.582 204.631 52.4607 203.92 52.3119C203.867 52.3009 203.812 52.2954 203.758 52.2954H203.757ZM196.626 50.0811C196.265 50.0811 195.826 50.4426 195.531 50.866C194.363 52.5431 194.202 55.0214 195.101 57.4963C195.109 57.5183 195.117 57.5402 195.125 57.5622C195.962 55.7329 196.617 53.8167 197.072 51.8506C197.151 51.5101 197.365 50.3797 196.826 50.1246C196.764 50.0946 196.696 50.0811 196.626 50.0811H196.626Z" fill="#263238"/>
<path d="M202.73 72.7216L183.765 64.3211C183.361 64.142 182.888 64.3246 182.708 64.729L182.465 65.2796C182.285 65.684 182.468 66.157 182.872 66.3361L201.838 74.7365C202.242 74.9156 202.715 74.733 202.895 74.3286L203.138 73.7781C203.317 73.3737 203.135 72.9007 202.73 72.7216Z" fill="#263238"/>
<path opacity="0.1" d="M202.73 72.7216L183.765 64.3211C183.361 64.142 182.888 64.3246 182.708 64.729L182.465 65.2796C182.285 65.684 182.468 66.157 182.872 66.3361L201.838 74.7365C202.242 74.9156 202.715 74.733 202.895 74.3286L203.138 73.7781C203.317 73.3737 203.135 72.9007 202.73 72.7216Z" fill="white"/>
<path d="M201.587 74.4086L183.283 66.3016C182.879 66.1225 182.406 66.3051 182.227 66.7095L182.012 67.1948C181.833 67.5992 182.016 68.0722 182.42 68.2513L200.723 76.3583C201.127 76.5374 201.6 76.3548 201.78 75.9504L201.995 75.4652C202.174 75.0608 201.991 74.5878 201.587 74.4086Z" fill="#263238"/>
<path opacity="0.1" d="M201.587 74.4086L183.283 66.3016C182.879 66.1225 182.406 66.3051 182.227 66.7095L182.012 67.1948C181.833 67.5992 182.016 68.0722 182.42 68.2513L200.723 76.3583C201.127 76.5374 201.6 76.3548 201.78 75.9504L201.995 75.4652C202.174 75.0608 201.991 74.5878 201.587 74.4086Z" fill="white"/>
<path d="M184.069 72.3093C184.307 75.1547 185.873 78.7349 188.547 79.7355C191.221 80.736 194.647 79.6047 196.694 77.6141L184.069 72.3093Z" fill="#263238"/>
<path d="M198.823 77.3899L182.933 70.3519C182.529 70.1728 182.056 70.3554 181.877 70.7598L181.662 71.2451C181.483 71.6494 181.665 72.1225 182.07 72.3016L197.959 79.3396C198.364 79.5187 198.837 79.3361 199.016 78.9317L199.231 78.4465C199.41 78.0421 199.227 77.569 198.823 77.3899Z" fill="#263238"/>
<path opacity="0.1" d="M198.823 77.3899L182.933 70.3519C182.529 70.1728 182.056 70.3554 181.877 70.7598L181.662 71.2451C181.483 71.6494 181.665 72.1225 182.07 72.3016L197.959 79.3396C198.364 79.5187 198.837 79.3361 199.016 78.9317L199.231 78.4465C199.41 78.0421 199.227 77.569 198.823 77.3899Z" fill="white"/>
<path d="M200.555 76.0175L182.785 68.1468C182.381 67.9677 181.908 68.1503 181.729 68.5547L181.514 69.04C181.335 69.4444 181.517 69.9174 181.922 70.0965L199.691 77.9672C200.096 78.1463 200.569 77.9637 200.748 77.5593L200.963 77.074C201.142 76.6696 200.959 76.1966 200.555 76.0175Z" fill="#263238"/>
<path opacity="0.1" d="M200.555 76.0175L182.785 68.1468C182.381 67.9677 181.908 68.1503 181.729 68.5547L181.514 69.04C181.335 69.4444 181.517 69.9174 181.922 70.0965L199.691 77.9672C200.096 78.1463 200.569 77.9637 200.748 77.5593L200.963 77.074C201.142 76.6696 200.959 76.1966 200.555 76.0175Z" fill="white"/>
<path d="M201.733 25.7704C202.405 27.5113 203.077 29.2523 203.749 30.9927C203.835 31.2154 204.197 31.1185 204.11 30.8934C203.438 29.1524 202.766 27.4115 202.094 25.671C202.008 25.4483 201.646 25.5452 201.733 25.7704Z" fill="#263238"/>
<path d="M210.155 32.1815C211.166 29.8988 212.177 27.6167 213.188 25.334C213.285 25.1158 212.962 24.9251 212.864 25.1448C211.853 27.4274 210.842 29.7096 209.831 31.9923C209.734 32.2104 210.057 32.4012 210.155 32.1815Z" fill="#263238"/>
<path d="M214.417 36.0983C216.299 35.3719 218.181 34.645 220.063 33.9185C220.286 33.8326 220.189 33.4707 219.964 33.5575C218.081 34.284 216.2 35.0104 214.318 35.7374C214.095 35.8232 214.192 36.1852 214.417 36.0983Z" fill="#263238"/>
<path d="M134.684 24.26L135.087 35.3462L123.79 41.2751L114.722 34.3108L114.013 12.8996L117.903 10.9399L134.684 24.26Z" fill="#263238"/>
<path d="M137.205 39.5119L125.904 45.4457L123.784 41.2304L135.081 35.301L137.205 39.5119Z" fill="#263238"/>
<path opacity="0.3" d="M134.684 24.26L135.087 35.3462L123.79 41.2751L114.722 34.3108L114.013 12.8996L117.903 10.9399L134.684 24.26Z" fill="white"/>
<path d="M116.295 11.723L115.472 12.1372L125.473 32.0014L126.296 31.5872L116.295 11.723Z" fill="#263238"/>
<path d="M127.026 29.4675C127.548 30.507 127.129 31.7726 126.089 32.2949C125.05 32.8171 123.784 32.3977 123.262 31.3582C122.739 30.3187 123.159 29.0531 124.198 28.5309L124.202 28.5289C125.241 28.0091 126.504 28.4295 127.026 29.4675Z" fill="#263238"/>
<path d="M58.8065 25.1329L58.4359 25.1865L60.6147 40.252L60.9853 40.1984L58.8065 25.1329Z" fill="#263238"/>
<path d="M76.3366 32.6357L63.6134 40.3743L63.808 40.6942L76.5311 32.9557L76.3366 32.6357Z" fill="#263238"/>
<path d="M66.2206 47.3895L66.0482 47.7219L73.4838 51.5785L73.6562 51.2461L66.2206 47.3895Z" fill="#263238"/>
<path d="M76.2375 48.3436C78.1752 49.3486 78.9316 51.7342 77.926 53.6723C76.921 55.61 74.5355 56.3664 72.5978 55.3609C70.6602 54.3558 69.9038 51.9703 70.9093 50.0321C71.9143 48.0945 74.2998 47.3381 76.238 48.3436H76.2375Z" fill="#0045FF"/>
<path opacity="0.3" d="M76.2375 48.3436C78.1752 49.3486 78.9316 51.7342 77.926 53.6723C76.921 55.61 74.5355 56.3664 72.5978 55.3609C70.6602 54.3558 69.9038 51.9703 70.9093 50.0321C71.9143 48.0945 74.2998 47.3381 76.238 48.3436H76.2375Z" fill="black"/>
<path d="M79.6861 28.705C82.1505 29.9831 83.1121 33.0172 81.8339 35.4816C80.5558 37.946 77.5217 38.9076 75.0568 37.6294C72.5925 36.3513 71.6309 33.3173 72.909 30.8524C74.1871 28.3875 77.2212 27.4269 79.6861 28.705Z" fill="#0045FF"/>
<path d="M59.7726 22.9719C61.1281 23.6749 61.6573 25.3439 60.9539 26.7C60.2509 28.0555 58.5818 28.5847 57.2258 27.8817C55.8703 27.1788 55.3411 25.5097 56.0445 24.1537C56.7475 22.7982 58.4166 22.2684 59.7726 22.9719Z" fill="#0045FF"/>
<path opacity="0.3" d="M59.7726 22.9719C61.1281 23.6749 61.6573 25.3439 60.9539 26.7C60.2509 28.0555 58.5818 28.5847 57.2258 27.8817C55.8703 27.1788 55.3411 25.5097 56.0445 24.1537C56.7475 22.7982 58.4166 22.2684 59.7726 22.9719Z" fill="black"/>
<path d="M60.0869 45.9621L59.7183 46.0281L62.3621 60.7974L62.7307 60.7314L60.0869 45.9621Z" fill="#263238"/>
<path d="M42.775 52.8365L42.5933 52.5089L58.4056 43.7248L43.0801 37.6981L43.2169 37.3496L59.2814 43.6664L42.775 52.8365Z" fill="#263238"/>
<path d="M44.5374 34.8461C46.0162 35.613 46.5934 37.4338 45.8265 38.9126C45.0596 40.3915 43.2388 40.9686 41.76 40.2018C40.2811 39.4349 39.704 37.614 40.4708 36.1352C41.2377 34.6564 43.0586 34.0792 44.5374 34.8461Z" fill="#0045FF"/>
<path d="M63.6808 58.5771C65.8507 59.7029 66.6974 62.374 65.5721 64.5443C64.4467 66.7142 61.7751 67.5609 59.6048 66.4356C57.435 65.3102 56.5882 62.6386 57.7136 60.4683C58.8389 58.298 61.5105 57.4517 63.6808 58.5771Z" fill="#0045FF"/>
<path d="M43.4959 48.557C46.4536 50.0912 47.6079 53.7324 46.0736 56.6906C44.5394 59.6483 40.8977 60.8026 37.94 59.2683C34.9823 57.7341 33.828 54.0924 35.3623 51.1347C36.8965 48.177 40.5382 47.0227 43.4959 48.557Z" fill="#0045FF"/>
<path d="M62.4982 51.6436C67.1218 50.1646 69.671 45.2175 68.1921 40.5939C66.7131 35.9703 61.766 33.421 57.1424 34.9C52.5188 36.3789 49.9696 41.3261 51.4485 45.9497C52.9275 50.5733 57.8746 53.1225 62.4982 51.6436Z" fill="#0045FF"/>
<path opacity="0.1" d="M62.4982 51.6436C67.1218 50.1646 69.671 45.2175 68.1921 40.5939C66.7131 35.9703 61.766 33.421 57.1424 34.9C52.5188 36.3789 49.9696 41.3261 51.4485 45.9497C52.9275 50.5733 57.8746 53.1225 62.4982 51.6436Z" fill="white"/>
</svg>
