<svg width="274" height="204" viewBox="0 0 274 204" fill="none" xmlns="http://www.w3.org/2000/svg">
<path d="M136.891 204C195.525 204 243.058 201.225 243.058 197.802C243.058 194.378 195.525 191.603 136.891 191.603C78.2563 191.603 30.7238 194.378 30.7238 197.802C30.7238 201.225 78.2563 204 136.891 204Z" fill="#F5F5F5"/>
<path opacity="0.2" d="M175.726 108.308C166.449 111.912 156.312 112.684 146.596 110.527C136.88 108.37 128.022 103.38 121.142 96.1886C114.262 88.9973 109.669 79.9273 107.944 70.1256C106.219 60.3239 107.439 50.2307 111.449 41.1224C115.46 32.014 122.082 24.2995 130.477 18.9544C138.873 13.6094 148.664 10.8737 158.614 11.0934C168.564 11.3132 178.225 14.4784 186.376 20.1889C194.528 25.8994 200.802 33.8987 204.407 43.1753C206.802 49.3351 207.959 55.9063 207.814 62.5135C207.668 69.1208 206.222 75.6346 203.559 81.683C200.895 87.7314 197.066 93.1958 192.291 97.7642C187.515 102.333 181.886 105.915 175.726 108.308Z" fill="#0045FF"/>
<path opacity="0.1" d="M166.62 11.9149L127.151 101.551C126.544 101.091 125.941 100.615 125.35 100.133C121.535 96.977 118.213 93.2693 115.494 89.1322L149.585 11.7068C155.233 10.7971 160.996 10.8675 166.62 11.9149Z" fill="white"/>
<path opacity="0.1" d="M194.677 27.4656L157.569 111.741C149.861 111.749 142.254 109.984 135.337 106.583L175.857 14.5541C183.036 17.3615 189.474 21.7787 194.677 27.4656Z" fill="white"/>
<path d="M116.074 27.5039C122.779 19.3108 131.764 13.29 141.891 10.2028C152.018 7.11571 162.833 7.10092 172.968 10.1603C183.104 13.2198 192.105 19.216 198.832 27.3908C205.56 35.5655 209.712 45.5517 210.764 56.0865C211.817 66.6212 209.721 77.2314 204.743 86.5752C199.765 95.9191 192.128 103.577 182.798 108.581C173.468 113.584 162.864 115.709 152.326 114.686C141.789 113.662 131.791 109.537 123.598 102.832C112.612 93.8399 105.648 80.8524 104.237 66.726C102.826 52.5996 107.084 38.4913 116.074 27.5039ZM195.537 92.5325C201.691 85.0089 205.477 75.8291 206.415 66.154C207.353 56.4789 205.401 46.7429 200.806 38.1772C196.211 29.6115 189.179 22.6007 180.599 18.0313C172.02 13.462 162.278 11.5393 152.605 12.5063C142.933 13.4734 133.765 17.2868 126.26 23.4644C118.755 29.6419 113.25 37.9062 110.442 47.2122C107.633 56.5181 107.648 66.4479 110.483 75.7458C113.317 85.0437 118.846 93.2922 126.368 99.4482C131.364 103.536 137.116 106.6 143.296 108.465C149.475 110.33 155.962 110.959 162.385 110.317C168.808 109.675 175.042 107.774 180.73 104.722C186.418 101.671 191.449 97.5287 195.537 92.5325Z" fill="#0045FF"/>
<path d="M200.262 92.3464C205.535 95.4949 210.551 98.9555 215.479 102.526C220.407 106.096 225.209 109.814 229.935 113.63C234.66 117.447 239.298 121.373 243.771 125.496C246.013 127.555 248.203 129.668 250.342 131.837C252.489 134.027 254.597 136.217 256.584 138.594C257.044 139.144 257.297 139.837 257.3 140.553C257.304 141.27 257.058 141.966 256.604 142.52C256.15 143.075 255.518 143.455 254.814 143.593C254.111 143.732 253.382 143.622 252.751 143.281C250.014 141.802 247.451 140.171 244.894 138.5C242.337 136.83 239.84 135.089 237.376 133.299C232.448 129.729 227.679 125.967 223.008 122.085C218.337 118.202 213.738 114.232 209.264 110.104C204.79 105.975 200.404 101.748 196.276 97.2033C195.76 96.6412 195.465 95.912 195.443 95.1496C195.422 94.3872 195.676 93.6426 196.159 93.0524C196.642 92.4621 197.322 92.0658 198.073 91.9362C198.825 91.8065 199.598 91.9522 200.251 92.3464H200.262Z" fill="#0045FF"/>
<path d="M168.562 95.5771C169.045 94.2583 169.916 93.1166 171.061 92.3024C172.205 91.4882 173.569 91.0397 174.974 91.0159H218.806C219.564 90.9876 220.318 91.1259 221.016 91.4209C221.714 91.716 222.339 92.1606 222.847 92.7235C223.354 93.2864 223.732 93.9539 223.954 94.6787C224.175 95.4036 224.235 96.1682 224.128 96.9187L212.805 191.926C212.565 193.544 211.757 195.023 210.526 196.099C209.295 197.176 207.721 197.779 206.086 197.802H67.0053C66.2504 197.83 65.4984 197.693 64.8022 197.4C64.1061 197.107 63.4826 196.665 62.9757 196.105C62.4689 195.545 62.0909 194.88 61.8685 194.158C61.6461 193.436 61.5846 192.675 61.6884 191.926L71.1832 112.103C71.4235 110.485 72.2313 109.006 73.4622 107.93C74.6931 106.853 76.2668 106.25 77.9018 106.227H153.586C156.865 106.171 160.051 105.124 162.724 103.223C165.397 101.322 167.432 98.6566 168.562 95.5771Z" fill="#0045FF"/>
<path d="M64.1907 193.427H209.519L217.799 95.6428H72.4753L64.1907 193.427Z" fill="#F0F0F0"/>
<path d="M64.1907 193.427H209.519L215.51 95.6428H72.4753L64.1907 193.427Z" fill="#E0E0E0"/>
<path d="M64.1907 193.427H209.519L214.513 92.5381H69.1899L64.1907 193.427Z" fill="#F0F0F0"/>
<path d="M64.1907 193.427H209.519L211.496 92.5381H69.1899L64.1907 193.427Z" fill="#E0E0E0"/>
<path d="M64.1907 193.427H209.519L210.385 89.8003H65.0613L64.1907 193.427Z" fill="#F0F0F0"/>
<path d="M64.1908 193.427H209.52L206.535 91.7607H62.1484L64.1908 193.427Z" fill="#E0E0E0"/>
<path d="M64.1908 193.427H209.52L205.205 92.5381H59.8815L64.1908 193.427Z" fill="#F0F0F0"/>
<path d="M64.1907 193.427H209.519L202.647 94.0603H57.3242L64.1907 193.427Z" fill="#E0E0E0"/>
<path d="M64.1907 193.427H209.519L201.552 94.9091H56.2291L64.1907 193.427Z" fill="#F0F0F0"/>
<path d="M136.967 101.748C136.976 101.113 137.111 100.486 137.367 99.904C137.622 99.3223 137.992 98.7979 138.455 98.3621C138.917 97.9263 139.462 97.588 140.058 97.3673C140.654 97.1466 141.288 97.048 141.923 97.0775H185.755C187.452 97.1426 189.08 97.7695 190.382 98.8596C191.684 99.9498 192.588 101.442 192.95 103.101L210.27 191.806C210.916 195.13 208.747 197.829 205.424 197.829H66.3427C63.0135 197.829 59.7719 195.13 59.1422 191.806L44.8563 118.679C44.2102 115.355 46.3786 112.656 49.7023 112.656H125.392C131.963 112.656 136.743 108.133 136.967 101.748Z" fill="#0045FF"/>
<path opacity="0.2" d="M136.967 101.748C136.976 101.113 137.111 100.486 137.367 99.904C137.622 99.3223 137.992 98.7979 138.455 98.3621C138.917 97.9263 139.462 97.588 140.058 97.3673C140.654 97.1466 141.288 97.048 141.923 97.0775H185.755C187.452 97.1426 189.08 97.7695 190.382 98.8596C191.684 99.9498 192.588 101.442 192.95 103.101L210.27 191.806C210.916 195.13 208.747 197.829 205.424 197.829H66.3427C63.0135 197.829 59.7719 195.13 59.1422 191.806L44.8563 118.679C44.2102 115.355 46.3786 112.656 49.7023 112.656H125.392C131.963 112.656 136.743 108.133 136.967 101.748Z" fill="black"/>
</svg>
