<svg width="315" height="219" viewBox="0 0 315 219" fill="none" xmlns="http://www.w3.org/2000/svg">
<path d="M207.971 34.7266H91.5579L100.604 193.263H217.01L207.971 34.7266Z" fill="#263238"/>
<path d="M210.232 34.7266H93.819L102.865 193.263H219.278L210.232 34.7266Z" fill="#0045FF"/>
<path opacity="0.5" d="M202.213 40.0559H99.1425L106.532 183.562H212.28L202.213 40.0559Z" fill="black"/>
<path d="M99.1425 40.0559C106.803 87.8935 101.549 135.731 109.222 183.562H214.957C207.297 135.731 212.55 87.8935 204.878 40.0559H99.1425Z" fill="white"/>
<g opacity="0.3">
<path d="M120.762 83.0554C123.097 83.0741 125.336 83.9882 127.017 85.6093C128.697 87.2303 129.692 89.4346 129.795 91.7674C129.842 92.8896 129.661 94.0097 129.261 95.0594C128.861 96.109 128.252 97.0664 127.471 97.8732C126.689 98.68 125.752 99.3193 124.715 99.7522C123.679 100.185 122.565 100.403 121.442 100.391C119.122 100.372 116.897 99.4605 115.231 97.8455C113.564 96.2304 112.583 94.036 112.491 91.717C112.442 90.5981 112.62 89.4809 113.013 88.4322C113.406 87.3834 114.006 86.4245 114.778 85.6129C115.552 84.8086 116.482 84.1704 117.51 83.7372C118.539 83.304 119.646 83.0848 120.762 83.0932M120.699 81.2727C119.341 81.2642 117.996 81.5327 116.745 82.0619C115.495 82.591 114.365 83.3697 113.426 84.3502C112.487 85.3308 111.758 86.4926 111.283 87.7647C110.808 89.0368 110.597 90.3923 110.664 91.7485C110.774 94.5483 111.957 97.1983 113.969 99.1488C115.981 101.099 118.666 102.201 121.467 102.224C122.831 102.236 124.184 101.97 125.442 101.443C126.7 100.917 127.839 100.14 128.788 99.1609C129.737 98.1814 130.478 97.0195 130.965 95.7454C131.452 94.4713 131.676 93.1115 131.622 91.7485C131.487 88.9366 130.279 86.2834 128.247 84.3348C126.215 82.3862 123.514 81.2904 120.699 81.2727Z" fill="#0045FF"/>
</g>
<path d="M179.226 161.64H145.839C145.59 161.636 145.342 161.685 145.113 161.784C144.883 161.883 144.678 162.03 144.51 162.215C144.341 162.4 144.215 162.618 144.138 162.856C144.061 163.094 144.035 163.345 144.063 163.593C144.124 164.124 144.375 164.615 144.77 164.975C145.165 165.336 145.677 165.541 146.211 165.552H179.598C179.848 165.557 180.096 165.508 180.325 165.408C180.554 165.309 180.76 165.161 180.927 164.975C181.094 164.789 181.219 164.57 181.294 164.331C181.369 164.093 181.392 163.841 181.362 163.593C181.302 163.064 181.053 162.575 180.661 162.216C180.268 161.857 179.758 161.652 179.226 161.64Z" fill="#E0E0E0"/>
<path d="M197.085 153.42H145.166C144.915 153.415 144.665 153.464 144.434 153.562C144.203 153.66 143.995 153.807 143.824 153.991C143.654 154.175 143.524 154.394 143.443 154.632C143.363 154.87 143.334 155.122 143.358 155.373C143.403 155.902 143.644 156.396 144.032 156.758C144.421 157.12 144.931 157.324 145.462 157.332H197.356C197.608 157.339 197.858 157.293 198.091 157.196C198.323 157.1 198.533 156.955 198.705 156.772C198.878 156.588 199.01 156.371 199.092 156.133C199.174 155.895 199.205 155.642 199.183 155.391C199.142 154.86 198.905 154.364 198.517 153.999C198.128 153.634 197.618 153.428 197.085 153.42Z" fill="#E0E0E0"/>
<g opacity="0.3">
<path d="M121.826 116.965C124.144 116.982 126.366 117.894 128.027 119.51C129.688 121.127 130.66 123.323 130.74 125.639C130.782 126.761 130.598 127.879 130.199 128.928C129.8 129.977 129.193 130.934 128.415 131.744C127.637 132.55 126.703 133.189 125.67 133.622C124.637 134.055 123.526 134.273 122.406 134.263C120.082 134.247 117.854 133.337 116.184 131.722C114.513 130.107 113.529 127.911 113.435 125.589C113.397 124.466 113.586 123.347 113.991 122.298C114.397 121.25 115.009 120.295 115.793 119.489C116.577 118.684 117.515 118.045 118.552 117.611C119.589 117.177 120.702 116.958 121.826 116.965ZM121.826 115.138C120.461 115.13 119.109 115.397 117.85 115.924C116.591 116.452 115.451 117.228 114.499 118.206C113.547 119.184 112.803 120.345 112.31 121.618C111.818 122.891 111.588 124.25 111.634 125.614C111.746 128.422 112.935 131.078 114.956 133.03C116.976 134.983 119.672 136.081 122.481 136.096C123.842 136.102 125.19 135.831 126.444 135.302C127.697 134.772 128.83 133.994 129.775 133.015C130.72 132.035 131.457 130.875 131.941 129.603C132.425 128.331 132.646 126.974 132.592 125.614C132.497 122.816 131.324 120.162 129.317 118.21C127.311 116.257 124.626 115.156 121.826 115.138Z" fill="#0045FF"/>
</g>
<path d="M160.694 89.5565H142.835C142.31 89.5521 141.807 89.3464 141.43 88.9818C141.052 88.6172 140.829 88.1216 140.807 87.5973C140.798 87.3439 140.841 87.0914 140.932 86.8548C141.023 86.6182 141.161 86.4023 141.337 86.2201C141.514 86.0379 141.725 85.8931 141.958 85.7942C142.192 85.6953 142.443 85.6444 142.696 85.6445H160.549C161.074 85.6486 161.578 85.8531 161.957 86.216C162.336 86.5789 162.563 87.073 162.59 87.5973C162.599 87.8518 162.557 88.1056 162.466 88.3433C162.375 88.5811 162.236 88.798 162.059 88.9809C161.882 89.1639 161.67 89.3092 161.435 89.4081C161.201 89.507 160.948 89.5575 160.694 89.5565Z" fill="#E0E0E0"/>
<path d="M181.305 89.5565H169.211C168.685 89.5522 168.181 89.3467 167.803 88.9823C167.424 88.6178 167.2 88.1222 167.176 87.5973C167.167 87.3439 167.21 87.0914 167.301 86.8548C167.392 86.6182 167.53 86.4023 167.707 86.2201C167.883 86.0379 168.094 85.8931 168.328 85.7942C168.561 85.6953 168.812 85.6444 169.066 85.6445H181.167C181.691 85.6487 182.194 85.8533 182.572 86.2164C182.951 86.5795 183.176 87.0736 183.201 87.5973C183.211 87.8518 183.169 88.1056 183.077 88.3433C182.986 88.5811 182.848 88.798 182.671 88.9809C182.494 89.1639 182.282 89.3092 182.047 89.4081C181.812 89.507 181.56 89.5575 181.305 89.5565Z" fill="#E0E0E0"/>
<path d="M191.057 97.7771H143.119C142.594 97.7743 142.091 97.5689 141.714 97.2038C141.337 96.8388 141.116 96.3423 141.096 95.818C141.088 95.5646 141.131 95.3121 141.222 95.0755C141.313 94.8389 141.451 94.623 141.627 94.4408C141.803 94.2586 142.015 94.1138 142.248 94.0149C142.482 93.916 142.733 93.8651 142.986 93.8652H190.918C191.441 93.8681 191.943 94.0729 192.318 94.4367C192.694 94.8006 192.915 95.2955 192.934 95.818C192.943 96.0709 192.902 96.3231 192.812 96.5596C192.722 96.7961 192.585 97.0121 192.41 97.1948C192.235 97.3776 192.025 97.5233 191.793 97.6233C191.56 97.7233 191.31 97.7756 191.057 97.7771Z" fill="#E0E0E0"/>
<g opacity="0.3">
<path d="M123.193 150.831C125.543 150.877 127.794 151.788 129.514 153.389C131.234 154.991 132.303 157.171 132.516 159.511C132.629 160.608 132.514 161.716 132.176 162.766C131.839 163.815 131.288 164.783 130.557 165.609C129.821 166.42 128.919 167.065 127.913 167.499C126.907 167.934 125.82 168.149 124.724 168.129C122.354 168.09 120.079 167.188 118.328 165.591C116.576 163.993 115.468 161.811 115.212 159.455C115.104 158.35 115.231 157.235 115.585 156.183C115.939 155.13 116.512 154.165 117.266 153.35C118.024 152.541 118.943 151.899 119.964 151.465C120.984 151.032 122.084 150.815 123.193 150.831ZM123.105 149.01C121.756 148.984 120.417 149.243 119.175 149.77C117.933 150.298 116.816 151.082 115.898 152.071C114.981 153.06 114.282 154.232 113.849 155.51C113.416 156.788 113.258 158.143 113.385 159.486C113.87 165.269 119.118 169.962 124.9 169.962C130.683 169.962 134.828 165.269 134.35 159.486C134.1 156.661 132.814 154.028 130.739 152.094C128.664 150.16 125.947 149.061 123.111 149.01H123.105Z" fill="#0045FF"/>
</g>
<path d="M199.246 127.756H143.931C143.677 127.756 143.426 127.807 143.193 127.906C142.959 128.004 142.748 128.149 142.572 128.332C142.395 128.514 142.258 128.73 142.166 128.966C142.075 129.203 142.033 129.455 142.041 129.709C142.064 130.231 142.286 130.725 142.662 131.089C143.039 131.452 143.54 131.657 144.063 131.662H199.403C199.657 131.662 199.908 131.611 200.141 131.512C200.375 131.413 200.586 131.268 200.762 131.086C200.939 130.904 201.077 130.688 201.168 130.451C201.259 130.215 201.302 129.962 201.293 129.709C201.273 129.181 201.049 128.681 200.666 128.316C200.284 127.952 199.774 127.751 199.246 127.756Z" fill="#E0E0E0"/>
<path d="M186.137 119.529H143.692C143.438 119.529 143.186 119.58 142.952 119.679C142.718 119.779 142.507 119.924 142.33 120.107C142.154 120.29 142.016 120.506 141.925 120.744C141.834 120.981 141.792 121.234 141.802 121.488C141.82 122.01 142.039 122.505 142.413 122.869C142.788 123.233 143.289 123.438 143.811 123.441H186.263C186.516 123.441 186.767 123.39 187.001 123.291C187.234 123.192 187.446 123.048 187.622 122.865C187.798 122.683 187.936 122.467 188.027 122.231C188.119 121.994 188.161 121.742 188.153 121.488C188.138 120.963 187.919 120.465 187.543 120.099C187.166 119.733 186.662 119.529 186.137 119.529Z" fill="#E0E0E0"/>
<path d="M121.719 97.8905L120.976 96.6684C119.344 94.0038 115.936 91.6289 114.765 90.9297L115.647 89.3674C117.96 90.7681 120.022 92.5484 121.744 94.6337C124.422 91.0368 128.333 87.339 133.631 83.3452L134.771 84.8193C129.102 89.084 125.083 93.0085 122.507 96.744C122.248 97.1283 121.984 97.5125 121.719 97.8905Z" fill="#0045FF"/>
<path d="M122.664 131.781C122.419 131.372 122.167 130.962 121.915 130.559C120.277 127.895 116.875 125.52 115.716 124.814L116.611 123.252C118.913 124.656 120.963 126.436 122.677 128.518C125.361 124.928 129.304 121.224 134.684 117.23L135.799 118.704C130.054 122.968 126.009 126.893 123.446 130.629L122.664 131.781Z" fill="#0045FF"/>
<path d="M124.825 165.747L123.993 164.525C122.179 161.861 118.664 159.486 117.455 158.787L118.274 157.224C120.654 158.635 122.799 160.41 124.63 162.484C127.099 158.894 130.853 155.19 136.069 151.202L137.247 152.676C131.679 156.941 127.855 160.865 125.53 164.601L124.825 165.747Z" fill="#0045FF"/>
<path d="M164.662 52.0815C163.554 54.5005 162.418 56.9174 161.254 59.3321C163.652 60.5249 165.703 62.3154 167.208 64.531C168.713 66.7465 169.622 69.3124 169.847 71.9813H178.219C177.664 63.4204 172.159 55.9683 164.662 52.0815Z" fill="#0045FF"/>
<path d="M132.769 71.9937H141.14C140.935 69.6257 141.367 67.2458 142.39 65.1005C143.413 62.9552 144.991 61.1224 146.961 59.7918C145.332 57.3728 143.677 54.9539 141.997 52.5349C135.887 56.4909 132.233 63.7415 132.769 71.9937Z" fill="#263238"/>
<path d="M153.336 49.272C149.319 49.2323 145.378 50.3664 141.997 52.5351C143.677 54.9541 145.331 57.373 146.961 59.792C149.143 58.3657 151.699 57.6162 154.306 57.6376C156.718 57.6516 159.093 58.2366 161.235 59.3447C162.394 56.9258 163.53 54.5089 164.643 52.0941C161.153 50.2647 157.276 49.2971 153.336 49.272Z" fill="#0045FF"/>
<path opacity="0.5" d="M153.336 49.272C149.319 49.2323 145.378 50.3664 141.997 52.5351C143.677 54.9541 145.331 57.373 146.961 59.792C149.143 58.3657 151.699 57.6162 154.306 57.6376C156.718 57.6516 159.093 58.2366 161.235 59.3447C162.394 56.9258 163.53 54.5089 164.643 52.0941C161.153 50.2647 157.276 49.2971 153.336 49.272Z" fill="#263238"/>
<path d="M163.566 66.2612C163.566 66.2612 155.112 69.7196 154.218 70.3495C154.004 70.5113 153.825 70.7142 153.691 70.9462C153.557 71.1783 153.47 71.4348 153.437 71.7007C153.403 71.9666 153.424 72.2365 153.496 72.4945C153.568 72.7526 153.692 72.9935 153.859 73.2032C154.174 73.6513 154.652 73.9591 155.19 74.0614C155.729 74.1636 156.286 74.0524 156.744 73.7512C157.67 73.0835 163.579 66.2612 163.566 66.2612ZM154.684 72.5606C154.602 72.4574 154.541 72.3389 154.505 72.2119C154.469 72.0848 154.46 71.952 154.476 71.8211C154.492 71.6902 154.535 71.5639 154.601 71.4496C154.667 71.3354 154.755 71.2355 154.86 71.1559C155.087 71.0099 155.361 70.9567 155.626 71.0071C155.891 71.0575 156.126 71.2077 156.284 71.4267C156.366 71.5299 156.427 71.6485 156.462 71.7755C156.498 71.9025 156.508 72.0354 156.492 72.1663C156.475 72.2972 156.433 72.4235 156.367 72.5377C156.301 72.652 156.213 72.7518 156.107 72.8315C155.884 72.9801 155.611 73.0374 155.347 72.9917C155.082 72.946 154.845 72.8008 154.684 72.5858V72.5606Z" fill="#263238"/>
<path d="M173.589 62.2612C173.63 62.6403 173.59 63.0239 173.471 63.3864C173.353 63.7489 173.158 64.0819 172.9 64.3633C172.643 64.6446 172.328 64.8679 171.978 65.0181C171.627 65.1683 171.249 65.2421 170.867 65.2345C170.059 65.2186 169.285 64.9073 168.691 64.3595C168.097 63.8117 167.723 63.0653 167.642 62.2612C167.599 61.884 167.637 61.502 167.753 61.1408C167.87 60.7795 168.062 60.4473 168.317 60.1663C168.573 59.8854 168.885 59.6623 169.234 59.5118C169.582 59.3614 169.959 59.2872 170.338 59.2941C171.148 59.3078 171.926 59.6169 172.524 60.1632C173.123 60.7095 173.501 61.4555 173.589 62.2612Z" fill="white"/>
<path d="M169.903 61.5807C169.909 61.6406 169.903 61.701 169.884 61.7582C169.865 61.8154 169.835 61.868 169.794 61.9125C169.754 61.9571 169.705 61.9927 169.65 62.0169C169.595 62.0411 169.535 62.0535 169.475 62.0532C169.346 62.0522 169.221 62.0034 169.126 61.9161C169.03 61.8289 168.971 61.7094 168.958 61.5807C168.951 61.5207 168.957 61.4598 168.975 61.4022C168.993 61.3445 169.024 61.2915 169.065 61.2467C169.105 61.2019 169.155 61.1664 169.211 61.1425C169.266 61.1186 169.326 61.1069 169.387 61.1083C169.516 61.1092 169.64 61.158 169.736 61.2453C169.831 61.3325 169.891 61.452 169.903 61.5807Z" fill="#263238"/>
<path d="M172.159 61.5809C172.165 61.6413 172.158 61.7023 172.139 61.7599C172.12 61.8175 172.089 61.8704 172.048 61.9151C172.007 61.9598 171.957 61.9952 171.901 62.019C171.845 62.0429 171.785 62.0546 171.724 62.0534C171.595 62.0497 171.473 62 171.378 61.9132C171.283 61.8265 171.222 61.7085 171.207 61.5809C171.2 61.5203 171.206 61.4589 171.225 61.4008C171.243 61.3427 171.274 61.2894 171.316 61.2445C171.357 61.1995 171.408 61.1641 171.464 61.1406C171.52 61.1172 171.581 61.1062 171.642 61.1084C171.771 61.1094 171.896 61.1582 171.991 61.2455C172.086 61.3327 172.146 61.4522 172.159 61.5809Z" fill="#263238"/>
<path d="M170.754 64.0501C170.13 64.0452 169.531 63.8096 169.072 63.3887C169.029 63.3451 169.004 63.2862 169.004 63.2249C169.004 63.1636 169.029 63.1048 169.072 63.0611C169.093 63.039 169.118 63.0214 169.146 63.0094C169.175 62.9974 169.205 62.9912 169.235 62.9912C169.266 62.9912 169.296 62.9974 169.324 63.0094C169.353 63.0214 169.378 63.039 169.399 63.0611C169.772 63.4048 170.259 63.5978 170.766 63.6029C171.002 63.6081 171.235 63.5637 171.453 63.4726C171.67 63.3814 171.865 63.2455 172.026 63.0737C172.069 63.0286 172.127 63.0023 172.189 63.0005C172.22 62.9996 172.251 63.0048 172.279 63.0158C172.308 63.0267 172.334 63.0432 172.357 63.0643C172.379 63.0854 172.397 63.1107 172.41 63.1387C172.422 63.1667 172.429 63.197 172.43 63.2277C172.431 63.2584 172.426 63.289 172.415 63.3177C172.404 63.3464 172.387 63.3727 172.366 63.395C172.159 63.6116 171.908 63.782 171.63 63.8949C171.352 64.0078 171.053 64.0607 170.754 64.0501Z" fill="#263238"/>
<path d="M156.801 53.4044C156.853 53.7792 156.823 54.1609 156.713 54.5231C156.603 54.8852 156.416 55.2192 156.164 55.5019C155.913 55.7846 155.603 56.0094 155.256 56.1606C154.909 56.3118 154.533 56.3859 154.155 56.3777C153.34 56.3587 152.559 56.0483 151.953 55.5028C151.348 54.9573 150.958 54.2128 150.854 53.4044C150.798 53.0313 150.824 52.6503 150.931 52.2884C151.037 51.9265 151.222 51.5923 151.472 51.3095C151.722 51.0267 152.031 50.802 152.377 50.6514C152.722 50.5007 153.097 50.4276 153.474 50.4374C154.291 50.4566 155.074 50.7656 155.683 51.3092C156.293 51.8528 156.689 52.5955 156.801 53.4044Z" fill="white"/>
<path d="M153.097 52.7111C153.105 52.7703 153.1 52.8305 153.083 52.8877C153.066 52.9449 153.036 52.9977 152.997 53.0425C152.958 53.0873 152.909 53.1231 152.854 53.1475C152.8 53.1718 152.741 53.1841 152.681 53.1836C152.551 53.1803 152.427 53.1311 152.33 53.0445C152.233 52.958 152.17 52.8398 152.152 52.7111C152.143 52.6518 152.146 52.5912 152.163 52.5335C152.18 52.4758 152.209 52.4226 152.249 52.3775C152.289 52.3324 152.338 52.2966 152.393 52.2726C152.448 52.2486 152.508 52.237 152.568 52.2387C152.698 52.2406 152.823 52.2895 152.92 52.3763C153.017 52.463 153.08 52.5819 153.097 52.7111Z" fill="#263238"/>
<path d="M155.345 52.7111C155.354 52.7708 155.349 52.8316 155.331 52.8892C155.314 52.9468 155.284 53 155.244 53.0449C155.204 53.0898 155.154 53.1255 155.099 53.1495C155.043 53.1734 154.984 53.185 154.923 53.1836C154.794 53.1791 154.67 53.1294 154.573 53.043C154.477 52.9567 154.413 52.8393 154.394 52.7111C154.386 52.6514 154.391 52.5906 154.408 52.533C154.426 52.4754 154.456 52.4222 154.496 52.3773C154.536 52.3324 154.586 52.2967 154.641 52.2727C154.696 52.2488 154.756 52.2372 154.816 52.2387C154.946 52.2419 155.071 52.2912 155.168 52.3777C155.265 52.4643 155.328 52.5824 155.345 52.7111Z" fill="#263238"/>
<path d="M155.408 54.6011H152.46C152.404 54.5919 152.353 54.5631 152.317 54.5199C152.28 54.4766 152.26 54.4217 152.26 54.3649C152.26 54.3081 152.28 54.2532 152.317 54.2099C152.353 54.1666 152.404 54.1378 152.46 54.1287H155.408C155.464 54.1378 155.515 54.1666 155.552 54.2099C155.589 54.2532 155.609 54.3081 155.609 54.3649C155.609 54.4217 155.589 54.4766 155.552 54.5199C155.515 54.5631 155.464 54.5919 155.408 54.6011Z" fill="#263238"/>
<path d="M141.84 62.2612C141.881 62.6403 141.841 63.0239 141.722 63.3864C141.603 63.7489 141.409 64.0819 141.151 64.3633C140.894 64.6446 140.579 64.8679 140.229 65.0181C139.878 65.1683 139.5 65.2421 139.118 65.2345C138.31 65.2186 137.536 64.9073 136.942 64.3595C136.347 63.8117 135.974 63.0653 135.893 62.2612C135.85 61.884 135.888 61.502 136.004 61.1408C136.121 60.7795 136.313 60.4473 136.568 60.1663C136.824 59.8854 137.136 59.6623 137.484 59.5118C137.833 59.3614 138.21 59.2872 138.589 59.2941C139.399 59.3092 140.176 59.6187 140.774 60.1647C141.372 60.7108 141.751 61.4561 141.84 62.2612Z" fill="white"/>
<path d="M138.142 61.5807C138.148 61.6406 138.142 61.701 138.123 61.7582C138.104 61.8154 138.074 61.868 138.033 61.9125C137.993 61.9571 137.943 61.9927 137.888 62.0169C137.833 62.0411 137.774 62.0535 137.714 62.0532C137.584 62.0522 137.46 62.0034 137.365 61.9161C137.269 61.8289 137.209 61.7094 137.197 61.5807C137.19 61.5207 137.196 61.4598 137.214 61.4022C137.232 61.3445 137.263 61.2915 137.303 61.2467C137.344 61.2019 137.394 61.1664 137.449 61.1425C137.505 61.1186 137.565 61.1069 137.625 61.1083C137.755 61.1092 137.879 61.158 137.974 61.2453C138.07 61.3325 138.129 61.452 138.142 61.5807Z" fill="#263238"/>
<path d="M140.397 61.5807C140.404 61.6408 140.398 61.7016 140.38 61.7593C140.362 61.8169 140.331 61.8699 140.291 61.9147C140.25 61.9595 140.2 61.995 140.145 62.0189C140.089 62.0428 140.029 62.0545 139.969 62.0532C139.84 62.0495 139.717 61.9998 139.622 61.913C139.528 61.8263 139.467 61.7083 139.452 61.5807C139.445 61.5207 139.451 61.4598 139.469 61.4022C139.487 61.3445 139.518 61.2915 139.558 61.2467C139.599 61.2019 139.649 61.1664 139.704 61.1425C139.76 61.1186 139.82 61.1069 139.88 61.1083C140.01 61.1078 140.135 61.1561 140.231 61.2436C140.327 61.3312 140.386 61.4515 140.397 61.5807Z" fill="#263238"/>
<path d="M137.512 64.0502C137.483 64.0506 137.454 64.0453 137.427 64.0345C137.4 64.0237 137.375 64.0076 137.355 63.9872C137.312 63.9436 137.287 63.8848 137.287 63.8235C137.287 63.7621 137.312 63.7033 137.355 63.6597C137.559 63.4424 137.806 63.2698 138.08 63.1527C138.355 63.0356 138.65 62.9766 138.948 62.9793C139.572 62.986 140.172 63.2239 140.63 63.6471C140.652 63.6682 140.67 63.6937 140.682 63.7218C140.694 63.75 140.7 63.7802 140.7 63.8109C140.7 63.8415 140.694 63.8718 140.682 63.8999C140.67 63.928 140.652 63.9535 140.63 63.9746C140.585 64.0167 140.525 64.0401 140.463 64.0401C140.401 64.0401 140.342 64.0167 140.296 63.9746C139.924 63.6269 139.433 63.4333 138.923 63.4329C138.688 63.4276 138.455 63.4714 138.238 63.5614C138.021 63.6514 137.825 63.7857 137.663 63.9557C137.627 64.0051 137.573 64.0388 137.512 64.0502Z" fill="#263238"/>
<path d="M185.223 40.4654C183.258 36.3267 178.672 33.5865 173.727 33.5865H163.648C162.956 33.617 162.268 33.4641 161.654 33.1433C161.04 32.8225 160.522 32.3452 160.152 31.7596C158.747 29.1265 155.396 27.2493 151.591 27.2493C147.786 27.2493 144.662 29.1391 143.553 31.7596C143.093 32.8683 141.777 33.5865 140.265 33.5865H130.186C125.241 33.5865 120.963 36.3267 119.477 40.4654C119.422 40.6098 119.4 40.7649 119.414 40.9189C119.43 41.242 119.57 41.5465 119.804 41.7694C120.039 41.9922 120.35 42.1162 120.674 42.1158H184.222C184.416 42.1163 184.607 42.0665 184.776 41.9715C184.946 41.8764 185.088 41.7392 185.188 41.5732C185.289 41.4072 185.345 41.218 185.351 41.0239C185.358 40.8298 185.313 40.6374 185.223 40.4654ZM152 34.7266C151.249 34.7111 150.53 34.4148 149.985 33.8961C149.441 33.3773 149.11 32.6736 149.059 31.9234C149.033 31.5621 149.083 31.1995 149.205 30.8584C149.327 30.5173 149.518 30.2052 149.767 29.9418C150.016 29.6784 150.316 29.4694 150.65 29.328C150.983 29.1866 151.342 29.1158 151.704 29.1202C152.461 29.128 153.187 29.421 153.737 29.9407C154.287 30.4604 154.621 31.1684 154.671 31.9234C154.697 32.2869 154.646 32.6517 154.523 32.9945C154.399 33.3373 154.206 33.6506 153.955 33.9144C153.703 34.1782 153.4 34.3867 153.063 34.5265C152.727 34.6664 152.365 34.7345 152 34.7266Z" fill="#263238"/>
</svg>
