<svg width="314" height="200" viewBox="0 0 314 200" fill="none" xmlns="http://www.w3.org/2000/svg">
<path d="M121.577 23.431L114.95 99.154L60.4096 94.3814L64.8503 99.6739L119.391 104.446L126.017 28.7235L121.577 23.431Z" fill="#0045FF"/>
<path opacity="0.5" d="M121.577 23.431L114.95 99.154L60.4096 94.3814L64.8503 99.6739L119.391 104.446L126.017 28.7235L121.577 23.431Z" fill="white"/>
<path d="M121.569 23.4295L67.03 18.658L60.4047 94.3861L114.944 99.1576L121.569 23.4295Z" fill="#0045FF"/>
<path opacity="0.6" d="M121.569 23.4295L67.03 18.658L60.4047 94.3861L114.944 99.1576L121.569 23.4295Z" fill="white"/>
<path d="M123.067 34.4292C123.006 34.4237 122.947 34.4062 122.893 34.3777C122.839 34.3491 122.791 34.3102 122.752 34.263C122.713 34.2158 122.683 34.1614 122.666 34.1028C122.648 34.0443 122.642 33.9828 122.648 33.9219L122.823 31.9239C122.828 31.8629 122.844 31.8035 122.872 31.7491C122.9 31.6947 122.938 31.6463 122.985 31.6067C123.031 31.5671 123.085 31.5371 123.144 31.5185C123.202 31.4998 123.263 31.4928 123.324 31.498C123.446 31.5091 123.559 31.5681 123.637 31.6619C123.716 31.7558 123.754 31.877 123.744 31.999L123.568 34.0033C123.564 34.0642 123.547 34.1236 123.519 34.1781C123.491 34.2325 123.453 34.2809 123.406 34.3205C123.36 34.3601 123.306 34.3901 123.248 34.4087C123.19 34.4274 123.128 34.4343 123.067 34.4292Z" fill="#0045FF"/>
<path d="M119.766 72.1342C119.706 72.1295 119.647 72.1128 119.592 72.0849C119.538 72.057 119.49 72.0186 119.451 71.9719C119.412 71.9253 119.383 71.8713 119.365 71.8131C119.347 71.7549 119.341 71.6938 119.347 71.6332L122.372 37.0474C122.377 36.9867 122.393 36.9275 122.421 36.8734C122.449 36.8193 122.488 36.7713 122.534 36.7322C122.581 36.6931 122.635 36.6637 122.693 36.6458C122.751 36.6279 122.812 36.6217 122.873 36.6277C122.934 36.6325 122.993 36.6492 123.048 36.677C123.102 36.7048 123.151 36.7431 123.19 36.7896C123.23 36.8362 123.26 36.8902 123.278 36.9484C123.297 37.0066 123.304 37.0679 123.299 37.1288L120.255 71.7146C120.245 71.8348 120.189 71.9464 120.097 72.025C120.006 72.1036 119.887 72.1429 119.766 72.1342Z" fill="#0045FF"/>
<path d="M118.163 90.5106C118.04 90.4979 117.927 90.4378 117.847 90.3431C117.768 90.2485 117.728 90.1266 117.737 90.0032L119.002 75.366C119.007 75.3053 119.024 75.2461 119.052 75.192C119.08 75.1379 119.118 75.0899 119.165 75.0508C119.211 75.0117 119.265 74.9823 119.323 74.9644C119.382 74.9464 119.443 74.9403 119.503 74.9463C119.625 74.9575 119.738 75.0164 119.817 75.1103C119.895 75.2042 119.933 75.3254 119.923 75.4474L118.67 90.0847C118.659 90.2083 118.6 90.3225 118.505 90.4023C118.409 90.4821 118.287 90.521 118.163 90.5106Z" fill="#0045FF"/>
<path d="M117.631 96.5922C117.57 96.5874 117.51 96.5707 117.456 96.5429C117.402 96.5151 117.353 96.4768 117.314 96.4302C117.274 96.3837 117.244 96.3297 117.225 96.2715C117.207 96.2133 117.2 96.152 117.205 96.0911L117.443 93.3979C117.448 93.3369 117.464 93.2775 117.492 93.2231C117.52 93.1687 117.558 93.1203 117.605 93.0807C117.651 93.0411 117.705 93.0111 117.764 92.9924C117.822 92.9738 117.883 92.9668 117.944 92.972C118.066 92.9831 118.179 93.0421 118.257 93.136C118.336 93.2298 118.374 93.351 118.364 93.473L118.132 96.1725C118.121 96.2945 118.062 96.4071 117.968 96.4857C117.874 96.5643 117.753 96.6026 117.631 96.5922Z" fill="#0045FF"/>
<path d="M79.8758 99.0037L70.3243 98.1707C70.2018 98.158 70.0892 98.0978 70.0107 98.0029C69.9322 97.908 69.8941 97.7861 69.9046 97.6634C69.9158 97.5414 69.9747 97.4288 70.0686 97.3502C70.1625 97.2716 70.2837 97.2333 70.4057 97.2438L79.9572 98.0768C80.0802 98.0895 80.1934 98.1495 80.2728 98.2442C80.3523 98.3389 80.3919 98.4608 80.3831 98.5841C80.3704 98.7066 80.3101 98.8192 80.2152 98.8977C80.1204 98.9761 79.9984 99.0142 79.8758 99.0037Z" fill="#0045FF"/>
<path d="M103.294 101.052L84.0409 99.3669C83.98 99.3622 83.9206 99.3454 83.8662 99.3177C83.8117 99.2899 83.7633 99.2516 83.7237 99.205C83.6841 99.1584 83.6542 99.1045 83.6355 99.0463C83.6168 98.9881 83.6099 98.9268 83.615 98.8659C83.6205 98.8049 83.638 98.7456 83.6666 98.6915C83.6951 98.6373 83.7341 98.5893 83.7812 98.5503C83.8284 98.5113 83.8828 98.482 83.9414 98.4641C83.9999 98.4463 84.0614 98.4402 84.1224 98.4462L103.376 100.131C103.437 100.136 103.496 100.153 103.55 100.18C103.605 100.208 103.653 100.246 103.693 100.293C103.732 100.34 103.762 100.393 103.781 100.452C103.8 100.51 103.807 100.571 103.802 100.632C103.796 100.693 103.779 100.752 103.75 100.807C103.722 100.861 103.683 100.909 103.635 100.948C103.588 100.987 103.534 101.016 103.475 101.034C103.417 101.052 103.355 101.058 103.294 101.052Z" fill="#0045FF"/>
<path d="M108.687 101.522L106.069 101.296C105.947 101.285 105.834 101.226 105.755 101.132C105.677 101.038 105.638 100.917 105.649 100.795C105.654 100.734 105.67 100.675 105.698 100.62C105.726 100.566 105.764 100.517 105.811 100.478C105.857 100.438 105.911 100.408 105.97 100.39C106.028 100.371 106.089 100.364 106.15 100.369L108.768 100.601C108.829 100.606 108.888 100.622 108.943 100.65C108.997 100.678 109.046 100.716 109.085 100.763C109.125 100.809 109.155 100.863 109.173 100.921C109.192 100.98 109.199 101.041 109.194 101.102C109.188 101.163 109.171 101.222 109.142 101.276C109.114 101.33 109.075 101.378 109.028 101.417C108.981 101.456 108.926 101.486 108.868 101.504C108.809 101.521 108.748 101.528 108.687 101.522Z" fill="#0045FF"/>
<g opacity="0.4">
<path d="M123.067 34.4292C123.006 34.4237 122.947 34.4062 122.893 34.3777C122.839 34.3491 122.791 34.3102 122.752 34.263C122.713 34.2158 122.683 34.1614 122.665 34.1028C122.648 34.0443 122.642 33.9828 122.648 33.9219L122.823 31.9239C122.828 31.8629 122.844 31.8035 122.872 31.7491C122.9 31.6947 122.938 31.6463 122.985 31.6067C123.031 31.5671 123.085 31.5371 123.144 31.5185C123.202 31.4998 123.263 31.4928 123.324 31.498C123.446 31.5091 123.559 31.5681 123.637 31.6619C123.716 31.7558 123.754 31.877 123.744 31.999L123.568 34.0033C123.564 34.0642 123.547 34.1236 123.519 34.1781C123.491 34.2325 123.453 34.2809 123.406 34.3205C123.36 34.3601 123.306 34.3901 123.248 34.4087C123.189 34.4274 123.128 34.4343 123.067 34.4292Z" fill="white"/>
<path d="M119.766 72.1342C119.706 72.1295 119.647 72.1128 119.592 72.0849C119.538 72.057 119.49 72.0186 119.451 71.9719C119.412 71.9253 119.383 71.8713 119.365 71.8131C119.347 71.7549 119.341 71.6938 119.347 71.6332L122.372 37.0474C122.377 36.9867 122.393 36.9275 122.421 36.8734C122.449 36.8193 122.488 36.7713 122.534 36.7322C122.581 36.6931 122.635 36.6637 122.693 36.6458C122.751 36.6279 122.812 36.6217 122.873 36.6277C122.934 36.6325 122.993 36.6492 123.048 36.677C123.102 36.7048 123.151 36.7431 123.19 36.7896C123.23 36.8362 123.26 36.8902 123.278 36.9484C123.297 37.0066 123.304 37.0679 123.299 37.1288L120.255 71.7146C120.245 71.8348 120.189 71.9464 120.097 72.025C120.006 72.1036 119.887 72.1429 119.766 72.1342Z" fill="white"/>
<path d="M118.163 90.5106C118.04 90.4979 117.927 90.4378 117.848 90.3431C117.768 90.2485 117.729 90.1266 117.737 90.0032L119.003 75.366C119.007 75.3053 119.024 75.2461 119.052 75.192C119.08 75.1379 119.118 75.0899 119.165 75.0508C119.211 75.0117 119.265 74.9823 119.324 74.9644C119.382 74.9464 119.443 74.9403 119.504 74.9463C119.626 74.9575 119.738 75.0164 119.817 75.1103C119.895 75.2042 119.934 75.3254 119.923 75.4474L118.671 90.0847C118.659 90.2083 118.6 90.3225 118.505 90.4023C118.41 90.4821 118.287 90.521 118.163 90.5106Z" fill="white"/>
<path d="M117.631 96.5922C117.57 96.5874 117.51 96.5707 117.456 96.5429C117.402 96.5151 117.353 96.4768 117.314 96.4302C117.274 96.3837 117.244 96.3297 117.225 96.2715C117.207 96.2133 117.2 96.152 117.205 96.0911L117.443 93.3979C117.448 93.3369 117.464 93.2775 117.492 93.2231C117.52 93.1687 117.558 93.1203 117.605 93.0807C117.651 93.0411 117.705 93.0111 117.763 92.9924C117.822 92.9738 117.883 92.9668 117.944 92.972C118.066 92.9831 118.178 93.0421 118.257 93.136C118.336 93.2298 118.374 93.351 118.364 93.473L118.132 96.1725C118.121 96.2945 118.062 96.4071 117.968 96.4857C117.874 96.5643 117.753 96.6026 117.631 96.5922Z" fill="white"/>
<path d="M79.8757 99.0037L70.3242 98.1707C70.2017 98.158 70.0891 98.0978 70.0106 98.0029C69.9321 97.908 69.8941 97.7861 69.9046 97.6634C69.9157 97.5414 69.9747 97.4288 70.0685 97.3502C70.1624 97.2716 70.2836 97.2333 70.4056 97.2438L79.9571 98.0768C80.0801 98.0895 80.1933 98.1495 80.2728 98.2442C80.3523 98.3389 80.3918 98.4608 80.383 98.5841C80.3703 98.7066 80.3101 98.8192 80.2152 98.8977C80.1203 98.9761 79.9984 99.0142 79.8757 99.0037Z" fill="white"/>
<path d="M103.294 101.052L84.0409 99.3667C83.9799 99.3619 83.9205 99.3452 83.8661 99.3174C83.8117 99.2896 83.7632 99.2513 83.7237 99.2048C83.6841 99.1582 83.6541 99.1043 83.6354 99.0461C83.6168 98.9878 83.6098 98.9265 83.615 98.8656C83.6205 98.8047 83.638 98.7454 83.6665 98.6912C83.695 98.6371 83.734 98.5891 83.7812 98.5501C83.8283 98.5111 83.8828 98.4818 83.9413 98.4639C83.9999 98.446 84.0614 98.4399 84.1223 98.446L103.376 100.131C103.437 100.136 103.496 100.152 103.55 100.18C103.605 100.208 103.653 100.246 103.693 100.293C103.732 100.339 103.762 100.393 103.781 100.451C103.8 100.51 103.807 100.571 103.802 100.632C103.796 100.693 103.779 100.752 103.75 100.806C103.721 100.86 103.682 100.908 103.635 100.947C103.588 100.986 103.534 101.016 103.475 101.034C103.417 101.051 103.355 101.058 103.294 101.052Z" fill="white"/>
<path d="M108.687 101.521L106.069 101.296C105.947 101.285 105.834 101.226 105.756 101.132C105.677 101.038 105.639 100.917 105.649 100.795C105.654 100.734 105.671 100.674 105.698 100.62C105.726 100.565 105.764 100.517 105.811 100.477C105.858 100.438 105.912 100.408 105.97 100.389C106.028 100.371 106.089 100.364 106.15 100.369L108.768 100.6C108.829 100.605 108.889 100.622 108.943 100.65C108.997 100.678 109.046 100.716 109.085 100.762C109.125 100.809 109.155 100.863 109.174 100.921C109.192 100.979 109.199 101.041 109.194 101.101C109.189 101.162 109.171 101.222 109.143 101.276C109.114 101.33 109.075 101.378 109.028 101.417C108.981 101.456 108.926 101.485 108.868 101.503C108.809 101.521 108.748 101.527 108.687 101.521Z" fill="white"/>
</g>
<path d="M69.7792 50.1814C67.8438 50.4632 62.0065 49.4987 62.0065 49.4987L60.6974 64.5305C60.6974 64.5305 66.61 64.5932 68.4639 65.207C69.0359 65.4898 69.5828 65.8209 70.0986 66.1966L71.558 49.4987C70.9859 49.7771 70.3907 50.0056 69.7792 50.1814Z" fill="#0045FF"/>
<path d="M68.9965 65.4638C69.5038 65.7645 70.0988 66.1841 70.0988 66.1841L71.5582 49.4862C71.5582 49.4862 70.9318 49.7994 70.3493 50.006L68.9965 65.4638Z" fill="black"/>
<path d="M70.2554 67.0422C70.0415 67.023 69.8438 66.9201 69.7053 66.7559C69.5669 66.5917 69.499 66.3794 69.5163 66.1653L70.982 49.411C70.9906 49.3042 71.0204 49.2002 71.0696 49.105C71.1189 49.0098 71.1866 48.9253 71.2687 48.8566C71.3509 48.7878 71.446 48.736 71.5484 48.7043C71.6507 48.6727 71.7584 48.6616 71.8651 48.672C71.9711 48.6806 72.0743 48.7102 72.1687 48.7592C72.2632 48.8081 72.3469 48.8753 72.4151 48.9569C72.4833 49.0385 72.5346 49.1329 72.566 49.2345C72.5974 49.3361 72.6082 49.443 72.5979 49.5488L71.1323 66.3031C71.1236 66.4093 71.094 66.5128 71.0451 66.6076C70.9963 66.7023 70.9292 66.7865 70.8477 66.8552C70.7662 66.9239 70.6719 66.9757 70.5702 67.0078C70.4686 67.0399 70.3616 67.0516 70.2554 67.0422Z" fill="#0045FF"/>
<path d="M69.3786 53.7952L68.6959 61.5617L63.3784 59.3069C63.2838 59.2705 63.181 59.2612 63.0814 59.28C62.9818 59.2988 62.8895 59.345 62.8147 59.4134C62.4824 59.709 62.0932 59.9337 61.6711 60.0737C61.2489 60.2137 60.8026 60.266 60.3595 60.2276C60.0584 60.2163 59.7632 60.1412 59.4932 60.0074C59.2233 59.8735 58.9849 59.6838 58.7937 59.451C58.0859 58.5491 58.2049 57.0772 58.4116 55.7556C58.502 55.1334 58.8296 54.5701 59.3257 54.1838C59.8218 53.7974 60.448 53.6178 61.0735 53.6825C61.9145 53.7912 62.6802 54.2224 63.2093 54.8851C63.2695 54.9682 63.3521 55.0324 63.4476 55.0701C63.543 55.1078 63.6472 55.1175 63.7479 55.098L69.3786 53.7952ZM68.0884 60.547L68.602 54.6909L63.9045 55.7744C63.6744 55.8246 63.4349 55.8089 63.2133 55.7292C62.9918 55.6494 62.7972 55.5088 62.6519 55.3235C62.2391 54.8001 61.6399 54.4566 60.9796 54.3652C60.5341 54.3256 60.0904 54.459 59.7406 54.7377C59.3907 55.0164 59.1616 55.419 59.1006 55.8621C58.9252 56.9645 58.7937 58.3173 59.3386 58.9938C59.4729 59.1487 59.6381 59.2739 59.8236 59.3612C60.0092 59.4486 60.2109 59.4962 60.4159 59.5011C60.7652 59.5353 61.1177 59.4973 61.4517 59.3895C61.7857 59.2818 62.094 59.1066 62.3575 58.8748C62.5279 58.7168 62.74 58.611 62.9687 58.57C63.1974 58.5289 63.433 58.5542 63.6477 58.643L68.0884 60.547Z" fill="#0045FF"/>
<g opacity="0.5">
<path d="M69.3786 53.7952L68.6959 61.5617L63.3784 59.3069C63.2838 59.2705 63.181 59.2612 63.0814 59.28C62.9818 59.2988 62.8895 59.345 62.8147 59.4134C62.4824 59.709 62.0932 59.9337 61.6711 60.0737C61.2489 60.2137 60.8026 60.266 60.3595 60.2276C60.0584 60.2163 59.7632 60.1412 59.4932 60.0074C59.2233 59.8735 58.9849 59.6838 58.7937 59.451C58.0859 58.5491 58.2049 57.0772 58.4116 55.7556C58.502 55.1334 58.8296 54.5701 59.3257 54.1838C59.8218 53.7974 60.448 53.6178 61.0735 53.6825C61.9145 53.7912 62.6802 54.2224 63.2093 54.8851C63.2695 54.9682 63.3521 55.0324 63.4476 55.0701C63.543 55.1078 63.6472 55.1175 63.7479 55.098L69.3786 53.7952ZM68.0884 60.547L68.602 54.6909L63.9045 55.7744C63.6744 55.8246 63.4349 55.8089 63.2133 55.7292C62.9918 55.6494 62.7972 55.5088 62.6519 55.3235C62.2391 54.8001 61.6399 54.4566 60.9796 54.3652C60.5341 54.3256 60.0904 54.459 59.7406 54.7377C59.3907 55.0164 59.1616 55.419 59.1006 55.8621C58.9252 56.9645 58.7937 58.3173 59.3386 58.9938C59.4729 59.1487 59.6381 59.2739 59.8236 59.3612C60.0092 59.4486 60.2109 59.4962 60.4159 59.5011C60.7652 59.5353 61.1177 59.4973 61.4517 59.3895C61.7857 59.2818 62.094 59.1066 62.3575 58.8748C62.5279 58.7168 62.74 58.611 62.9687 58.57C63.1974 58.5289 63.433 58.5542 63.6477 58.643L68.0884 60.547Z" fill="white"/>
</g>
<path d="M84.6045 29.043L83.3519 28.9365L83.4145 28.2037L86.7967 28.4981L86.734 29.2309L85.4814 29.1182L85.2058 32.2498L84.3039 32.1747L84.6045 29.043Z" fill="#0045FF"/>
<path d="M90.8555 28.8485L90.5173 32.7318L89.6154 32.6566L89.7532 31.0657L87.9932 30.9091L87.8554 32.5L86.9535 32.4249L87.2917 28.5416L88.1936 28.6168L88.0559 30.1513L89.8221 30.3016L89.9536 28.7734L90.8555 28.8485Z" fill="#0045FF"/>
<path d="M94.5068 32.3562L94.4442 33.0765L91.4378 32.8134L91.776 28.9302L94.7072 29.187L94.6446 29.9072L92.6028 29.7319L92.5339 30.5712L94.3314 30.734L94.2751 31.4292L92.4712 31.2726L92.3898 32.1683L94.5068 32.3562Z" fill="#0045FF"/>
<path d="M95.5462 33.1139C95.3043 33.0263 95.0796 32.897 94.8823 32.7319L95.2519 32.1055C95.4193 32.2509 95.6098 32.3674 95.8155 32.45C96.0315 32.5404 96.2593 32.5995 96.492 32.6254C96.6868 32.6549 96.8859 32.6311 97.0682 32.5565C97.1262 32.5337 97.1768 32.4953 97.2144 32.4456C97.252 32.3958 97.2751 32.3367 97.2812 32.2746C97.2845 32.23 97.2783 32.1853 97.2632 32.1432C97.2481 32.1011 97.2244 32.0627 97.1935 32.0304C97.1162 31.9592 97.0272 31.902 96.9304 31.8613C96.8177 31.8112 96.6674 31.761 96.4795 31.6984C96.2378 31.6221 96.0014 31.53 95.7717 31.4228C95.5915 31.3359 95.4347 31.207 95.3145 31.047C95.1938 30.8619 95.1428 30.64 95.1704 30.4207C95.1858 30.2035 95.2666 29.9961 95.4022 29.8257C95.5697 29.6392 95.787 29.5045 96.0285 29.4374C96.3248 29.3495 96.6357 29.3218 96.9429 29.356C97.1884 29.3796 97.4301 29.4322 97.6632 29.5125C97.888 29.5783 98.0998 29.6821 98.2895 29.8194L97.9513 30.4458C97.6433 30.2238 97.2828 30.0857 96.9054 30.0449C96.7121 30.0176 96.515 30.0435 96.3354 30.1201C96.2778 30.1495 96.2286 30.1931 96.1924 30.2468C96.1563 30.3005 96.1343 30.3625 96.1287 30.427C96.1228 30.4916 96.1372 30.5564 96.1697 30.6125C96.2022 30.6686 96.2514 30.7132 96.3104 30.7401C96.5099 30.8451 96.7198 30.9291 96.9367 30.9907C97.1771 31.068 97.4134 31.1579 97.6444 31.26C97.8247 31.3469 97.9814 31.4758 98.1016 31.6358C98.2255 31.8196 98.2768 32.0427 98.2457 32.2621C98.2377 32.4914 98.154 32.7116 98.0077 32.8884C97.8413 33.0763 97.6236 33.2113 97.3814 33.2768C97.0828 33.3643 96.7699 33.392 96.4607 33.3582C96.1454 33.3225 95.8373 33.2402 95.5462 33.1139Z" fill="#0045FF"/>
<path d="M99.0351 29.5688L99.9307 29.644L99.5925 33.5272L98.6968 33.4521L99.0351 29.5688Z" fill="#0045FF"/>
<path d="M100.908 33.5839C100.665 33.4977 100.441 33.3683 100.244 33.2018L100.607 32.5755C100.777 32.7209 100.97 32.8373 101.177 32.92C101.392 33.0128 101.621 33.0699 101.854 33.0891C102.048 33.1229 102.248 33.1012 102.43 33.0265C102.488 33.0023 102.538 32.9625 102.574 32.9117C102.611 32.8608 102.632 32.8008 102.637 32.7384C102.642 32.6946 102.637 32.6501 102.622 32.6087C102.607 32.5672 102.582 32.5301 102.549 32.5003C102.475 32.4257 102.385 32.368 102.286 32.3312C102.141 32.2693 101.992 32.2149 101.841 32.1684C101.599 32.0932 101.363 32.0011 101.134 31.8928C100.95 31.8088 100.792 31.6768 100.676 31.5107C100.551 31.3273 100.498 31.1045 100.526 30.8844C100.543 30.6666 100.626 30.4592 100.764 30.2894C100.919 30.1063 101.123 29.9715 101.353 29.9011C101.649 29.8139 101.96 29.7862 102.267 29.8197C102.512 29.8437 102.753 29.8941 102.987 29.97C103.211 30.0413 103.422 30.147 103.614 30.2832L103.276 30.9095C102.967 30.6847 102.603 30.5463 102.223 30.5086C102.032 30.4808 101.837 30.5068 101.66 30.5838C101.6 30.6109 101.548 30.6537 101.511 30.7078C101.473 30.7618 101.451 30.825 101.447 30.8907C101.441 30.9553 101.455 31.0201 101.488 31.0762C101.52 31.1323 101.569 31.1769 101.628 31.2039C101.829 31.3038 102.039 31.3856 102.255 31.4481C102.495 31.5272 102.732 31.6192 102.962 31.7237C103.144 31.8091 103.301 31.9383 103.42 32.0995C103.543 32.2836 103.596 32.5058 103.57 32.7258C103.559 32.9545 103.475 33.1738 103.332 33.3522C103.166 33.5392 102.948 33.6722 102.706 33.7342C102.408 33.8245 102.094 33.8522 101.785 33.8156C101.483 33.7813 101.188 33.7033 100.908 33.5839Z" fill="#0045FF"/>
<path d="M107.54 39.6778L78.0341 37.0973C77.8517 37.0798 77.6836 36.9911 77.5664 36.8503C77.4491 36.7096 77.3921 36.5282 77.4078 36.3457C77.4268 36.1628 77.5169 35.9947 77.6586 35.8776C77.8004 35.7604 77.9824 35.7036 78.1656 35.7194L107.666 38.2999C107.756 38.3077 107.844 38.3334 107.925 38.3755C108.006 38.4176 108.077 38.4753 108.135 38.5452C108.194 38.615 108.237 38.6958 108.264 38.7826C108.291 38.8695 108.301 38.9609 108.292 39.0514C108.284 39.1421 108.258 39.2302 108.216 39.3108C108.174 39.3915 108.117 39.463 108.047 39.5212C107.977 39.5794 107.896 39.6232 107.809 39.6501C107.722 39.677 107.631 39.6864 107.54 39.6778Z" fill="#0045FF"/>
<path d="M103.282 43.6363L81.542 41.7573C81.3596 41.7399 81.1915 41.6511 81.0742 41.5104C80.957 41.3696 80.9 41.1883 80.9157 41.0057C80.9347 40.8228 81.0248 40.6547 81.1665 40.5376C81.3082 40.4205 81.4903 40.3637 81.6735 40.3794L103.407 42.2584C103.498 42.2663 103.586 42.292 103.666 42.3341C103.747 42.3762 103.819 42.4338 103.877 42.5037C103.935 42.5736 103.979 42.6543 104.006 42.7412C104.033 42.8281 104.042 42.9194 104.033 43.01C104.016 43.1924 103.927 43.3605 103.786 43.4777C103.646 43.595 103.464 43.652 103.282 43.6363Z" fill="#0045FF"/>
<path d="M108.104 84.5418C108.1 84.6025 108.083 84.6617 108.055 84.7158C108.027 84.7699 107.989 84.818 107.942 84.857C107.895 84.8961 107.841 84.9255 107.783 84.9434C107.725 84.9614 107.664 84.9675 107.603 84.9615L70.1112 81.6858C70.0502 81.6803 69.9909 81.6628 69.9368 81.6343C69.8826 81.6057 69.8346 81.5668 69.7956 81.5196C69.7566 81.4724 69.7273 81.418 69.7095 81.3594C69.6916 81.3009 69.6855 81.2394 69.6915 81.1785C69.6962 81.1178 69.713 81.0586 69.7409 81.0045C69.7688 80.9504 69.8072 80.9024 69.8538 80.8633C69.9005 80.8242 69.9545 80.7948 70.0127 80.7769C70.0709 80.7589 70.132 80.7528 70.1926 80.7588L107.685 84.0408C107.745 84.0455 107.804 84.0623 107.859 84.0901C107.913 84.118 107.961 84.1564 108 84.2031C108.039 84.2498 108.068 84.3038 108.086 84.3619C108.104 84.4201 108.11 84.4813 108.104 84.5418Z" fill="#0045FF"/>
<path d="M103.845 88.5003C103.84 88.561 103.824 88.6201 103.796 88.6742C103.768 88.7284 103.729 88.7764 103.683 88.8155C103.636 88.8545 103.582 88.8839 103.524 88.9019C103.466 88.9198 103.405 88.9259 103.344 88.9199L73.6185 86.3081C73.4965 86.297 73.384 86.238 73.3053 86.1442C73.2267 86.0503 73.1884 85.9291 73.1989 85.8071C73.2036 85.7461 73.2203 85.6867 73.2481 85.6323C73.2759 85.5778 73.3142 85.5294 73.3608 85.4899C73.4073 85.4503 73.4613 85.4203 73.5195 85.4016C73.5777 85.383 73.639 85.376 73.6999 85.3812L103.425 87.9804C103.486 87.9859 103.546 88.0034 103.6 88.0319C103.654 88.0605 103.702 88.0995 103.741 88.1466C103.78 88.1938 103.809 88.2482 103.827 88.3068C103.845 88.3653 103.851 88.4268 103.845 88.4877V88.5003Z" fill="#0045FF"/>
<path d="M96.0675 68.9722C99.6156 65.995 100.078 60.7051 97.1012 57.157C94.124 53.6089 88.8341 53.1461 85.286 56.1233C81.7379 59.1005 81.2751 64.3904 84.2523 67.9385C87.2295 71.4866 92.5194 71.9494 96.0675 68.9722Z" fill="#0045FF"/>
<path d="M94.3128 65.3071C94.2627 65.9021 92.4965 66.234 90.3669 66.0461C88.2374 65.8582 86.5589 65.2256 86.609 64.6306L86.8407 62.0314L94.5445 62.7015L94.3128 65.3071Z" fill="#0045FF"/>
<path opacity="0.6" d="M86.7779 62.7583C87.0723 63.2969 88.6569 63.823 90.5359 64.0109C92.4149 64.1988 94.0809 63.9295 94.4692 63.4472L94.5319 62.7207L86.828 62.0505L86.7779 62.7583Z" fill="black"/>
<path d="M90.5296 63.76L84.3289 61.2547C84.2994 61.2457 84.2735 61.2274 84.2552 61.2026C84.2368 61.1778 84.2269 61.1478 84.2269 61.1169C84.2269 61.086 84.2368 61.056 84.2552 61.0312C84.2735 61.0064 84.2994 60.9881 84.3289 60.9791L90.9116 59.1001C90.9272 59.0924 90.9443 59.0884 90.9617 59.0884C90.9791 59.0884 90.9963 59.0924 91.0118 59.1001L97.1686 62.1002C97.1955 62.1119 97.2183 62.1312 97.2343 62.1557C97.2503 62.1801 97.2589 62.2088 97.2589 62.238C97.2589 62.2673 97.2503 62.2959 97.2343 62.3204C97.2183 62.3449 97.1955 62.3641 97.1686 62.3758L90.6172 63.76C90.5884 63.7665 90.5584 63.7665 90.5296 63.76Z" fill="#0045FF"/>
<path d="M198.396 121.702L189.627 102.229H169.071L172.202 120.449C172.27 120.875 172.167 121.311 171.916 121.662C171.666 122.014 171.287 122.253 170.862 122.328H170.599H161.592C161.362 122.328 161.14 122.42 160.977 122.583C160.814 122.746 160.722 122.968 160.722 123.199V124.163C160.722 124.394 160.814 124.615 160.977 124.779C161.14 124.942 161.362 125.034 161.592 125.034H197.75C198.001 125.034 198.242 124.934 198.419 124.757C198.597 124.579 198.696 124.339 198.696 124.088V123.086C198.693 122.609 198.591 122.137 198.396 121.702ZM188.888 119.297H179.023C178.712 119.296 178.412 119.186 178.174 118.986C177.937 118.785 177.778 118.507 177.727 118.2L176.236 109.601C176.206 109.43 176.211 109.255 176.249 109.086C176.287 108.917 176.358 108.758 176.458 108.616C176.558 108.475 176.686 108.354 176.832 108.262C176.979 108.17 177.142 108.108 177.313 108.079H177.539H184.998C185.252 108.078 185.5 108.15 185.713 108.287C185.927 108.423 186.096 108.619 186.201 108.849L190.09 117.449C190.181 117.651 190.22 117.872 190.203 118.093C190.187 118.314 190.116 118.527 189.996 118.713C189.877 118.899 189.713 119.053 189.52 119.16C189.326 119.268 189.109 119.325 188.888 119.328V119.297Z" fill="#0045FF"/>
<path opacity="0.5" d="M198.396 121.702L189.627 102.229H169.071L172.202 120.449C172.27 120.875 172.167 121.311 171.916 121.662C171.666 122.014 171.287 122.253 170.862 122.328H170.599H161.592C161.362 122.328 161.14 122.42 160.977 122.583C160.814 122.746 160.722 122.968 160.722 123.199V124.163C160.722 124.394 160.814 124.615 160.977 124.779C161.14 124.942 161.362 125.034 161.592 125.034H197.75C198.001 125.034 198.242 124.934 198.419 124.757C198.597 124.579 198.696 124.339 198.696 124.088V123.086C198.693 122.609 198.591 122.137 198.396 121.702ZM188.888 119.297H179.023C178.712 119.296 178.412 119.186 178.174 118.986C177.937 118.785 177.778 118.507 177.727 118.2L176.236 109.601C176.206 109.43 176.211 109.255 176.249 109.086C176.287 108.917 176.358 108.758 176.458 108.616C176.558 108.475 176.686 108.354 176.832 108.262C176.979 108.17 177.142 108.108 177.313 108.079H177.539H184.998C185.252 108.078 185.5 108.15 185.713 108.287C185.927 108.423 186.096 108.619 186.201 108.849L190.09 117.449C190.181 117.651 190.22 117.872 190.203 118.093C190.187 118.314 190.116 118.527 189.996 118.713C189.877 118.899 189.713 119.053 189.52 119.16C189.326 119.268 189.109 119.325 188.888 119.328V119.297Z" fill="white"/>
<path opacity="0.2" d="M188.888 119.297H179.024C178.713 119.297 178.412 119.186 178.175 118.986C177.937 118.785 177.779 118.507 177.727 118.201L176.236 109.601C176.207 109.43 176.211 109.255 176.249 109.086C176.287 108.917 176.359 108.758 176.459 108.616C176.559 108.475 176.686 108.355 176.833 108.262C176.979 108.17 177.143 108.108 177.314 108.079H177.539H184.999C185.252 108.078 185.5 108.15 185.714 108.287C185.927 108.424 186.096 108.619 186.201 108.849L190.091 117.449C190.181 117.651 190.22 117.872 190.203 118.093C190.187 118.314 190.116 118.527 189.997 118.713C189.877 118.899 189.714 119.053 189.52 119.161C189.327 119.268 189.109 119.325 188.888 119.328V119.297Z" fill="white"/>
<path d="M178.698 108.042H177.539C177.366 108.041 177.194 108.074 177.034 108.14C176.873 108.206 176.728 108.303 176.605 108.425C176.482 108.547 176.385 108.692 176.318 108.852C176.252 109.012 176.217 109.184 176.217 109.357C176.211 109.432 176.211 109.507 176.217 109.583L177.708 118.182C177.759 118.488 177.917 118.767 178.155 118.966C178.393 119.166 178.694 119.274 179.004 119.272H180.169C179.859 119.274 179.558 119.166 179.32 118.966C179.082 118.767 178.924 118.488 178.873 118.182L177.382 109.583C177.352 109.412 177.356 109.237 177.393 109.067C177.431 108.898 177.502 108.738 177.602 108.596C177.703 108.454 177.83 108.334 177.977 108.242C178.124 108.15 178.288 108.089 178.46 108.061C178.538 108.047 178.618 108.041 178.698 108.042Z" fill="#0045FF"/>
<path d="M199.561 121.702L190.792 102.242H189.633L198.402 121.702C198.608 122.156 198.715 122.65 198.715 123.149V124.157C198.713 124.407 198.613 124.647 198.436 124.824C198.259 125.001 198.02 125.101 197.769 125.103H198.934C199.185 125.101 199.424 125.001 199.601 124.824C199.778 124.647 199.878 124.407 199.88 124.157V123.149C199.878 122.649 199.769 122.156 199.561 121.702Z" fill="#0045FF"/>
<path opacity="0.2" d="M189.602 102.229H169.065L169.873 106.876H191.706L189.602 102.229Z" fill="black"/>
<path d="M219.064 104.271H131.447C130.683 104.283 129.945 103.992 129.394 103.461C128.844 102.931 128.526 102.204 128.509 101.44C128.5 101.313 128.5 101.185 128.509 101.058L134.046 37.7426C134.132 36.874 134.534 36.0672 135.176 35.4759C135.819 34.8846 136.656 34.55 137.528 34.5358H225.164C225.543 34.5275 225.92 34.5943 226.274 34.7323C226.627 34.8704 226.949 35.0769 227.222 35.34C227.495 35.6031 227.713 35.9177 227.864 36.2656C228.015 36.6134 228.096 36.9877 228.102 37.3668C228.111 37.4919 228.111 37.6176 228.102 37.7426L222.559 101.064C222.471 101.935 222.067 102.742 221.422 103.334C220.778 103.925 219.938 104.259 219.064 104.271Z" fill="#0045FF"/>
<path d="M129.124 94.2187L128.497 101.064C128.454 101.441 128.485 101.822 128.59 102.187C128.694 102.551 128.869 102.891 129.106 103.187C129.342 103.484 129.635 103.73 129.967 103.913C130.299 104.096 130.664 104.211 131.04 104.253C131.165 104.265 131.291 104.265 131.416 104.253H219.039C219.912 104.238 220.749 103.904 221.391 103.312C222.033 102.721 222.436 101.914 222.522 101.046L223.148 94.2L129.124 94.2187Z" fill="#0045FF"/>
<path opacity="0.7" d="M129.124 94.2187L128.497 101.064C128.454 101.441 128.485 101.822 128.59 102.187C128.694 102.551 128.869 102.891 129.106 103.187C129.342 103.484 129.635 103.73 129.967 103.913C130.299 104.096 130.664 104.211 131.04 104.253C131.165 104.265 131.291 104.265 131.416 104.253H219.039C219.912 104.238 220.749 103.904 221.391 103.312C222.033 102.721 222.436 101.914 222.522 101.046L223.148 94.2L129.124 94.2187Z" fill="white"/>
<path d="M220.054 92.2834H132.55C132.344 92.2875 132.14 92.2511 131.949 92.1761C131.758 92.1012 131.583 91.9892 131.436 91.8466C131.288 91.704 131.17 91.5337 131.088 91.3453C131.006 91.1569 130.962 90.9542 130.959 90.7489C130.953 90.6822 130.953 90.6151 130.959 90.5484L135.537 38.2188C135.585 37.75 135.802 37.3148 136.148 36.9952C136.494 36.6756 136.945 36.4937 137.416 36.4838H224.939C225.145 36.4797 225.349 36.5161 225.54 36.5911C225.731 36.666 225.906 36.778 226.054 36.9206C226.201 37.0632 226.32 37.2336 226.401 37.4219C226.483 37.6103 226.527 37.813 226.53 38.0183C226.53 38.081 226.53 38.1499 226.53 38.2188L221.952 90.5484C221.903 91.0198 221.682 91.4568 221.333 91.7766C220.983 92.0964 220.528 92.2767 220.054 92.2834Z" fill="#0045FF"/>
<path opacity="0.8" d="M220.054 92.2834H132.55C132.344 92.2875 132.14 92.2511 131.949 92.1761C131.758 92.1012 131.583 91.9892 131.436 91.8466C131.288 91.704 131.17 91.5337 131.088 91.3453C131.006 91.1569 130.962 90.9542 130.959 90.7489C130.953 90.6822 130.953 90.6151 130.959 90.5484L135.537 38.2188C135.585 37.75 135.802 37.3148 136.148 36.9952C136.494 36.6756 136.945 36.4937 137.416 36.4838H224.939C225.145 36.4797 225.349 36.5161 225.54 36.5911C225.731 36.666 225.906 36.778 226.054 36.9206C226.201 37.0632 226.32 37.2336 226.401 37.4219C226.483 37.6103 226.527 37.813 226.53 38.0183C226.53 38.081 226.53 38.1499 226.53 38.2188L221.952 90.5484C221.903 91.0198 221.682 91.4568 221.333 91.7766C220.983 92.0964 220.528 92.2767 220.054 92.2834Z" fill="#0045FF"/>
<path d="M227.107 34.5483H225.165C225.544 34.54 225.921 34.6068 226.274 34.7448C226.627 34.8828 226.95 35.0893 227.223 35.3525C227.496 35.6156 227.714 35.9302 227.865 36.278C228.016 36.6259 228.097 37.0001 228.102 37.3793C228.112 37.5044 228.112 37.63 228.102 37.7551L222.559 101.064C222.473 101.933 222.071 102.74 221.429 103.331C220.787 103.922 219.95 104.257 219.077 104.271H221.019C221.891 104.257 222.727 103.922 223.368 103.331C224.009 102.739 224.41 101.932 224.495 101.064L230.038 37.7488C230.08 37.3725 230.047 36.9916 229.941 36.628C229.836 36.2643 229.659 35.9251 229.423 35.6296C229.186 35.3341 228.893 35.0881 228.561 34.9058C228.23 34.7235 227.865 34.6084 227.489 34.5671L227.107 34.5483Z" fill="#0045FF"/>
<path opacity="0.2" d="M227.107 34.5483H225.165C225.544 34.54 225.921 34.6068 226.274 34.7448C226.627 34.8828 226.95 35.0893 227.223 35.3525C227.496 35.6156 227.714 35.9302 227.865 36.278C228.016 36.6259 228.097 37.0001 228.102 37.3793C228.112 37.5044 228.112 37.63 228.102 37.7551L222.559 101.064C222.473 101.933 222.071 102.74 221.429 103.331C220.787 103.922 219.95 104.257 219.077 104.271H221.019C221.891 104.257 222.727 103.922 223.368 103.331C224.009 102.739 224.41 101.932 224.495 101.064L230.038 37.7488C230.08 37.3725 230.047 36.9916 229.941 36.628C229.836 36.2643 229.659 35.9251 229.423 35.6296C229.186 35.3341 228.893 35.0881 228.561 34.9058C228.23 34.7235 227.865 34.6084 227.489 34.5671L227.107 34.5483Z" fill="white"/>
<path d="M154.215 91.895H194.362L198.972 39.1896H158.831L154.215 91.895Z" fill="#0045FF"/>
<path opacity="0.7" d="M154.215 91.895H194.362L198.972 39.1896H158.831L154.215 91.895Z" fill="white"/>
<path d="M168.708 45.9852H188.932C189.062 45.9829 189.186 45.9332 189.282 45.8455C189.378 45.7579 189.438 45.6383 189.452 45.5092C189.457 45.4493 189.45 45.3891 189.43 45.3322C189.411 45.2754 189.38 45.2232 189.339 45.179C189.299 45.1348 189.249 45.0996 189.194 45.0755C189.139 45.0515 189.08 45.0392 189.02 45.0394H168.789C168.66 45.0416 168.537 45.0904 168.441 45.1767C168.346 45.2631 168.285 45.3812 168.269 45.5092C168.263 45.57 168.27 45.6315 168.289 45.6896C168.309 45.7476 168.34 45.8009 168.381 45.8459C168.423 45.8909 168.473 45.9266 168.53 45.9506C168.586 45.9746 168.647 45.9864 168.708 45.9852Z" fill="#0045FF"/>
<path d="M161.906 71.771H186.677C186.807 71.7687 186.931 71.719 187.027 71.6314C187.123 71.5437 187.183 71.4241 187.197 71.295C187.202 71.2347 187.195 71.1739 187.175 71.1166C187.155 71.0593 187.124 71.0068 187.082 70.9625C187.041 70.9182 186.991 70.8831 186.935 70.8594C186.879 70.8358 186.819 70.8242 186.759 70.8253H161.987C161.859 70.8262 161.735 70.8748 161.64 70.9615C161.545 71.0483 161.486 71.1671 161.474 71.295C161.466 71.3555 161.472 71.4169 161.491 71.4749C161.509 71.533 161.54 71.5864 161.581 71.6315C161.622 71.6766 161.672 71.7124 161.728 71.7365C161.784 71.7606 161.845 71.7723 161.906 71.771Z" fill="#0045FF"/>
<path d="M161.661 74.527H189.953C190.082 74.5259 190.206 74.4765 190.301 74.3885C190.396 74.3004 190.455 74.1801 190.466 74.051C190.472 73.991 190.466 73.9303 190.447 73.873C190.428 73.8157 190.397 73.7631 190.356 73.7187C190.315 73.6743 190.265 73.6391 190.21 73.6154C190.154 73.5917 190.094 73.5801 190.034 73.5813H161.749C161.62 73.5834 161.497 73.6322 161.401 73.7186C161.305 73.8049 161.244 73.9231 161.229 74.051C161.223 74.1113 161.23 74.1723 161.249 74.2299C161.268 74.2875 161.298 74.3405 161.339 74.3854C161.38 74.4303 161.43 74.4661 161.485 74.4905C161.541 74.5149 161.601 74.5273 161.661 74.527Z" fill="#0045FF"/>
<path d="M161.424 77.2828H189.715C189.843 77.279 189.966 77.2286 190.061 77.1411C190.155 77.0536 190.215 76.9348 190.228 76.8068C190.236 76.7463 190.23 76.6849 190.211 76.6269C190.193 76.5688 190.162 76.5154 190.121 76.4703C190.08 76.4252 190.03 76.3894 189.974 76.3653C189.918 76.3412 189.857 76.3295 189.796 76.3308H161.505C161.376 76.3333 161.252 76.3832 161.158 76.4709C161.063 76.5587 161.004 76.6783 160.991 76.8068C160.984 76.8673 160.99 76.9287 161.009 76.9867C161.027 77.0448 161.058 77.0982 161.099 77.1433C161.14 77.1884 161.19 77.2242 161.246 77.2483C161.302 77.2723 161.363 77.2841 161.424 77.2828Z" fill="#0045FF"/>
<path d="M161.179 80.045H189.471C189.6 80.0439 189.725 79.9945 189.82 79.9065C189.915 79.8184 189.973 79.6981 189.984 79.569C189.991 79.5085 189.985 79.4471 189.967 79.3891C189.948 79.331 189.918 79.2776 189.877 79.2325C189.836 79.1874 189.785 79.1516 189.729 79.1275C189.673 79.1034 189.613 79.0917 189.552 79.093H161.267C161.137 79.0953 161.013 79.145 160.917 79.2327C160.821 79.3203 160.761 79.4399 160.747 79.569C160.741 79.6293 160.748 79.6903 160.767 79.7479C160.786 79.8055 160.816 79.8585 160.857 79.9034C160.898 79.9482 160.948 79.9841 161.003 80.0085C161.059 80.0329 161.119 80.0453 161.179 80.045Z" fill="#0045FF"/>
<path d="M160.966 82.7942H185.738C185.867 82.7919 185.992 82.7422 186.088 82.6545C186.183 82.5669 186.244 82.4473 186.257 82.3182C186.264 82.2579 186.257 82.1969 186.238 82.1393C186.219 82.0817 186.188 82.0287 186.147 81.9838C186.107 81.9389 186.057 81.9031 186.001 81.8787C185.946 81.8543 185.886 81.8419 185.825 81.8422H161.023C160.894 81.8447 160.77 81.8945 160.675 81.9823C160.581 82.0701 160.521 82.1896 160.509 82.3182C160.501 82.3809 160.508 82.4445 160.528 82.5045C160.548 82.5644 160.581 82.6192 160.625 82.6647C160.668 82.7103 160.722 82.7455 160.781 82.7679C160.84 82.7903 160.903 82.7993 160.966 82.7942Z" fill="#0045FF"/>
<path d="M160.697 85.544H188.988C189.117 85.5432 189.242 85.4949 189.338 85.4082C189.434 85.3216 189.494 85.2027 189.508 85.0742C189.514 85.0134 189.507 84.9519 189.488 84.8938C189.469 84.8358 189.437 84.7825 189.396 84.7375C189.354 84.6925 189.304 84.6568 189.248 84.6328C189.191 84.6088 189.131 84.597 189.07 84.5982H160.785C160.655 84.6006 160.53 84.6502 160.435 84.7379C160.339 84.8255 160.278 84.9452 160.265 85.0742C160.259 85.1343 160.265 85.1949 160.284 85.2522C160.303 85.3095 160.334 85.3621 160.375 85.4065C160.416 85.4509 160.466 85.4862 160.521 85.5099C160.577 85.5336 160.637 85.5452 160.697 85.544Z" fill="#0045FF"/>
<path d="M160.459 88.2999H188.75C188.879 88.2975 189.001 88.2485 189.096 88.1621C189.191 88.0756 189.25 87.9575 189.264 87.8301C189.271 87.7696 189.265 87.7082 189.247 87.6502C189.228 87.5921 189.197 87.5387 189.156 87.4936C189.115 87.4485 189.065 87.4127 189.009 87.3886C188.953 87.3646 188.893 87.3528 188.832 87.3541H160.541C160.412 87.3566 160.288 87.4065 160.193 87.4943C160.098 87.582 160.039 87.7016 160.027 87.8301C160.021 87.8901 160.027 87.9508 160.046 88.0081C160.065 88.0654 160.096 88.118 160.137 88.1624C160.178 88.2068 160.228 88.242 160.283 88.2657C160.339 88.2894 160.399 88.3011 160.459 88.2999Z" fill="#0045FF"/>
<path d="M170.799 49.1355H186.289C186.418 49.1344 186.543 49.085 186.638 48.9969C186.733 48.9089 186.791 48.7885 186.802 48.6595C186.809 48.5989 186.803 48.5376 186.785 48.4795C186.766 48.4215 186.736 48.3681 186.695 48.323C186.654 48.2778 186.603 48.242 186.547 48.218C186.491 48.1939 186.431 48.1821 186.37 48.1834H170.881C170.752 48.1873 170.629 48.2376 170.535 48.3251C170.44 48.4126 170.381 48.5314 170.367 48.6595C170.36 48.72 170.366 48.7813 170.385 48.8394C170.403 48.8974 170.434 48.9508 170.475 48.9959C170.516 49.0411 170.566 49.0769 170.622 49.101C170.678 49.125 170.739 49.1368 170.799 49.1355Z" fill="#0045FF"/>
<path d="M173.055 52.2796H183.514C183.643 52.2774 183.767 52.2286 183.862 52.1423C183.958 52.0559 184.019 51.9378 184.034 51.8098C184.04 51.749 184.034 51.6875 184.014 51.6294C183.995 51.5714 183.964 51.5181 183.922 51.4731C183.881 51.4281 183.83 51.3924 183.774 51.3684C183.718 51.3444 183.657 51.3326 183.596 51.3338H173.136C173.006 51.3349 172.882 51.3843 172.787 51.4724C172.692 51.5604 172.633 51.6808 172.622 51.8098C172.616 51.8699 172.623 51.9305 172.642 51.9878C172.661 52.0451 172.692 52.0977 172.733 52.1421C172.773 52.1865 172.823 52.2218 172.879 52.2455C172.934 52.2692 172.994 52.2808 173.055 52.2796Z" fill="#0045FF"/>
<g opacity="0.4">
<path d="M168.708 45.9852H188.932C189.062 45.9829 189.186 45.9332 189.282 45.8455C189.378 45.7579 189.438 45.6383 189.452 45.5092C189.457 45.4493 189.45 45.3891 189.43 45.3322C189.411 45.2754 189.38 45.2232 189.339 45.179C189.299 45.1348 189.249 45.0996 189.194 45.0755C189.139 45.0515 189.08 45.0392 189.02 45.0394H168.789C168.66 45.0416 168.537 45.0904 168.441 45.1767C168.345 45.2631 168.284 45.3812 168.269 45.5092C168.263 45.57 168.27 45.6315 168.289 45.6896C168.308 45.7476 168.34 45.8009 168.381 45.8459C168.423 45.8909 168.473 45.9266 168.53 45.9506C168.586 45.9746 168.647 45.9864 168.708 45.9852Z" fill="white"/>
<path d="M161.906 71.7714H186.677C186.807 71.7691 186.931 71.7194 187.027 71.6317C187.123 71.5441 187.183 71.4245 187.197 71.2954C187.202 71.235 187.195 71.1742 187.175 71.1169C187.155 71.0596 187.124 71.0071 187.082 70.9629C187.041 70.9186 186.991 70.8834 186.935 70.8598C186.879 70.8362 186.819 70.8245 186.758 70.8256H161.987C161.859 70.8266 161.735 70.8751 161.64 70.9619C161.545 71.0486 161.486 71.1674 161.474 71.2954C161.466 71.3559 161.472 71.4173 161.491 71.4753C161.509 71.5334 161.54 71.5867 161.581 71.6319C161.622 71.677 161.672 71.7128 161.728 71.7369C161.784 71.7609 161.845 71.7727 161.906 71.7714Z" fill="white"/>
<path d="M161.661 74.527H189.953C190.082 74.5259 190.207 74.4765 190.302 74.3885C190.397 74.3004 190.455 74.1801 190.466 74.051C190.473 73.991 190.466 73.9303 190.447 73.873C190.428 73.8157 190.397 73.7631 190.356 73.7187C190.315 73.6743 190.265 73.6391 190.21 73.6154C190.154 73.5917 190.094 73.5801 190.034 73.5813H161.749C161.62 73.5834 161.497 73.6322 161.401 73.7186C161.305 73.8049 161.244 73.9231 161.229 74.051C161.223 74.1113 161.23 74.1723 161.249 74.2299C161.268 74.2875 161.299 74.3405 161.339 74.3854C161.38 74.4303 161.43 74.4661 161.485 74.4905C161.541 74.5149 161.601 74.5273 161.661 74.527Z" fill="white"/>
<path d="M161.424 77.2828H189.715C189.844 77.279 189.967 77.2286 190.061 77.1411C190.155 77.0536 190.215 76.9348 190.229 76.8068C190.236 76.7463 190.23 76.6849 190.211 76.6269C190.193 76.5688 190.162 76.5154 190.121 76.4703C190.08 76.4252 190.03 76.3894 189.974 76.3653C189.918 76.3412 189.857 76.3295 189.796 76.3308H161.505C161.376 76.3333 161.252 76.3832 161.158 76.4709C161.063 76.5587 161.004 76.6783 160.992 76.8068C160.984 76.8673 160.99 76.9287 161.009 76.9867C161.027 77.0448 161.058 77.0982 161.099 77.1433C161.14 77.1884 161.19 77.2242 161.246 77.2483C161.302 77.2723 161.363 77.2841 161.424 77.2828Z" fill="white"/>
<path d="M161.179 80.045H189.47C189.6 80.0439 189.724 79.9945 189.819 79.9065C189.914 79.8184 189.973 79.6981 189.984 79.569C189.991 79.5085 189.985 79.4471 189.967 79.3891C189.948 79.331 189.917 79.2776 189.876 79.2325C189.835 79.1874 189.785 79.1516 189.729 79.1275C189.673 79.1034 189.613 79.0917 189.552 79.093H161.267C161.137 79.0953 161.013 79.145 160.917 79.2327C160.821 79.3203 160.761 79.4399 160.747 79.569C160.741 79.6293 160.748 79.6903 160.766 79.7479C160.785 79.8055 160.816 79.8585 160.857 79.9034C160.898 79.9482 160.948 79.9841 161.003 80.0085C161.059 80.0329 161.119 80.0453 161.179 80.045Z" fill="white"/>
<path d="M160.966 82.7947H185.738C185.868 82.7924 185.992 82.7427 186.088 82.655C186.183 82.5674 186.244 82.4478 186.258 82.3187C186.264 82.2583 186.257 82.1974 186.238 82.1398C186.219 82.0822 186.188 82.0292 186.148 81.9843C186.107 81.9394 186.057 81.9036 186.002 81.8792C185.946 81.8548 185.886 81.8423 185.825 81.8427H161.023C160.894 81.8451 160.77 81.895 160.675 81.9828C160.581 82.0706 160.522 82.1901 160.509 82.3187C160.502 82.3814 160.508 82.445 160.528 82.505C160.548 82.5649 160.581 82.6196 160.625 82.6652C160.669 82.7108 160.722 82.746 160.781 82.7684C160.84 82.7908 160.904 82.7998 160.966 82.7947Z" fill="white"/>
<path d="M160.697 85.544H188.988C189.117 85.5432 189.242 85.4949 189.338 85.4082C189.434 85.3216 189.494 85.2027 189.508 85.0742C189.514 85.0134 189.508 84.9519 189.488 84.8938C189.469 84.8358 189.438 84.7825 189.396 84.7375C189.355 84.6925 189.304 84.6568 189.248 84.6328C189.192 84.6088 189.131 84.597 189.07 84.5982H160.785C160.655 84.6006 160.53 84.6502 160.435 84.7379C160.339 84.8255 160.279 84.9452 160.265 85.0742C160.259 85.1343 160.265 85.1949 160.284 85.2522C160.303 85.3095 160.334 85.3621 160.375 85.4065C160.416 85.4509 160.466 85.4862 160.521 85.5099C160.577 85.5336 160.637 85.5452 160.697 85.544Z" fill="white"/>
<path d="M160.459 88.2999H188.75C188.878 88.2975 189.001 88.2485 189.096 88.1621C189.19 88.0756 189.25 87.9575 189.264 87.8301C189.271 87.7696 189.265 87.7082 189.247 87.6502C189.228 87.5921 189.197 87.5387 189.156 87.4936C189.115 87.4485 189.065 87.4127 189.009 87.3886C188.953 87.3646 188.893 87.3528 188.832 87.3541H160.541C160.411 87.3566 160.288 87.4065 160.193 87.4943C160.098 87.582 160.039 87.7016 160.027 87.8301C160.021 87.8901 160.027 87.9508 160.046 88.0081C160.065 88.0654 160.096 88.118 160.137 88.1624C160.178 88.2068 160.228 88.242 160.283 88.2657C160.339 88.2894 160.399 88.3011 160.459 88.2999Z" fill="white"/>
<path d="M170.8 49.1358H186.289C186.418 49.1347 186.543 49.0853 186.638 48.9973C186.733 48.9092 186.792 48.7889 186.802 48.6598C186.81 48.5993 186.804 48.5379 186.785 48.4799C186.767 48.4218 186.736 48.3685 186.695 48.3233C186.654 48.2782 186.604 48.2424 186.548 48.2183C186.492 48.1943 186.431 48.1825 186.37 48.1838H170.881C170.752 48.1876 170.63 48.238 170.535 48.3255C170.441 48.413 170.381 48.5318 170.368 48.6598C170.36 48.7203 170.366 48.7817 170.385 48.8398C170.403 48.8978 170.434 48.9512 170.475 48.9963C170.516 49.0414 170.566 49.0772 170.622 49.1013C170.678 49.1254 170.739 49.1371 170.8 49.1358Z" fill="white"/>
<path d="M173.054 52.2799H183.514C183.643 52.2778 183.767 52.229 183.862 52.1426C183.958 52.0563 184.019 51.9381 184.034 51.8102C184.04 51.7493 184.033 51.6879 184.014 51.6298C183.995 51.5718 183.963 51.5185 183.922 51.4735C183.881 51.4285 183.83 51.3928 183.774 51.3688C183.717 51.3448 183.657 51.333 183.596 51.3342H173.136C173.006 51.3353 172.882 51.3847 172.787 51.4727C172.692 51.5608 172.633 51.6811 172.622 51.8102C172.616 51.8702 172.623 51.9309 172.642 51.9882C172.661 52.0455 172.692 52.0981 172.733 52.1425C172.773 52.1869 172.823 52.2221 172.879 52.2458C172.934 52.2695 172.994 52.2812 173.054 52.2799Z" fill="white"/>
</g>
<path opacity="0.5" d="M161.837 67.1611H191.074L192.051 55.9436H162.814L161.837 67.1611Z" fill="white"/>
<path d="M129.763 124.996H155.405V100.814H129.763V124.996Z" fill="#0045FF"/>
<path d="M104.747 124.996H130.389V100.814H104.747V124.996Z" fill="#0045FF"/>
<path d="M129.506 103.281H155.398V99.9244H129.506V103.281Z" fill="#0045FF"/>
<path d="M129.512 101.365H175.816V97.4627H129.512V101.365Z" fill="#0045FF"/>
<path opacity="0.2" d="M104.747 124.996H130.389V100.814H104.747V124.996Z" fill="black"/>
<path opacity="0.2" d="M129.506 103.281H155.398V99.9244H129.506V103.281Z" fill="black"/>
<path opacity="0.2" d="M129.512 101.365H175.816V97.4627H129.512V101.365Z" fill="black"/>
<path d="M84.3351 101.365H130.639V97.4627H84.3351V101.365Z" fill="#0045FF"/>
<path d="M84.341 138.669C84.5071 138.669 84.6664 138.603 84.7839 138.485C84.9013 138.368 84.9673 138.209 84.9673 138.043V100.087C84.9665 99.8209 85.0182 99.5572 85.1195 99.311C85.2208 99.0649 85.3697 98.8411 85.5576 98.6526C85.7456 98.4641 85.9689 98.3145 86.2147 98.2124C86.4606 98.1104 86.7242 98.0578 86.9904 98.0578H130.019C130.185 98.0578 130.344 97.9918 130.462 97.8744C130.579 97.7569 130.645 97.5976 130.645 97.4315C130.645 97.2654 130.579 97.1061 130.462 96.9886C130.344 96.8712 130.185 96.8052 130.019 96.8052H86.9904C86.121 96.8068 85.2878 97.1533 84.6737 97.7687C84.0596 98.384 83.7147 99.2178 83.7147 100.087V138.043C83.7147 138.209 83.7806 138.368 83.8981 138.485C84.0156 138.603 84.1749 138.669 84.341 138.669Z" fill="#0045FF"/>
<path d="M84.2035 140.297C86.5083 140.297 88.3748 143.304 88.3748 147.012V151.784H86.3079C86.0824 151.784 84.8173 151.534 84.8173 146.968C84.8173 146.968 84.1158 151.772 85.2807 151.784H83.5208C83.5208 151.784 82.4685 151.584 82.4685 149.041V145.183C82.4685 145.183 80.7837 151.759 82.4685 151.759H80.0258V146.987C80.0258 143.304 81.8986 140.297 84.2035 140.297Z" fill="#0045FF"/>
<path d="M82.8005 139.296H85.6065C85.7726 139.296 85.9319 139.23 86.0494 139.112C86.1668 138.995 86.2328 138.835 86.2328 138.669C86.2328 138.503 86.1668 138.344 86.0494 138.226C85.9319 138.109 85.7726 138.043 85.6065 138.043H82.8005C82.6344 138.043 82.4751 138.109 82.3577 138.226C82.2402 138.344 82.1742 138.503 82.1742 138.669C82.1742 138.835 82.2402 138.995 82.3577 139.112C82.4751 139.23 82.6344 139.296 82.8005 139.296Z" fill="#0045FF"/>
<path d="M82.8005 140.548H85.6065C85.7726 140.548 85.9319 140.482 86.0494 140.365C86.1668 140.247 86.2328 140.088 86.2328 139.922C86.2328 139.756 86.1668 139.596 86.0494 139.479C85.9319 139.361 85.7726 139.295 85.6065 139.295H82.8005C82.6344 139.295 82.4751 139.361 82.3577 139.479C82.2402 139.596 82.1742 139.756 82.1742 139.922C82.1742 140.088 82.2402 140.247 82.3577 140.365C82.4751 140.482 82.6344 140.548 82.8005 140.548Z" fill="#0045FF"/>
<path d="M215.77 174.545H101.64V198.345H215.807C214.78 190.446 214.768 182.447 215.77 174.545Z" fill="#0045FF"/>
<path opacity="0.7" d="M215.77 174.545H101.64V198.345H215.807C214.78 190.446 214.768 182.447 215.77 174.545Z" fill="white"/>
<path d="M122.434 199.598H86.5646L86.2014 199.229C84.5017 197.53 83.1534 195.513 82.2334 193.294C81.3135 191.074 80.84 188.695 80.84 186.292C80.84 183.889 81.3135 181.51 82.2334 179.29C83.1534 177.07 84.5017 175.053 86.2014 173.355L86.5646 172.992H122.434L120.299 175.127C117.339 178.089 115.677 182.105 115.677 186.292C115.677 190.479 117.339 194.494 120.299 197.456L122.434 199.598Z" fill="#0045FF"/>
<g opacity="0.3">
<path d="M122.434 199.598H86.5646L86.2014 199.229C84.5017 197.53 83.1534 195.513 82.2334 193.294C81.3135 191.074 80.84 188.695 80.84 186.292C80.84 183.889 81.3135 181.51 82.2334 179.29C83.1534 177.07 84.5017 175.053 86.2014 173.355L86.5646 172.992H122.434L120.299 175.127C117.339 178.089 115.677 182.105 115.677 186.292C115.677 190.479 117.339 194.494 120.299 197.456L122.434 199.598Z" fill="black"/>
</g>
<path d="M216.941 199.598H120.061L119.954 199.492C116.565 196.175 114.552 191.702 114.317 186.965C114.225 184.45 114.655 181.944 115.58 179.603C116.505 177.263 117.905 175.14 119.691 173.368L120.061 173.004H216.941C217.273 173.004 217.592 173.136 217.827 173.371C218.062 173.606 218.194 173.925 218.194 174.257C218.194 174.589 218.062 174.908 217.827 175.143C217.592 175.378 217.273 175.51 216.941 175.51H121.113C118.373 178.437 116.848 182.297 116.848 186.307C116.848 190.317 118.373 194.178 121.113 197.105H216.941C217.273 197.105 217.592 197.237 217.827 197.472C218.062 197.707 218.194 198.026 218.194 198.358C218.19 198.688 218.057 199.003 217.822 199.236C217.588 199.468 217.271 199.598 216.941 199.598Z" fill="#0045FF"/>
<path d="M206.813 183.389H201.333C201.084 183.389 200.845 183.29 200.669 183.113C200.492 182.937 200.393 182.698 200.393 182.449C200.393 182.2 200.492 181.961 200.669 181.785C200.845 181.609 201.084 181.51 201.333 181.51H206.813C207.062 181.51 207.301 181.609 207.478 181.785C207.654 181.961 207.753 182.2 207.753 182.449C207.753 182.698 207.654 182.937 207.478 183.113C207.301 183.29 207.062 183.389 206.813 183.389Z" fill="white"/>
<path d="M194.161 183.389H143.241C142.992 183.389 142.753 183.29 142.577 183.113C142.4 182.937 142.301 182.698 142.301 182.449C142.301 182.2 142.4 181.961 142.577 181.785C142.753 181.609 142.992 181.51 143.241 181.51H194.161C194.411 181.51 194.649 181.609 194.826 181.785C195.002 181.961 195.101 182.2 195.101 182.449C195.101 182.698 195.002 182.937 194.826 183.113C194.649 183.29 194.411 183.389 194.161 183.389Z" fill="white"/>
<path d="M136.351 183.389H125.078C124.828 183.389 124.589 183.29 124.413 183.113C124.237 182.937 124.138 182.698 124.138 182.449C124.138 182.2 124.237 181.961 124.413 181.785C124.589 181.609 124.828 181.51 125.078 181.51H136.351C136.601 181.51 136.84 181.609 137.016 181.785C137.192 181.961 137.291 182.2 137.291 182.449C137.291 182.698 137.192 182.937 137.016 183.113C136.84 183.29 136.601 183.389 136.351 183.389Z" fill="white"/>
<path d="M206.813 191.349H158.586C158.337 191.349 158.098 191.25 157.922 191.074C157.746 190.898 157.647 190.659 157.647 190.41C157.647 190.161 157.746 189.922 157.922 189.745C158.098 189.569 158.337 189.47 158.586 189.47H206.813C207.062 189.47 207.301 189.569 207.478 189.745C207.654 189.922 207.753 190.161 207.753 190.41C207.753 190.659 207.654 190.898 207.478 191.074C207.301 191.25 207.062 191.349 206.813 191.349Z" fill="white"/>
<path d="M151.571 191.349H125.078C124.828 191.349 124.589 191.25 124.413 191.074C124.237 190.898 124.138 190.659 124.138 190.41C124.138 190.161 124.237 189.922 124.413 189.745C124.589 189.569 124.828 189.47 125.078 189.47H151.571C151.82 189.47 152.059 189.569 152.236 189.745C152.412 189.922 152.511 190.161 152.511 190.41C152.511 190.659 152.412 190.898 152.236 191.074C152.059 191.25 151.82 191.349 151.571 191.349Z" fill="white"/>
<path d="M212.745 126.499H110.027V147.92H212.782C211.855 140.81 211.843 133.612 212.745 126.499Z" fill="#0045FF"/>
<path opacity="0.8" d="M212.745 126.499H110.027V147.92H212.782C211.855 140.81 211.843 133.612 212.745 126.499Z" fill="white"/>
<path d="M128.742 149.047H96.4544L96.1225 148.715C94.5936 147.187 93.3808 145.372 92.5534 143.375C91.726 141.377 91.3001 139.237 91.3001 137.075C91.3001 134.913 91.726 132.772 92.5534 130.775C93.3808 128.778 94.5936 126.963 96.1225 125.434L96.4544 125.103H128.735L126.819 127.019C124.156 129.686 122.661 133.3 122.661 137.069C122.661 140.837 124.156 144.451 126.819 147.118L128.742 149.047Z" fill="#0045FF"/>
<g opacity="0.2">
<path d="M128.742 149.047H96.4544L96.1225 148.715C94.5936 147.187 93.3808 145.372 92.5534 143.375C91.726 141.377 91.3001 139.237 91.3001 137.075C91.3001 134.913 91.726 132.772 92.5534 130.775C93.3808 128.778 94.5936 126.963 96.1225 125.434L96.4544 125.103H128.735L126.819 127.019C124.156 129.686 122.661 133.3 122.661 137.069C122.661 140.837 124.156 144.451 126.819 147.118L128.742 149.047Z" fill="white"/>
</g>
<path d="M213.797 149.047H126.606L126.518 148.941C123.474 145.954 121.671 141.927 121.47 137.667C121.381 135.406 121.763 133.151 122.591 131.046C123.419 128.94 124.675 127.03 126.28 125.434L126.612 125.103H213.797C214.096 125.103 214.383 125.221 214.594 125.433C214.805 125.644 214.924 125.931 214.924 126.23C214.924 126.529 214.805 126.816 214.594 127.027C214.383 127.239 214.096 127.357 213.797 127.357H127.545C125.084 129.991 123.715 133.461 123.715 137.065C123.715 140.67 125.084 144.14 127.545 146.773H213.797C214.096 146.773 214.383 146.892 214.594 147.104C214.805 147.315 214.924 147.602 214.924 147.901C214.927 148.05 214.899 148.199 214.844 148.338C214.788 148.477 214.706 148.604 214.601 148.71C214.496 148.817 214.371 148.902 214.233 148.959C214.095 149.017 213.946 149.047 213.797 149.047Z" fill="#0045FF"/>
<g opacity="0.4">
<path d="M213.797 149.047H126.606L126.518 148.941C123.474 145.954 121.671 141.927 121.47 137.667C121.381 135.406 121.763 133.151 122.591 131.046C123.419 128.94 124.675 127.03 126.28 125.434L126.612 125.103H213.797C214.096 125.103 214.383 125.221 214.594 125.433C214.805 125.644 214.924 125.931 214.924 126.23C214.924 126.529 214.805 126.816 214.594 127.027C214.383 127.239 214.096 127.357 213.797 127.357H127.545C125.084 129.991 123.715 133.461 123.715 137.065C123.715 140.67 125.084 144.14 127.545 146.773H213.797C214.096 146.773 214.383 146.892 214.594 147.104C214.805 147.315 214.924 147.602 214.924 147.901C214.927 148.05 214.899 148.199 214.844 148.338C214.788 148.477 214.706 148.604 214.601 148.71C214.496 148.817 214.371 148.902 214.233 148.959C214.095 149.017 213.946 149.047 213.797 149.047Z" fill="white"/>
</g>
<path d="M204.684 134.485H199.748C199.524 134.485 199.309 134.396 199.15 134.237C198.992 134.079 198.903 133.864 198.903 133.639C198.903 133.528 198.925 133.418 198.967 133.316C199.01 133.213 199.072 133.12 199.15 133.042C199.229 132.963 199.322 132.901 199.425 132.858C199.527 132.816 199.637 132.794 199.748 132.794H204.684C204.795 132.794 204.905 132.816 205.007 132.858C205.11 132.901 205.203 132.963 205.282 133.042C205.36 133.12 205.422 133.213 205.465 133.316C205.507 133.418 205.529 133.528 205.529 133.639C205.529 133.864 205.44 134.079 205.282 134.237C205.123 134.396 204.908 134.485 204.684 134.485Z" fill="white"/>
<path d="M193.266 134.485H147.469C147.357 134.486 147.247 134.465 147.144 134.422C147.041 134.38 146.947 134.318 146.869 134.239C146.79 134.161 146.728 134.067 146.686 133.964C146.643 133.861 146.622 133.751 146.623 133.64C146.622 133.528 146.643 133.418 146.686 133.315C146.728 133.212 146.79 133.118 146.869 133.04C146.947 132.961 147.041 132.899 147.144 132.857C147.247 132.814 147.357 132.793 147.469 132.794H193.266C193.377 132.793 193.487 132.814 193.59 132.857C193.693 132.899 193.787 132.961 193.865 133.04C193.944 133.118 194.006 133.212 194.048 133.315C194.091 133.418 194.112 133.528 194.111 133.64C194.112 133.751 194.091 133.861 194.048 133.964C194.006 134.067 193.944 134.161 193.865 134.239C193.787 134.318 193.693 134.38 193.59 134.422C193.487 134.465 193.377 134.486 193.266 134.485Z" fill="white"/>
<path d="M141.268 134.485H131.121C131.01 134.486 130.9 134.465 130.797 134.422C130.694 134.38 130.6 134.318 130.522 134.239C130.443 134.161 130.381 134.067 130.339 133.964C130.296 133.861 130.275 133.751 130.276 133.64C130.275 133.528 130.296 133.418 130.339 133.315C130.381 133.212 130.443 133.118 130.522 133.04C130.6 132.961 130.694 132.899 130.797 132.857C130.9 132.814 131.01 132.793 131.121 132.794H141.268C141.379 132.793 141.489 132.814 141.592 132.857C141.695 132.899 141.789 132.961 141.868 133.04C141.946 133.118 142.009 133.212 142.051 133.315C142.093 133.418 142.114 133.528 142.113 133.64C142.114 133.751 142.093 133.861 142.051 133.964C142.009 134.067 141.946 134.161 141.868 134.239C141.789 134.318 141.695 134.38 141.592 134.422C141.489 134.465 141.379 134.486 141.268 134.485Z" fill="white"/>
<path d="M204.684 141.625H161.279C161.168 141.626 161.058 141.605 160.955 141.563C160.852 141.52 160.758 141.458 160.679 141.38C160.601 141.301 160.538 141.207 160.496 141.104C160.454 141.001 160.433 140.891 160.434 140.78C160.433 140.669 160.454 140.558 160.496 140.455C160.538 140.352 160.601 140.259 160.679 140.18C160.758 140.101 160.852 140.039 160.955 139.997C161.058 139.955 161.168 139.933 161.279 139.934H204.684C204.908 139.934 205.123 140.023 205.282 140.182C205.44 140.34 205.529 140.556 205.529 140.78C205.529 141.004 205.44 141.219 205.282 141.378C205.123 141.536 204.908 141.625 204.684 141.625Z" fill="white"/>
<path d="M154.934 141.625H131.134C131.023 141.628 130.913 141.608 130.81 141.568C130.707 141.528 130.612 141.467 130.533 141.391C130.453 141.314 130.389 141.222 130.345 141.12C130.301 141.019 130.277 140.909 130.276 140.798C130.275 140.687 130.296 140.577 130.339 140.474C130.381 140.371 130.443 140.277 130.522 140.199C130.6 140.12 130.694 140.058 130.797 140.016C130.9 139.973 131.01 139.952 131.121 139.953H154.922C155.033 139.952 155.143 139.973 155.246 140.016C155.349 140.058 155.443 140.12 155.522 140.199C155.6 140.277 155.663 140.371 155.705 140.474C155.747 140.577 155.768 140.687 155.767 140.798C155.764 141.018 155.675 141.227 155.519 141.382C155.364 141.536 155.154 141.624 154.934 141.625Z" fill="white"/>
<path d="M216.358 150.444H113.641V171.864H216.396C215.469 164.755 215.456 157.556 216.358 150.444Z" fill="#0045FF"/>
<path opacity="0.7" d="M216.358 150.444H113.641V171.864H216.396C215.469 164.755 215.456 157.556 216.358 150.444Z" fill="white"/>
<path d="M132.362 172.991H100.074L99.7487 172.66C98.2198 171.131 97.007 169.316 96.1796 167.319C95.3522 165.322 94.9263 163.181 94.9263 161.019C94.9263 158.857 95.3522 156.717 96.1796 154.719C97.007 152.722 98.2198 150.907 99.7487 149.379L100.074 149.047H132.362L130.439 150.97C129.118 152.289 128.071 153.856 127.356 155.58C126.641 157.304 126.273 159.153 126.273 161.019C126.273 162.886 126.641 164.734 127.356 166.458C128.071 168.183 129.118 169.749 130.439 171.069L132.362 172.991Z" fill="#0045FF"/>
<path d="M217.417 172.992H130.22L130.126 172.898C127.081 169.911 125.278 165.884 125.077 161.624C124.991 159.363 125.374 157.109 126.202 155.004C127.03 152.899 128.285 150.988 129.888 149.392L130.22 149.06H217.417C217.715 149.061 218.001 149.181 218.212 149.392C218.423 149.603 218.543 149.888 218.544 150.187C218.543 150.485 218.423 150.771 218.212 150.982C218.001 151.193 217.715 151.313 217.417 151.314H131.165C128.7 153.946 127.328 157.417 127.328 161.022C127.328 164.628 128.7 168.099 131.165 170.731H217.417C217.565 170.731 217.712 170.76 217.848 170.816C217.985 170.873 218.109 170.956 218.214 171.061C218.319 171.165 218.402 171.29 218.458 171.426C218.515 171.563 218.544 171.71 218.544 171.858C218.544 172.157 218.426 172.445 218.214 172.657C218.003 172.87 217.716 172.99 217.417 172.992Z" fill="#0045FF"/>
<g opacity="0.3">
<path d="M217.417 172.992H130.22L130.126 172.898C127.081 169.911 125.278 165.884 125.077 161.624C124.991 159.363 125.374 157.109 126.202 155.004C127.03 152.899 128.285 150.988 129.888 149.392L130.22 149.06H217.417C217.715 149.061 218.001 149.181 218.212 149.392C218.423 149.603 218.543 149.888 218.544 150.187C218.543 150.485 218.423 150.771 218.212 150.982C218.001 151.193 217.715 151.313 217.417 151.314H131.165C128.7 153.946 127.328 157.417 127.328 161.022C127.328 164.628 128.7 168.099 131.165 170.731H217.417C217.565 170.731 217.712 170.76 217.848 170.816C217.985 170.873 218.109 170.956 218.214 171.061C218.319 171.165 218.402 171.29 218.458 171.426C218.515 171.563 218.544 171.71 218.544 171.858C218.544 172.157 218.426 172.445 218.214 172.657C218.003 172.87 217.716 172.99 217.417 172.992Z" fill="white"/>
</g>
<path d="M134.735 163.878H139.671C139.895 163.878 140.11 163.967 140.269 164.126C140.427 164.285 140.516 164.5 140.516 164.724C140.515 164.948 140.425 165.162 140.267 165.32C140.109 165.478 139.895 165.568 139.671 165.569H134.735C134.512 165.568 134.298 165.478 134.139 165.32C133.981 165.162 133.892 164.948 133.89 164.724C133.89 164.5 133.979 164.285 134.138 164.126C134.296 163.967 134.511 163.878 134.735 163.878Z" fill="white"/>
<path d="M146.153 163.878H191.95C192.062 163.877 192.172 163.899 192.275 163.941C192.378 163.983 192.471 164.045 192.55 164.124C192.629 164.203 192.691 164.296 192.733 164.399C192.776 164.502 192.797 164.613 192.796 164.724C192.796 164.835 192.774 164.945 192.732 165.047C192.689 165.15 192.627 165.243 192.548 165.322C192.47 165.4 192.377 165.463 192.274 165.505C192.171 165.548 192.061 165.569 191.95 165.569H146.153C146.042 165.569 145.932 165.548 145.83 165.505C145.727 165.463 145.634 165.4 145.555 165.322C145.477 165.243 145.415 165.15 145.372 165.047C145.33 164.945 145.308 164.835 145.308 164.724C145.307 164.613 145.328 164.502 145.37 164.399C145.413 164.296 145.475 164.203 145.554 164.124C145.632 164.045 145.726 163.983 145.829 163.941C145.932 163.899 146.042 163.877 146.153 163.878Z" fill="white"/>
<path d="M198.151 163.878H208.297C208.409 163.878 208.519 163.899 208.622 163.941C208.725 163.983 208.819 164.045 208.897 164.124C208.976 164.203 209.038 164.296 209.08 164.399C209.123 164.502 209.144 164.613 209.143 164.724C209.143 164.835 209.121 164.945 209.079 165.047C209.036 165.15 208.974 165.243 208.895 165.322C208.817 165.4 208.724 165.463 208.621 165.505C208.518 165.548 208.408 165.569 208.297 165.569H198.151C198.039 165.57 197.928 165.549 197.824 165.507C197.721 165.465 197.626 165.403 197.547 165.324C197.467 165.246 197.404 165.152 197.36 165.049C197.317 164.946 197.294 164.836 197.293 164.724C197.293 164.612 197.315 164.501 197.358 164.397C197.402 164.294 197.465 164.2 197.545 164.122C197.625 164.043 197.719 163.981 197.824 163.939C197.928 163.897 198.039 163.877 198.151 163.878Z" fill="white"/>
<path d="M134.735 156.738H178.14C178.251 156.738 178.362 156.759 178.464 156.801C178.567 156.843 178.661 156.906 178.74 156.984C178.818 157.063 178.881 157.156 178.923 157.259C178.965 157.362 178.986 157.473 178.985 157.584C178.985 157.695 178.964 157.805 178.921 157.908C178.879 158.01 178.816 158.103 178.738 158.182C178.659 158.26 178.566 158.323 178.464 158.365C178.361 158.408 178.251 158.429 178.14 158.429H134.735C134.512 158.428 134.298 158.338 134.139 158.18C133.981 158.022 133.892 157.808 133.89 157.584C133.89 157.36 133.979 157.145 134.138 156.986C134.296 156.827 134.511 156.738 134.735 156.738Z" fill="white"/>
<path d="M184.485 156.738H208.285C208.396 156.738 208.507 156.759 208.61 156.801C208.713 156.843 208.806 156.906 208.885 156.984C208.963 157.063 209.026 157.156 209.068 157.259C209.11 157.362 209.131 157.473 209.131 157.584C209.131 157.808 209.042 158.023 208.883 158.182C208.724 158.34 208.509 158.429 208.285 158.429H184.485C184.374 158.429 184.264 158.408 184.161 158.365C184.058 158.323 183.965 158.26 183.887 158.182C183.808 158.103 183.746 158.01 183.703 157.908C183.661 157.805 183.639 157.695 183.639 157.584C183.638 157.473 183.66 157.362 183.702 157.259C183.744 157.156 183.806 157.063 183.885 156.984C183.964 156.906 184.057 156.843 184.16 156.801C184.263 156.759 184.373 156.738 184.485 156.738Z" fill="white"/>
</svg>
