<svg width="194" height="194" viewBox="0 0 194 194" fill="none" xmlns="http://www.w3.org/2000/svg">
<path d="M92.6699 7.5C94.5944 4.16667 99.4056 4.16667 101.33 7.5L176.674 138C178.599 141.333 176.193 145.5 172.344 145.5H21.6558C17.8068 145.5 15.4012 141.333 17.3257 138L92.6699 7.5Z" fill="#99B5FF"/>
<path d="M92.6699 27.1714C94.5944 23.8381 99.4057 23.8381 101.33 27.1714L159.639 128.164C161.563 131.498 159.157 135.664 155.308 135.664H38.6917C34.8427 135.664 32.4371 131.498 34.3616 128.164L92.6699 27.1714Z" fill="#3D72FF"/>
<path d="M92.6701 42.7728C94.5946 39.4394 99.4058 39.4394 101.33 42.7728L146.127 120.364C148.052 123.697 145.646 127.864 141.797 127.864H52.2031C48.3541 127.864 45.9485 123.697 47.873 120.364L92.6701 42.7728Z" fill="#0045FF"/>
</svg>
