<svg width="170" height="170" viewBox="0 0 170 170" fill="none" xmlns="http://www.w3.org/2000/svg">
<path d="M77.9289 7.07106C81.8342 3.16582 88.1658 3.16582 92.0711 7.07107L162.929 77.9289C166.834 81.8342 166.834 88.1658 162.929 92.0711L92.0711 162.929C88.1658 166.834 81.8342 166.834 77.9289 162.929L7.07106 92.0711C3.16582 88.1658 3.16582 81.8342 7.07107 77.9289L77.9289 7.07106Z" fill="#99B5FF"/>
<path d="M76.7401 18.3648C80.6453 14.4595 86.977 14.4595 90.8822 18.3648L150.446 77.9289C154.352 81.8342 154.352 88.1658 150.446 92.0711L90.8822 151.635C86.977 155.54 80.6453 155.54 76.7401 151.635L17.1759 92.0711C13.2707 88.1658 13.2707 81.8342 17.1759 77.9289L76.7401 18.3648Z" fill="#3D72FF"/>
<path d="M77.0374 34.4137C80.9426 30.5085 87.2743 30.5085 91.1795 34.4137L134.397 77.6317C138.303 81.537 138.303 87.8686 134.398 91.7739L91.1795 134.992C87.2743 138.897 80.9426 138.897 77.0374 134.992L33.8194 91.7739C29.9141 87.8686 29.9141 81.537 33.8194 77.6317L77.0374 34.4137Z" fill="#0045FF"/>
</svg>
