<svg width="170" height="170" viewBox="0 0 170 170" fill="none" xmlns="http://www.w3.org/2000/svg">
<path d="M59.6194 49.3801L70.6426 10.8241C74.7731 -3.60802 95.2269 -3.60802 99.3574 10.8241L110.368 49.3801C111.065 51.8191 112.372 54.0402 114.166 55.8339C115.96 57.6276 118.181 58.9347 120.62 59.6319L159.176 70.6426C173.608 74.7731 173.608 95.2269 159.176 99.3574L120.62 110.368C118.181 111.065 115.96 112.372 114.166 114.166C112.372 115.96 111.065 118.181 110.368 120.62L99.3574 159.176C95.2269 173.608 74.7731 173.608 70.6426 159.176L59.6319 120.62C58.9347 118.181 57.6276 115.96 55.834 114.166C54.0403 112.372 51.8191 111.065 49.3801 110.368L10.8241 99.3574C-3.60802 95.2269 -3.60802 74.7731 10.8241 70.6426L49.3801 59.6319C51.8191 58.9347 54.0403 57.6276 55.834 55.8339C57.6276 54.0402 58.9347 51.8191 59.6319 49.3801" fill="#99B5FF"/>
<path d="M63.9704 55.4864L73.1038 23.5399C76.5263 11.5819 93.4737 11.5819 96.8961 23.5399L106.019 55.4864C106.597 57.5072 107.68 59.3476 109.166 60.8338C110.652 62.32 112.493 63.4031 114.514 63.9807L146.46 73.1038C158.418 76.5263 158.418 93.4737 146.46 96.8961L114.514 106.019C112.493 106.597 110.652 107.68 109.166 109.166C107.68 110.652 106.597 112.493 106.019 114.514L96.8961 146.46C93.4737 158.418 76.5263 158.418 73.1038 146.46L63.9807 114.514C63.403 112.493 62.32 110.652 60.8338 109.166C59.3476 107.68 57.5072 106.597 55.4864 106.019L23.5399 96.8961C11.5819 93.4737 11.5819 76.5263 23.5399 73.1038L55.4864 63.9807C57.5072 63.4031 59.3476 62.32 60.8338 60.8338C62.32 59.3476 63.403 57.5072 63.9807 55.4864" fill="#3D72FF"/>
<path d="M68.3846 60.2222L75.8646 34.0592C78.6675 24.266 92.5468 24.266 95.3497 34.0592L102.821 60.2222C103.294 61.8773 104.181 63.3845 105.398 64.6016C106.616 65.8188 108.123 66.7057 109.778 67.1788L135.941 74.6503C145.734 77.4532 145.734 91.3325 135.941 94.1354L109.778 101.607C108.123 102.08 106.616 102.967 105.398 104.184C104.181 105.401 103.294 106.908 102.821 108.563L95.3497 134.727C92.5468 144.52 78.6675 144.52 75.8646 134.727L68.3931 108.563C67.92 106.908 67.0331 105.401 65.8159 104.184C64.5988 102.967 63.0916 102.08 61.4365 101.607L35.2735 94.1354C25.4803 91.3325 25.4803 77.4532 35.2735 74.6503L61.4365 67.1788C63.0916 66.7057 64.5988 65.8188 65.8159 64.6016C67.0331 63.3845 67.92 61.8773 68.3931 60.2222" fill="#0045FF"/>
</svg>
